{"glyphs":{"0":{"ha":736,"x_min":28,"x_max":708,"o":"m 28 464 q 54 650 28 564 q 128 799 81 736 q 238 899 175 863 q 376 935 301 935 q 524 892 461 935 q 627 783 586 850 q 688 631 668 715 q 708 461 708 546 q 687 289 708 375 q 623 134 665 203 q 516 22 581 65 q 366 -21 452 -21 q 219 23 282 -21 q 113 137 155 66 q 49 293 71 207 q 28 464 28 379 m 197 465 q 207 368 197 422 q 237 266 216 314 q 292 185 258 218 q 374 153 325 153 q 447 178 415 153 q 499 244 478 203 q 531 336 519 285 q 542 441 542 387 q 533 539 542 484 q 503 644 524 595 q 449 727 482 693 q 367 761 415 761 q 286 731 318 761 q 233 657 253 701 q 205 561 214 612 q 197 465 197 510 z "},"1":{"ha":336,"x_min":4,"x_max":302,"o":"m 4 771 l 4 777 q 16 782 4 775 q 46 801 28 789 q 90 828 65 812 q 140 860 115 843 q 277 947 200 897 l 281 947 l 279 125 q 282 78 279 101 q 289 36 285 58 q 302 -3 293 14 l 66 -3 q 82 38 76 16 q 90 79 87 60 q 93 125 93 103 l 92 745 l 4 771 z "},"2":{"ha":648,"x_min":24,"x_max":623,"o":"m 24 -4 l 317 528 q 355 608 336 564 q 374 692 374 652 q 349 753 374 733 q 281 772 323 772 q 231 770 253 772 q 189 763 208 768 q 150 746 170 757 q 109 720 131 736 l 98 714 l 126 897 q 322 940 220 940 q 419 923 374 940 q 497 876 464 905 q 550 803 530 846 q 570 711 570 761 q 545 581 570 645 q 489 458 521 517 q 402 300 444 379 q 315 142 359 221 l 371 140 q 498 141 435 140 q 623 168 561 142 l 579 -4 l 24 -4 z "},"3":{"ha":579,"x_min":31,"x_max":554,"o":"m 31 178 l 39 174 q 123 131 80 147 q 215 114 167 114 q 280 128 251 114 q 329 166 309 142 q 359 222 349 191 q 370 288 370 253 q 342 387 370 346 q 252 428 314 428 q 197 427 224 428 q 139 422 170 427 l 139 579 q 208 579 174 578 q 269 592 241 581 q 312 626 296 603 q 328 692 328 648 q 296 767 328 746 q 214 789 264 789 q 134 779 169 789 q 64 747 100 770 l 54 743 l 96 905 q 272 940 184 940 q 442 885 376 940 q 507 721 507 829 q 504 664 507 693 q 490 609 500 635 q 463 563 481 583 q 416 529 444 542 q 483 492 456 517 q 526 434 510 467 q 548 363 542 401 q 554 286 554 325 q 526 168 554 224 q 451 70 497 111 q 346 3 404 28 q 228 -22 288 -22 q 149 -16 192 -22 q 69 1 106 -9 l 31 178 z "},"4":{"ha":755,"x_min":4,"x_max":736,"o":"m 4 180 l 361 926 l 604 926 l 604 338 l 648 338 q 672 340 662 338 q 691 344 682 342 q 710 349 700 346 q 736 354 721 351 l 688 182 l 604 182 q 606 126 606 150 q 607 71 606 103 q 616 27 608 43 q 627 0 624 11 l 380 0 q 398 45 393 24 q 406 89 404 66 q 408 134 408 111 q 408 182 408 157 l 4 180 m 239 334 q 323 334 288 335 q 407 334 358 334 l 407 703 l 239 334 z "},"5":{"ha":629,"x_min":36,"x_max":603,"o":"m 36 193 q 127 152 77 165 q 227 138 178 138 q 294 144 262 138 q 349 169 325 151 q 386 216 372 187 q 400 292 400 245 q 386 377 400 342 q 346 435 371 412 q 287 469 321 458 q 214 479 253 479 q 131 471 176 479 q 49 449 85 463 l 71 926 l 538 926 l 538 749 l 533 749 q 490 767 516 761 q 439 777 464 774 q 376 778 410 779 l 318 778 q 273 777 294 778 q 243 775 252 777 l 236 618 q 277 621 257 625 q 318 618 297 618 q 428 596 376 618 q 518 532 479 574 q 580 431 557 490 q 603 300 603 372 q 574 166 603 229 q 498 61 546 103 q 392 0 450 20 q 271 -20 334 -20 q 174 -11 222 -20 q 78 8 126 -3 l 36 193 z "},"6":{"ha":662,"x_min":21,"x_max":631,"o":"m 21 366 q 70 602 21 492 q 193 796 118 713 q 362 910 273 881 q 549 940 452 940 q 556 939 549 940 q 572 935 564 937 q 588 932 581 933 q 596 930 595 930 l 596 754 q 517 784 562 781 q 425 775 473 787 q 322 717 359 758 q 258 607 286 676 q 319 612 290 614 q 380 610 347 610 q 471 594 428 610 q 550 541 514 578 q 610 438 590 498 q 631 311 631 378 q 607 172 631 233 q 543 67 583 110 q 449 0 503 24 q 332 -24 395 -24 q 200 5 258 -24 q 103 87 143 35 q 42 210 64 139 q 21 366 21 281 m 210 332 q 215 255 210 294 q 236 184 221 216 q 274 133 250 153 q 338 113 298 113 q 390 129 368 113 q 425 172 411 146 q 445 229 439 197 q 450 292 450 261 q 443 361 450 326 q 421 425 436 396 q 381 470 406 453 q 323 488 357 488 q 274 472 296 488 q 238 434 253 457 q 217 384 224 411 q 210 332 210 357 z "},"7":{"ha":579,"x_min":25,"x_max":567,"o":"m 25 736 l 52 926 l 522 926 l 567 787 l 378 220 q 355 148 367 186 q 343 74 343 110 q 375 4 343 31 l 375 0 l 113 0 q 122 33 113 1 q 148 115 132 64 q 185 233 164 167 q 229 369 207 298 q 274 507 252 439 q 314 631 296 575 q 344 725 332 686 q 359 774 357 764 l 129 774 q 100 773 109 774 q 83 769 92 772 q 63 758 75 765 q 25 736 50 750 z "},"8":{"ha":688,"x_min":29,"x_max":660,"o":"m 29 245 q 42 328 29 288 q 75 399 54 367 q 124 455 96 431 q 184 493 153 479 q 135 528 158 510 q 93 568 111 546 q 65 619 75 590 q 54 686 54 648 q 80 800 54 749 q 153 884 106 851 q 245 924 195 913 q 346 936 294 936 q 436 926 389 936 q 522 892 484 917 q 596 812 567 863 q 625 697 625 761 q 592 576 625 629 q 507 500 558 524 q 569 459 541 480 q 617 410 597 437 q 649 347 637 383 q 660 264 660 311 q 634 137 660 190 q 565 48 608 83 q 465 -3 521 14 q 349 -20 408 -20 q 241 -7 294 -20 q 140 36 187 5 q 60 123 90 68 q 29 245 29 178 m 196 269 q 208 202 196 233 q 240 149 220 171 q 288 114 260 126 q 350 102 317 102 q 398 109 374 102 q 442 132 422 117 q 473 170 461 147 q 485 225 485 193 q 474 280 485 256 q 445 324 463 304 q 404 357 427 343 q 361 382 382 371 q 308 399 329 397 q 282 404 288 401 q 223 349 250 385 q 196 269 196 314 m 225 726 q 240 670 225 694 q 278 628 256 646 q 326 596 300 610 q 374 572 353 582 q 383 570 376 571 q 393 567 390 568 q 437 613 417 587 q 457 673 457 639 q 423 778 457 734 q 326 821 389 821 q 290 815 308 821 q 257 798 272 810 q 234 769 243 786 q 225 726 225 751 z "},"9":{"ha":662,"x_min":32,"x_max":642,"o":"m 32 604 q 56 744 32 682 q 120 849 79 806 q 214 917 160 893 q 330 940 268 940 q 461 911 402 940 q 559 830 519 882 q 620 706 599 778 q 642 550 642 635 q 594 314 642 425 q 471 121 546 203 q 302 5 391 35 q 115 -24 212 -25 q 107 -22 115 -24 q 92 -20 100 -21 q 76 -17 83 -18 l 68 -16 l 66 161 q 145 131 101 135 q 237 140 189 127 q 341 199 305 159 q 406 309 378 240 q 345 304 372 302 q 282 307 317 307 q 192 322 236 307 q 113 376 149 338 q 52 478 73 419 q 32 604 32 538 m 214 625 q 221 556 214 591 q 243 492 228 521 q 283 447 258 464 q 340 429 307 429 q 389 444 368 429 q 424 481 410 458 q 447 531 439 504 q 454 583 454 558 q 449 660 454 621 q 428 730 443 699 q 390 783 414 762 q 326 803 366 803 q 274 786 294 803 q 239 744 253 770 q 219 687 225 718 q 214 625 214 656 z "},"\r":{"ha":678,"x_min":0,"x_max":0,"o":""}," ":{"ha":307,"x_min":0,"x_max":0,"o":""},"!":{"ha":279,"x_min":25,"x_max":256,"o":"m 25 926 l 256 926 q 244 885 248 905 q 237 848 240 864 q 235 812 235 829 l 201 243 l 81 243 l 47 812 q 45 850 47 831 q 38 887 42 867 q 25 926 33 907 m 49 82 q 75 151 49 122 q 139 179 102 179 q 203 151 176 179 q 229 82 229 122 q 203 13 229 42 q 139 -17 176 -17 q 75 12 102 -17 q 49 82 49 41 z "},"\"":{"ha":395,"x_min":46,"x_max":351,"o":"m 46 593 l 46 914 l 160 914 l 160 593 l 46 593 m 237 593 l 237 914 l 351 914 l 351 593 l 237 593 z "},"#":{"ha":703,"x_min":16,"x_max":686,"o":"m 16 289 l 16 408 l 170 408 l 189 522 l 53 522 l 53 643 l 205 643 l 245 914 l 364 914 l 325 643 l 441 643 l 482 914 l 604 914 l 564 643 l 686 643 l 686 522 l 546 522 l 530 408 l 652 408 l 652 289 l 511 289 l 468 0 l 346 0 l 389 289 l 272 289 l 229 0 l 109 0 l 151 289 l 16 289 m 292 408 l 406 408 l 425 522 l 307 522 l 292 408 z "},"$":{"ha":479,"x_min":17,"x_max":461,"o":"m 17 119 l 17 304 q 77 239 45 262 q 136 205 109 216 q 197 192 168 193 q 302 278 303 192 q 290 318 302 300 q 255 352 277 336 q 206 384 233 368 q 153 415 179 399 q 46 521 73 464 q 20 647 20 578 q 69 787 20 726 q 211 864 118 847 l 211 985 l 309 985 l 309 868 q 371 856 335 865 q 435 827 407 846 l 435 633 q 386 682 414 665 q 334 707 358 699 q 272 718 304 716 q 210 700 235 718 q 183 640 184 681 q 203 584 182 608 q 286 525 225 559 q 347 487 317 507 q 403 441 378 468 q 445 377 428 414 q 461 288 461 340 q 419 143 461 201 q 309 61 376 85 l 309 -71 l 211 -71 l 211 45 q 138 55 171 46 q 79 76 104 64 q 38 99 54 87 q 17 119 21 111 z "},"%":{"ha":903,"x_min":25,"x_max":876,"o":"m 25 644 q 36 745 25 694 q 68 836 46 796 q 123 902 90 876 q 203 928 157 928 q 281 903 249 928 q 335 838 314 878 q 367 749 357 799 q 376 650 376 700 q 368 548 376 598 q 339 458 359 498 q 279 384 315 411 q 199 357 243 357 q 126 380 160 357 q 69 440 92 404 q 35 537 45 483 q 25 644 25 591 m 131 639 q 133 586 131 618 q 142 523 135 554 q 164 469 150 492 q 201 447 178 447 q 238 471 224 447 q 260 529 253 496 q 269 597 267 562 q 272 653 272 632 q 270 705 272 674 q 260 765 268 736 q 239 816 253 794 q 203 838 225 838 q 164 814 178 838 q 142 759 150 791 q 133 693 135 726 q 131 639 131 660 m 205 0 l 608 914 l 700 914 l 294 0 l 205 0 m 525 275 q 535 375 525 326 q 568 466 546 425 q 624 532 590 507 q 703 557 657 557 q 781 532 749 557 q 835 468 814 507 q 866 379 856 428 q 876 279 876 330 q 867 178 876 228 q 838 87 859 129 q 779 14 814 41 q 699 -14 743 -14 q 624 10 659 -14 q 568 71 590 33 q 535 168 545 113 q 525 275 525 222 m 629 268 q 631 215 629 247 q 641 152 633 183 q 662 99 648 121 q 700 77 676 77 q 738 101 724 77 q 759 158 751 125 q 769 226 766 192 q 771 281 771 260 q 769 334 771 302 q 759 395 766 366 q 738 445 751 424 q 701 467 724 467 q 662 444 676 467 q 641 388 648 421 q 631 322 633 355 q 629 268 629 289 z "},"&":{"ha":969,"x_min":33,"x_max":968,"o":"m 33 232 q 46 323 33 281 q 80 401 58 366 q 130 468 102 437 q 192 526 158 498 q 157 570 175 547 q 125 618 139 593 q 102 671 111 643 q 93 728 93 699 q 113 815 93 778 q 163 878 132 852 q 233 917 195 904 q 313 929 272 929 q 384 919 350 929 q 447 885 418 908 q 498 822 479 860 q 518 734 518 783 q 507 673 518 701 q 478 623 496 646 q 439 578 461 600 q 396 536 416 557 q 422 504 404 526 q 459 458 440 482 q 495 414 478 435 q 521 385 513 393 l 547 355 q 585 414 568 386 q 611 462 600 437 q 624 501 623 486 l 703 342 q 685 314 693 330 q 652 248 669 288 q 800 114 724 176 q 968 4 876 53 l 949 1 l 821 -3 q 790 -3 805 -4 q 761 -3 775 -3 q 735 -2 747 -3 q 717 0 724 -1 q 638 41 677 8 q 568 107 600 74 q 456 1 518 32 q 309 -29 393 -29 q 205 -15 256 -29 q 114 33 155 -1 q 54 115 75 65 q 33 232 33 165 m 182 256 q 194 193 182 218 q 227 151 207 167 q 274 128 248 135 q 329 121 300 121 q 410 146 374 121 q 472 208 446 171 l 282 421 q 247 388 264 406 q 215 348 229 370 q 191 303 200 326 q 182 256 182 281 m 240 747 q 263 688 240 715 q 307 637 286 660 q 331 657 318 647 q 356 681 345 668 q 376 707 368 693 q 385 737 385 721 q 365 788 385 769 q 317 807 345 807 q 265 792 290 807 q 240 747 240 777 z "},"'":{"ha":203,"x_min":46,"x_max":160,"o":"m 46 593 l 46 914 l 160 914 l 160 593 l 46 593 z "},"(":{"ha":337,"x_min":16,"x_max":314,"o":"m 16 383 q 28 528 16 454 q 64 675 40 603 q 122 813 87 747 q 201 936 157 879 l 314 936 q 213 671 248 812 q 178 390 178 530 q 212 103 178 243 q 314 -168 245 -37 l 201 -168 q 63 92 110 -50 q 16 383 16 235 z "},")":{"ha":337,"x_min":24,"x_max":322,"o":"m 24 -168 q 126 103 92 -37 q 160 390 160 243 q 126 671 160 530 q 24 936 92 812 l 136 936 q 216 813 181 879 q 274 675 250 747 q 310 529 297 603 q 322 383 322 454 q 275 92 322 235 q 136 -168 228 -50 l 24 -168 z "},"*":{"ha":412,"x_min":12,"x_max":399,"o":"m 12 732 l 52 846 q 72 830 57 839 q 104 812 86 821 q 138 798 122 804 q 163 789 154 791 l 167 794 q 165 820 167 802 q 161 856 164 838 q 154 891 158 875 q 144 916 150 908 l 265 916 q 253 886 254 903 q 250 869 252 882 q 247 840 249 856 q 245 810 245 823 q 244 791 244 796 l 252 790 q 276 799 260 793 q 309 814 292 806 q 341 831 326 822 q 359 848 355 840 l 399 736 l 363 733 q 345 730 357 733 q 317 724 332 728 q 290 718 302 721 q 269 713 277 714 l 286 693 q 301 676 292 686 q 322 654 311 665 q 345 634 334 643 q 364 623 355 625 l 267 551 q 258 575 265 559 q 241 609 250 591 q 222 642 232 627 q 208 664 212 657 l 201 663 q 188 641 197 656 q 170 608 179 625 q 154 576 161 591 q 146 553 147 561 l 50 623 q 72 634 58 625 q 100 655 86 643 q 124 679 114 667 q 134 699 134 690 l 132 713 l 127 718 q 114 722 123 720 q 93 726 104 724 q 72 729 82 728 q 57 730 62 730 q 35 732 50 730 q 12 732 20 734 z "},"+":{"ha":586,"x_min":1,"x_max":585,"o":"m 1 275 l 1 374 l 250 374 l 250 650 l 338 650 l 338 375 l 585 375 l 585 277 l 338 277 l 338 0 l 250 0 l 250 275 l 1 275 z "},",":{"ha":218,"x_min":14,"x_max":203,"o":"m 14 82 q 40 151 14 122 q 104 179 66 179 q 150 166 131 179 q 181 135 170 154 q 197 93 192 117 q 203 47 203 70 q 190 -29 203 10 q 153 -98 178 -68 q 95 -145 129 -129 q 18 -153 61 -161 q 49 -133 35 -147 q 73 -101 62 -119 q 90 -60 83 -82 q 100 -17 97 -39 q 39 14 64 -14 q 14 82 14 41 z "},"-":{"ha":532,"x_min":17,"x_max":517,"o":"m 17 250 l 87 351 q 97 365 90 355 q 109 383 103 374 q 121 400 115 392 q 132 411 127 408 q 157 418 142 418 q 183 418 172 418 l 349 418 q 434 423 393 418 q 517 439 475 428 l 446 338 q 437 325 443 334 q 424 306 431 315 q 412 289 418 297 q 401 278 406 281 q 376 271 392 271 q 350 271 361 271 l 184 271 q 99 266 140 271 q 17 250 58 261 z "},".":{"ha":239,"x_min":29,"x_max":211,"o":"m 29 82 q 56 151 29 122 q 119 179 82 179 q 184 151 157 179 q 211 82 211 122 q 184 13 211 42 q 119 -17 157 -17 q 56 12 82 -17 q 29 82 29 41 z "},"/":{"ha":604,"x_min":1,"x_max":603,"o":"m 1 -175 l 440 930 l 603 930 l 168 -175 l 1 -175 z "},":":{"ha":244,"x_min":32,"x_max":214,"o":"m 32 82 q 58 151 32 122 q 122 179 85 179 q 186 151 159 179 q 214 82 214 122 q 187 13 214 42 q 122 -17 160 -17 q 58 12 85 -17 q 32 82 32 41 m 32 443 q 58 512 32 483 q 122 541 85 541 q 186 512 159 541 q 214 443 214 483 q 187 374 214 403 q 122 345 160 345 q 58 374 85 345 q 32 443 32 403 z "},";":{"ha":223,"x_min":18,"x_max":207,"o":"m 18 82 q 44 151 18 122 q 109 179 71 179 q 154 166 135 179 q 185 135 174 154 q 201 93 196 117 q 207 47 207 70 q 194 -29 207 10 q 158 -98 182 -68 q 99 -145 134 -129 q 22 -153 65 -161 q 53 -133 39 -147 q 77 -101 66 -119 q 95 -60 87 -82 q 104 -17 102 -39 q 43 14 68 -14 q 18 82 18 41 m 18 443 q 44 512 18 483 q 109 541 71 541 q 173 512 146 541 q 200 443 200 483 q 173 374 200 403 q 109 345 146 345 q 45 374 71 345 q 18 443 18 403 z "},"<":{"ha":598,"x_min":0,"x_max":553,"o":"m 0 279 l 0 371 l 553 660 l 553 562 l 87 325 l 553 90 l 553 -7 l 0 279 z "},"=":{"ha":615,"x_min":49,"x_max":567,"o":"m 49 171 l 49 281 l 567 281 l 567 171 l 49 171 m 49 370 l 49 479 l 567 479 l 567 370 l 49 370 z "},">":{"ha":601,"x_min":49,"x_max":602,"o":"m 49 -7 l 49 90 l 514 323 l 49 561 l 49 660 l 602 371 l 602 279 l 49 -7 z "},"?":{"ha":511,"x_min":25,"x_max":503,"o":"m 25 701 l 45 892 q 110 917 73 905 q 192 932 147 929 l 216 932 q 338 912 284 932 q 428 856 392 892 q 483 771 464 821 q 503 663 503 721 l 503 657 q 483 555 503 600 q 437 474 464 510 q 384 413 411 439 q 343 371 357 387 q 308 322 322 345 q 293 277 293 300 q 302 239 293 258 l 83 239 q 91 289 85 262 q 117 350 97 315 q 135 376 123 362 q 158 403 146 390 q 182 428 171 416 q 201 447 193 439 q 235 481 215 460 q 272 526 254 501 q 301 581 289 551 q 314 642 314 610 q 279 737 314 701 q 191 772 244 772 l 186 772 q 78 742 127 772 q 52 724 64 734 q 25 701 40 714 m 102 82 q 128 151 102 122 q 192 179 154 179 q 256 151 229 179 q 282 82 282 122 q 256 13 282 42 q 192 -17 229 -17 q 128 12 155 -17 q 102 82 102 41 z "},"@":{"ha":947,"x_min":28,"x_max":917,"o":"m 28 450 q 65 631 28 546 q 165 780 102 717 q 313 880 228 843 q 494 917 397 917 q 658 888 582 917 q 792 806 734 859 q 883 682 850 754 q 917 525 917 610 q 890 388 917 451 q 822 277 864 325 q 727 202 779 229 q 624 175 675 175 q 563 188 595 175 q 517 237 532 201 q 451 190 489 205 q 378 175 414 175 q 252 227 294 175 q 210 357 210 279 q 232 483 210 418 q 294 601 254 547 q 388 688 334 654 q 510 722 443 722 q 579 706 546 722 q 628 654 612 690 l 643 697 l 747 697 l 619 342 q 610 311 614 325 q 606 287 606 297 q 615 271 607 277 q 640 265 623 265 q 707 289 673 265 q 766 350 741 313 q 807 435 791 387 q 823 529 823 482 q 797 655 823 600 q 724 747 770 710 q 619 804 679 785 q 494 823 559 823 q 347 795 415 823 q 228 716 278 766 q 149 597 178 665 q 119 450 119 529 q 149 302 119 371 q 228 183 178 233 q 347 104 278 134 q 494 75 415 75 q 664 113 581 75 q 802 229 747 151 l 905 229 q 826 124 872 170 q 727 47 781 78 q 614 -1 673 16 q 494 -17 554 -17 q 313 20 397 -17 q 165 120 228 57 q 65 269 102 183 q 28 450 28 354 m 325 363 q 341 295 325 321 q 396 269 357 269 q 460 300 429 269 q 517 376 492 330 q 557 472 542 421 q 572 562 572 522 q 557 611 572 587 q 511 635 542 635 q 437 608 471 635 q 378 539 403 581 q 339 451 353 498 q 325 363 325 403 z "},"A":{"ha":761,"x_min":16,"x_max":750,"o":"m 16 0 q 36 40 26 18 q 52 81 45 61 q 66 126 60 103 l 240 817 q 243 835 241 825 q 245 854 244 843 q 245 876 245 865 q 244 905 245 892 q 237 929 243 918 l 517 929 q 510 904 511 918 q 509 873 509 889 q 509 857 509 864 q 510 843 509 850 q 511 831 510 836 q 535 739 521 791 q 564 631 549 688 q 594 514 579 574 q 625 399 610 454 q 697 126 660 267 q 714 78 705 101 q 731 37 721 58 q 750 0 741 16 l 522 0 q 526 31 526 14 q 525 51 526 41 q 522 66 524 60 q 519 82 521 75 q 514 104 518 87 q 505 147 511 120 q 488 222 498 174 l 258 222 q 254 199 258 220 q 243 153 249 179 q 233 103 237 127 q 227 65 228 78 q 225 58 225 62 q 224 50 224 56 q 224 39 224 45 q 225 19 224 29 q 231 0 227 9 l 16 0 m 294 376 l 454 376 l 372 708 l 294 376 z "},"B":{"ha":655,"x_min":40,"x_max":628,"o":"m 40 929 l 349 929 q 441 915 399 929 q 515 873 484 901 q 564 805 546 846 q 582 711 582 764 q 549 583 582 637 q 450 498 517 528 q 582 421 535 480 q 628 285 628 361 q 604 159 628 213 q 537 70 579 106 q 436 17 494 35 q 311 0 378 0 l 41 0 q 53 37 48 17 q 60 75 57 57 q 62 115 62 96 l 62 815 q 60 850 62 832 q 53 886 57 865 q 40 929 49 907 m 245 149 l 317 150 q 360 158 339 150 q 399 183 382 167 q 427 227 416 200 q 437 292 437 254 q 430 331 437 310 q 406 369 422 351 q 367 399 390 387 q 315 411 345 411 l 245 411 l 245 149 m 248 561 l 300 561 q 374 596 349 561 q 400 689 400 632 q 394 729 400 709 q 375 765 387 749 q 342 791 363 781 q 304 799 326 799 q 301 799 303 799 q 294 799 298 799 l 248 798 l 248 561 z "},"C":{"ha":683,"x_min":25,"x_max":643,"o":"m 25 450 q 56 646 25 556 q 140 803 86 736 q 266 907 193 869 q 425 945 339 945 q 496 937 460 943 q 565 920 528 932 q 639 886 603 908 l 639 661 q 574 719 612 699 q 500 749 536 739 q 412 761 457 760 q 321 731 359 761 q 259 656 283 701 q 223 560 235 611 q 212 465 212 509 q 223 371 212 422 q 257 274 233 319 q 317 199 281 229 q 407 170 354 170 q 497 186 453 171 q 575 225 534 198 q 643 301 615 252 l 643 71 q 565 22 608 39 q 484 -3 522 5 q 392 -14 437 -12 q 229 28 298 -14 q 115 135 160 69 q 47 284 69 201 q 25 450 25 367 z "},"D":{"ha":711,"x_min":40,"x_max":682,"o":"m 40 928 l 355 928 q 514 884 451 928 q 615 773 578 840 q 667 625 652 705 q 682 471 682 545 q 665 314 682 397 q 609 162 647 232 q 508 46 571 92 q 357 0 446 0 l 41 0 q 53 37 48 17 q 60 75 57 57 q 62 115 62 96 l 62 814 q 60 848 62 831 q 53 885 57 864 q 40 928 49 905 m 248 171 l 332 171 q 382 184 358 171 q 424 219 406 197 q 457 269 443 240 q 479 330 472 298 q 496 475 496 401 q 492 550 496 512 q 482 625 489 589 q 454 703 474 673 q 410 751 433 733 q 362 776 386 770 q 325 782 339 782 l 248 782 l 248 171 z "},"E":{"ha":570,"x_min":39,"x_max":532,"o":"m 39 0 q 51 33 47 14 q 58 71 56 53 q 61 114 61 92 l 61 812 q 58 859 61 836 q 52 897 56 878 q 40 928 47 916 l 501 928 l 532 730 q 493 752 512 744 q 460 764 475 761 q 427 768 441 768 l 248 768 l 248 559 l 372 559 q 408 564 391 559 q 442 573 424 566 q 476 590 460 579 l 476 374 q 441 390 459 385 q 408 399 424 396 q 372 403 390 403 l 248 403 l 248 165 l 431 165 q 465 168 449 164 q 497 176 481 171 q 529 193 514 182 l 501 0 l 39 0 z "},"F":{"ha":540,"x_min":39,"x_max":532,"o":"m 39 0 q 51 35 47 16 q 58 72 56 54 q 61 115 61 93 l 61 814 q 58 859 61 836 q 52 898 56 878 q 40 929 47 917 l 501 929 l 532 732 q 493 754 512 745 q 460 765 475 762 q 427 770 441 769 l 248 770 l 248 534 l 372 534 q 408 539 391 534 q 442 548 424 542 q 476 566 460 554 l 476 349 q 441 365 459 359 q 408 374 424 371 q 372 378 390 378 l 248 378 l 248 115 q 250 72 248 93 q 257 35 253 54 q 269 0 261 16 l 39 0 z "},"G":{"ha":719,"x_min":26,"x_max":686,"o":"m 26 447 q 57 643 26 553 q 141 799 87 733 q 268 903 195 865 q 427 940 340 940 q 497 933 461 939 q 567 916 529 928 q 640 882 604 904 l 640 659 q 582 719 618 697 q 510 750 546 741 q 424 762 469 761 q 329 732 368 762 q 263 657 289 703 q 225 561 237 612 q 214 463 214 509 q 233 323 214 389 q 292 218 253 258 q 379 168 333 174 q 416 165 397 165 q 481 171 447 165 l 481 355 q 478 399 481 378 q 470 436 475 417 q 457 469 465 454 l 686 469 q 672 435 677 454 q 665 399 668 416 q 663 355 663 378 l 663 58 q 574 16 621 31 q 486 -5 526 1 q 393 -14 439 -14 q 230 26 299 -14 q 116 133 161 66 q 48 281 71 199 q 26 447 26 364 z "},"H":{"ha":757,"x_min":41,"x_max":717,"o":"m 41 0 q 51 36 48 17 q 56 74 53 56 q 58 114 57 94 l 58 814 q 56 854 57 833 q 51 893 53 873 q 41 929 49 913 l 265 929 q 254 892 257 912 q 248 854 250 872 q 244 814 245 833 l 244 570 l 510 570 l 510 814 q 507 854 509 833 q 502 893 505 873 q 493 929 500 913 l 715 929 q 705 893 709 912 q 699 856 701 873 q 696 814 696 835 l 696 114 q 699 74 696 93 q 705 37 701 57 q 717 0 708 17 l 493 0 q 502 36 500 17 q 507 74 504 56 q 510 114 509 94 l 510 386 l 244 386 l 244 114 q 248 74 244 93 q 254 37 250 57 q 267 0 258 17 l 41 0 z "},"I":{"ha":300,"x_min":31,"x_max":267,"o":"m 31 0 q 46 40 40 18 q 54 82 52 62 q 57 127 57 106 l 57 798 q 54 843 57 820 q 46 885 52 863 q 31 928 40 908 l 267 928 q 253 887 257 909 q 245 844 249 864 q 243 798 243 821 l 243 127 q 245 81 243 104 q 253 39 248 61 q 267 0 257 17 l 31 0 z "},"J":{"ha":454,"x_min":8,"x_max":425,"o":"m 8 25 l 8 210 q 60 178 32 190 q 121 167 89 167 q 193 199 168 167 q 218 306 218 232 l 218 815 q 215 852 218 833 q 208 889 212 869 q 195 929 203 909 l 425 929 q 413 887 417 907 q 407 851 410 867 q 404 815 404 833 l 404 306 q 386 169 404 232 q 330 65 368 106 q 244 6 290 24 q 135 -12 199 -12 q 93 -8 114 -12 q 52 2 73 -5 q 8 25 31 9 z "},"K":{"ha":729,"x_min":40,"x_max":710,"o":"m 40 0 q 53 36 48 16 q 60 74 57 56 q 62 115 62 95 l 62 812 q 60 852 62 832 q 53 891 57 871 q 41 928 49 911 l 269 928 q 257 886 261 907 q 250 848 253 865 q 248 812 248 829 l 248 555 q 260 577 252 561 q 282 614 269 593 q 308 662 294 636 q 336 713 322 688 q 408 846 370 772 q 421 869 415 855 q 432 895 427 880 q 443 928 437 909 l 686 928 q 650 893 669 914 q 615 852 631 872 q 578 806 595 829 l 396 505 l 623 118 q 648 78 633 98 q 675 40 659 60 q 710 0 692 20 l 478 0 l 248 410 l 248 115 q 250 72 248 93 q 257 35 253 54 q 271 0 261 16 l 40 0 z "},"L":{"ha":534,"x_min":39,"x_max":529,"o":"m 39 0 q 52 34 47 14 q 60 72 57 54 q 62 115 62 93 l 62 812 q 60 859 62 836 q 53 897 57 878 q 40 928 49 916 l 277 928 q 265 896 270 914 q 257 863 260 878 q 253 823 253 843 l 253 167 l 431 167 q 465 170 449 167 q 497 177 481 172 q 529 193 514 182 l 501 0 l 39 0 z "},"M":{"ha":871,"x_min":41,"x_max":829,"o":"m 41 929 l 218 929 l 440 521 l 653 929 l 829 929 q 818 892 821 912 q 811 854 814 872 q 808 814 808 833 l 808 114 q 811 75 808 94 q 817 39 814 58 q 829 0 821 20 l 608 0 q 620 35 615 16 q 627 72 624 54 q 629 114 629 93 l 629 549 l 435 191 l 236 545 l 236 114 q 239 75 236 94 q 246 38 241 58 q 258 0 250 18 l 43 0 q 55 36 51 17 q 62 74 60 56 q 65 114 65 94 l 65 814 q 62 859 65 836 q 55 896 60 877 q 41 929 50 916 z "},"N":{"ha":696,"x_min":41,"x_max":654,"o":"m 41 928 l 229 928 l 473 395 l 473 811 q 471 854 473 832 q 463 893 468 873 q 450 928 458 913 l 654 928 q 643 890 646 909 q 636 852 639 871 q 633 811 633 831 l 633 113 q 636 75 633 94 q 642 38 639 58 q 654 0 646 18 l 484 0 l 225 553 l 227 113 q 229 74 227 93 q 236 37 232 57 q 249 0 240 17 l 43 0 q 55 36 51 16 q 62 72 60 56 q 65 113 65 92 l 65 811 q 62 854 65 832 q 55 893 60 873 q 41 928 50 913 z "},"O":{"ha":830,"x_min":29,"x_max":802,"o":"m 29 469 q 59 655 29 569 q 142 805 89 742 q 268 904 196 868 q 425 940 340 940 q 591 898 521 940 q 708 788 661 856 q 779 636 755 721 q 802 467 802 551 q 777 294 802 380 q 704 139 753 208 q 583 27 656 71 q 412 -16 510 -16 q 245 28 317 -16 q 126 142 174 72 q 54 298 78 212 q 29 469 29 385 m 221 471 q 231 374 221 428 q 266 272 241 319 q 329 191 290 224 q 421 158 367 158 q 504 183 469 158 q 563 249 539 208 q 598 341 586 290 q 611 447 611 393 q 601 545 611 490 q 567 649 590 600 q 506 732 545 699 q 414 766 468 766 q 321 736 358 766 q 262 662 285 707 q 231 567 240 618 q 221 471 221 515 z "},"P":{"ha":630,"x_min":41,"x_max":624,"o":"m 41 926 l 358 926 q 456 908 408 926 q 542 853 504 890 q 602 758 579 815 q 624 621 624 700 q 598 486 624 543 q 531 392 572 429 q 438 337 490 355 q 332 319 386 319 l 249 319 l 249 113 q 252 72 249 93 q 257 34 254 54 q 267 -1 260 14 l 43 -1 q 54 35 50 16 q 61 72 58 54 q 64 113 64 92 l 64 812 q 61 847 64 829 q 54 883 58 863 q 41 926 50 904 m 249 467 l 314 467 q 358 475 336 467 q 398 502 380 484 q 426 549 415 519 q 437 619 437 578 q 432 674 437 646 q 413 726 427 703 q 377 765 399 750 q 323 781 355 781 l 249 781 l 249 467 z "},"Q":{"ha":831,"x_min":29,"x_max":802,"o":"m 29 469 q 59 655 29 569 q 142 805 89 742 q 268 904 196 868 q 425 940 340 940 q 591 899 521 940 q 708 789 661 857 q 779 636 755 721 q 802 467 802 551 q 789 337 802 404 q 749 208 777 269 q 677 97 721 147 q 572 18 633 47 q 606 -27 591 -7 q 635 -65 621 -47 q 667 -97 650 -82 q 707 -122 684 -111 q 586 -150 639 -150 q 528 -141 553 -150 q 485 -120 503 -132 q 457 -97 468 -109 q 443 -81 447 -86 q 414 -42 423 -57 q 393 -7 406 -26 q 232 41 300 -3 q 118 152 163 85 q 52 301 74 218 q 29 469 29 385 m 221 472 q 231 374 221 429 q 266 272 241 319 q 329 191 290 224 q 421 158 367 158 q 504 183 469 158 q 563 249 539 208 q 598 342 586 290 q 611 449 611 395 q 601 546 611 490 q 567 650 590 602 q 506 732 545 699 q 414 766 468 766 q 321 737 358 766 q 262 664 285 708 q 231 568 240 619 q 221 472 221 517 z "},"R":{"ha":708,"x_min":41,"x_max":684,"o":"m 41 926 l 367 926 q 467 907 418 926 q 552 852 515 888 q 611 768 589 817 q 633 660 633 720 q 590 490 633 555 q 482 390 546 424 l 627 83 q 642 53 633 68 q 660 26 648 41 q 684 -1 671 11 l 456 -1 l 313 351 l 249 351 l 249 113 q 252 72 249 93 q 257 34 254 54 q 267 -1 260 14 l 43 -1 q 54 35 50 16 q 61 72 58 54 q 64 113 64 92 l 64 812 q 61 847 64 829 q 54 883 58 863 q 41 926 50 904 m 249 500 l 321 500 q 366 510 343 500 q 406 539 389 519 q 435 588 424 558 q 446 659 446 618 q 439 698 446 677 q 418 738 432 720 q 382 769 404 757 q 332 781 361 781 l 249 781 l 249 500 z "},"S":{"ha":583,"x_min":36,"x_max":551,"o":"m 36 71 l 36 286 q 105 211 69 237 q 174 172 142 184 q 245 155 210 157 q 368 256 368 155 q 353 301 368 281 q 313 341 338 322 q 256 377 288 359 q 195 414 225 395 q 71 537 103 471 q 39 684 39 603 q 58 783 39 736 q 115 865 78 829 q 207 921 153 900 q 332 942 261 942 q 400 935 365 941 q 461 920 429 929 q 521 892 493 911 l 521 668 q 465 724 497 704 q 403 753 432 743 q 332 765 368 764 q 260 743 289 765 q 229 675 231 721 q 235 642 229 656 q 253 611 240 627 q 290 579 267 596 q 349 542 314 562 q 419 498 383 521 q 485 445 456 476 q 533 371 514 414 q 551 267 551 328 q 529 149 551 201 q 469 60 507 97 q 378 4 431 24 q 268 -16 326 -16 q 180 -5 220 -16 q 111 19 140 5 q 61 48 81 33 q 36 71 41 62 z "},"T":{"ha":648,"x_min":16,"x_max":632,"o":"m 16 733 l 45 926 l 604 926 l 632 733 q 602 751 621 744 q 562 761 582 758 q 517 765 540 765 l 416 765 l 418 126 q 421 79 418 102 q 429 38 424 60 q 443 -1 433 16 l 204 -1 q 220 39 215 17 q 228 81 225 61 q 232 126 231 104 l 232 765 l 131 765 q 85 761 107 765 q 46 751 65 758 q 16 733 26 745 z "},"U":{"ha":715,"x_min":35,"x_max":677,"o":"m 35 928 l 260 928 q 250 885 253 905 q 244 850 248 865 q 241 814 241 831 l 241 307 q 265 205 241 246 q 357 164 289 164 q 475 304 475 164 l 475 814 q 472 851 475 832 q 465 888 469 868 q 453 928 461 908 l 677 928 q 668 885 671 905 q 663 850 665 865 q 660 814 660 831 l 660 304 q 582 75 660 159 q 357 -9 504 -9 q 130 73 204 -9 q 56 302 56 155 l 56 814 q 53 850 56 832 q 46 885 50 865 q 35 928 41 905 z "},"V":{"ha":753,"x_min":16,"x_max":737,"o":"m 16 928 l 254 928 q 250 897 250 911 q 251 877 250 886 q 253 861 252 868 q 257 846 254 853 l 395 254 l 524 863 q 525 871 524 865 q 526 879 525 873 q 526 889 526 884 q 518 928 526 909 l 737 928 q 717 888 726 909 q 701 847 708 867 q 686 803 693 825 l 513 111 q 509 93 510 103 q 506 74 507 85 q 505 52 505 62 q 508 23 505 36 q 515 -1 510 9 l 249 -1 q 255 24 253 9 q 257 54 257 39 q 256 70 257 62 q 256 85 256 78 q 254 97 254 92 q 229 187 243 136 q 200 296 215 239 q 170 413 186 354 q 140 529 154 472 q 68 802 106 661 q 53 852 61 828 q 36 895 46 873 q 16 928 26 917 z "},"W":{"ha":1161,"x_min":26,"x_max":1135,"o":"m 26 926 l 272 926 q 264 898 265 913 q 262 869 262 884 q 262 853 262 861 q 264 842 262 846 l 364 361 l 476 840 q 478 848 476 843 q 479 858 478 852 q 479 869 479 863 q 476 896 479 882 q 465 926 473 911 l 737 926 q 728 896 730 911 q 725 868 725 880 q 726 848 725 852 q 728 842 726 844 l 838 359 l 936 836 q 937 847 936 842 q 938 859 937 852 q 939 873 939 865 q 937 900 939 886 q 929 926 936 914 l 1135 926 q 1114 896 1122 911 q 1100 867 1105 880 q 1090 836 1095 851 l 907 -1 l 730 -1 l 578 640 l 436 -1 l 258 -1 l 66 836 q 54 880 61 857 q 26 926 46 903 z "},"X":{"ha":790,"x_min":35,"x_max":757,"o":"m 35 928 l 281 928 q 278 905 278 914 q 283 871 278 887 q 294 843 288 854 l 404 627 l 507 836 q 517 863 511 848 q 524 887 521 873 q 528 916 528 901 q 526 928 528 924 l 745 928 q 715 891 728 908 q 694 863 703 875 q 679 836 685 847 l 500 478 l 682 115 q 708 69 694 92 q 732 30 719 50 q 757 -1 746 9 l 519 -1 l 519 0 q 515 40 519 21 q 504 75 510 60 q 489 110 497 94 l 385 339 l 296 113 q 281 74 288 93 q 268 37 274 57 q 261 -1 262 17 l 46 -1 q 70 36 58 16 q 92 72 82 56 q 113 113 102 92 l 288 476 l 96 836 q 64 889 80 864 q 35 928 47 914 z "},"Y":{"ha":757,"x_min":11,"x_max":745,"o":"m 11 928 l 264 928 q 260 901 260 916 q 261 880 260 890 q 265 863 262 869 q 271 846 268 853 l 392 555 l 514 846 l 518 859 q 522 873 521 865 q 524 892 524 880 q 522 909 524 900 q 517 928 521 918 l 745 928 q 724 900 734 916 q 707 872 714 885 q 690 842 699 857 l 481 366 l 481 126 q 484 79 481 102 q 491 38 486 60 q 505 -1 496 16 l 267 -1 q 282 39 276 17 q 290 81 288 61 q 293 126 293 104 l 293 366 l 71 842 q 50 880 61 863 q 30 910 41 896 q 11 928 20 924 z "},"Z":{"ha":635,"x_min":40,"x_max":597,"o":"m 40 147 l 390 772 l 160 772 q 126 768 143 772 q 92 757 111 766 q 56 734 74 749 l 82 925 l 553 925 l 597 786 l 248 158 l 482 158 q 517 161 500 157 q 549 170 532 164 q 581 186 566 175 l 554 -1 l 65 -1 l 40 147 z "},"[":{"ha":321,"x_min":24,"x_max":298,"o":"m 24 -168 q 50 -133 41 -151 q 62 -92 58 -114 q 66 -48 66 -71 q 66 -3 66 -26 l 66 774 q 62 862 66 819 q 24 936 57 905 l 298 936 l 298 844 l 208 844 l 208 -77 l 298 -77 l 298 -168 l 24 -168 z "},"\\":{"ha":468,"x_min":1,"x_max":467,"o":"m 1 930 l 115 930 l 467 0 l 351 0 l 1 930 z "},"]":{"ha":322,"x_min":22,"x_max":297,"o":"m 22 -77 l 113 -77 l 113 844 l 22 844 l 22 936 l 297 936 q 259 862 264 905 q 254 774 254 818 l 254 -3 q 254 -48 254 -26 q 258 -92 254 -71 q 272 -133 262 -114 q 297 -168 281 -151 l 22 -168 l 22 -77 z "},"^":{"ha":699,"x_min":14,"x_max":686,"o":"m 14 222 l 296 914 l 399 914 l 686 222 l 582 222 l 346 789 l 118 222 l 14 222 z "},"_":{"ha":1022,"x_min":49,"x_max":974,"o":"m 49 -103 l 974 -103 l 974 -180 l 49 -180 l 49 -103 z "},"`":{"ha":336,"x_min":8,"x_max":334,"o":"m 8 825 l 64 921 l 334 766 l 268 728 l 8 825 z "},"a":{"ha":765,"x_min":16,"x_max":750,"o":"m 16 0 q 36 40 26 18 q 52 81 45 61 q 66 126 60 103 l 240 817 q 243 835 241 825 q 245 854 244 843 q 245 876 245 865 q 244 905 245 892 q 237 929 243 918 l 517 929 q 510 904 511 918 q 509 873 509 889 q 509 857 509 864 q 510 843 509 850 q 511 831 510 836 q 535 739 521 791 q 564 631 549 688 q 594 514 579 574 q 625 399 610 454 q 697 126 660 267 q 714 78 705 101 q 731 37 721 58 q 750 0 741 16 l 522 0 q 526 31 526 14 q 525 51 526 41 q 522 66 524 60 q 519 82 521 75 q 514 104 518 87 q 505 147 511 120 q 488 222 498 174 l 258 222 q 254 199 258 220 q 243 153 249 179 q 233 103 237 127 q 227 65 228 78 q 225 58 225 62 q 224 50 224 56 q 224 39 224 45 q 225 19 224 29 q 231 0 227 9 l 16 0 m 294 376 l 454 376 l 372 708 l 294 376 z "},"b":{"ha":659,"x_min":43,"x_max":631,"o":"m 43 929 l 351 929 q 444 915 401 929 q 517 873 486 901 q 567 805 549 846 q 585 711 585 764 q 552 583 585 637 q 453 498 519 528 q 584 421 538 480 q 631 285 631 361 q 606 159 631 213 q 539 70 582 106 q 439 17 497 35 q 314 0 380 0 l 45 0 q 56 37 52 17 q 62 75 60 57 q 65 115 65 96 l 65 815 q 62 850 65 832 q 56 886 60 865 q 43 929 52 907 m 249 149 l 319 150 q 363 158 342 150 q 402 183 385 167 q 430 227 419 200 q 440 292 440 254 q 433 331 440 310 q 409 369 425 351 q 370 399 393 387 q 318 411 347 411 l 249 411 l 249 149 m 250 561 l 302 561 q 377 596 351 561 q 403 689 403 632 q 396 729 403 709 q 378 765 390 749 q 345 791 366 781 q 307 799 329 799 q 304 799 306 799 q 297 799 300 799 l 250 798 l 250 561 z "},"c":{"ha":684,"x_min":26,"x_max":644,"o":"m 26 450 q 57 646 26 556 q 141 803 87 736 q 268 907 195 869 q 427 945 340 945 q 497 937 461 943 q 567 920 529 932 q 640 886 604 908 l 640 661 q 576 719 614 699 q 501 749 538 739 q 414 761 458 760 q 323 731 361 761 q 260 656 285 701 q 225 560 236 611 q 214 465 214 509 q 224 371 214 422 q 258 274 235 319 q 319 199 282 229 q 408 170 355 170 q 498 186 454 171 q 576 225 536 198 q 644 301 616 252 l 644 71 q 567 22 610 39 q 485 -3 524 5 q 393 -14 439 -12 q 230 28 299 -14 q 116 135 161 69 q 48 284 71 201 q 26 450 26 367 z "},"d":{"ha":715,"x_min":43,"x_max":685,"o":"m 43 928 l 358 928 q 517 884 454 928 q 617 773 581 840 q 670 625 654 705 q 685 471 685 545 q 667 314 685 397 q 612 162 650 232 q 511 46 574 92 q 359 0 449 0 l 45 0 q 56 37 52 17 q 62 75 60 57 q 65 115 65 96 l 65 814 q 62 848 65 831 q 56 885 60 864 q 43 928 52 905 m 250 171 l 335 171 q 385 184 361 171 q 427 219 408 197 q 460 269 446 240 q 482 330 475 298 q 498 475 498 401 q 495 550 498 512 q 485 625 492 589 q 456 703 477 673 q 412 751 436 733 q 365 776 389 770 q 328 782 342 782 l 250 782 l 250 171 z "},"e":{"ha":573,"x_min":41,"x_max":534,"o":"m 41 0 q 54 33 50 14 q 61 71 58 53 q 64 114 64 92 l 64 812 q 61 859 64 836 q 54 897 58 878 q 43 928 50 916 l 504 928 l 534 730 q 496 752 515 744 q 463 764 478 761 q 429 768 444 768 l 250 768 l 250 559 l 375 559 q 411 564 393 559 q 445 573 427 566 q 479 590 463 579 l 479 374 q 445 390 463 385 q 411 399 427 396 q 375 403 393 403 l 250 403 l 250 165 l 433 165 q 468 168 452 164 q 500 176 484 171 q 532 193 517 182 l 504 0 l 41 0 z "},"f":{"ha":543,"x_min":41,"x_max":534,"o":"m 41 0 q 54 35 50 16 q 61 72 58 54 q 64 115 64 93 l 64 814 q 61 859 64 836 q 54 898 58 878 q 43 929 50 917 l 504 929 l 534 732 q 496 754 515 745 q 463 765 478 762 q 429 770 444 769 l 250 770 l 250 534 l 375 534 q 411 539 393 534 q 445 548 427 542 q 479 566 463 554 l 479 349 q 445 365 463 359 q 411 374 427 371 q 375 378 393 378 l 250 378 l 250 115 q 253 72 250 93 q 260 35 256 54 q 272 0 264 16 l 41 0 z "},"g":{"ha":722,"x_min":28,"x_max":688,"o":"m 28 447 q 58 643 28 553 q 142 799 89 733 q 269 903 196 865 q 428 940 342 940 q 498 933 463 939 q 568 916 530 928 q 642 882 606 904 l 642 659 q 583 719 619 697 q 511 750 547 741 q 425 762 470 761 q 330 732 370 762 q 264 657 290 703 q 227 561 239 612 q 215 463 215 509 q 235 323 215 389 q 293 218 254 258 q 380 168 334 174 q 418 165 399 165 q 482 171 448 165 l 482 355 q 479 399 482 378 q 472 436 477 417 q 458 469 467 454 l 688 469 q 674 435 678 454 q 667 399 669 416 q 664 355 664 378 l 664 58 q 575 16 623 31 q 488 -5 528 1 q 395 -14 440 -14 q 232 26 300 -14 q 117 133 163 66 q 50 281 72 199 q 28 447 28 364 z "},"h":{"ha":762,"x_min":45,"x_max":720,"o":"m 45 0 q 54 36 52 17 q 58 74 56 56 q 61 114 60 94 l 61 814 q 58 854 60 833 q 54 893 56 873 q 45 929 52 913 l 268 929 q 256 892 260 912 q 250 854 253 872 q 248 814 248 833 l 248 570 l 513 570 l 513 814 q 510 854 511 833 q 505 893 507 873 q 496 929 503 913 l 718 929 q 708 893 711 912 q 701 856 704 873 q 699 814 699 835 l 699 114 q 701 74 699 93 q 708 37 704 57 q 720 0 711 17 l 496 0 q 505 36 503 17 q 510 74 507 56 q 513 114 511 94 l 513 386 l 248 386 l 248 114 q 250 74 248 93 q 257 37 253 57 q 269 0 261 17 l 45 0 z "},"i":{"ha":300,"x_min":31,"x_max":267,"o":"m 31 0 q 46 40 40 18 q 54 82 52 62 q 57 127 57 106 l 57 798 q 54 843 57 820 q 46 885 52 863 q 31 928 40 908 l 267 928 q 253 887 257 909 q 245 844 249 864 q 243 798 243 821 l 243 127 q 245 81 243 104 q 253 39 248 61 q 267 0 257 17 l 31 0 z "},"j":{"ha":458,"x_min":9,"x_max":427,"o":"m 9 25 l 9 210 q 62 178 33 190 q 122 167 90 167 q 195 199 170 167 q 220 306 220 232 l 220 815 q 216 852 220 833 q 209 889 214 869 q 196 929 204 909 l 427 929 q 415 887 418 907 q 408 851 411 867 q 406 815 406 833 l 406 306 q 388 169 406 232 q 332 65 370 106 q 246 6 292 24 q 136 -12 200 -12 q 94 -8 115 -12 q 53 2 75 -5 q 9 25 32 9 z "},"k":{"ha":732,"x_min":43,"x_max":713,"o":"m 43 0 q 55 36 51 16 q 62 74 60 56 q 65 115 65 95 l 65 812 q 62 852 65 832 q 56 891 60 871 q 45 928 52 911 l 272 928 q 260 886 264 907 q 253 848 256 865 q 250 812 250 829 l 250 555 q 263 577 254 561 q 284 614 272 593 q 311 662 297 636 q 339 713 325 688 q 411 846 372 772 q 424 869 418 855 q 435 895 429 880 q 446 928 440 909 l 689 928 q 653 893 672 914 q 618 852 633 872 q 581 806 598 829 l 399 505 l 625 118 q 652 78 636 98 q 679 40 663 60 q 713 0 694 20 l 481 0 l 250 410 l 250 115 q 253 72 250 93 q 260 35 256 54 q 273 0 264 16 l 43 0 z "},"l":{"ha":537,"x_min":41,"x_max":532,"o":"m 41 0 q 55 34 50 14 q 62 72 60 54 q 65 115 65 93 l 65 812 q 62 859 65 836 q 56 897 60 878 q 43 928 52 916 l 279 928 q 268 896 273 914 q 260 863 262 878 q 256 823 256 843 l 256 167 l 433 167 q 468 170 452 167 q 500 177 484 172 q 532 193 517 182 l 504 0 l 41 0 z "},"m":{"ha":876,"x_min":45,"x_max":832,"o":"m 45 929 l 221 929 l 443 521 l 656 929 l 832 929 q 820 892 824 912 q 814 854 817 872 q 811 814 811 833 l 811 114 q 814 75 811 94 q 820 39 817 58 q 832 0 823 20 l 611 0 q 622 35 618 16 q 629 72 627 54 q 632 114 632 93 l 632 549 l 437 191 l 239 545 l 239 114 q 241 75 239 94 q 249 38 244 58 q 261 0 253 18 l 46 0 q 58 36 54 17 q 65 74 62 56 q 68 114 68 94 l 68 814 q 65 859 68 836 q 58 896 62 877 q 45 929 53 916 z "},"n":{"ha":699,"x_min":43,"x_max":656,"o":"m 43 928 l 231 928 l 475 395 l 475 811 q 472 854 475 832 q 465 893 469 873 q 452 928 460 913 l 656 928 q 644 890 648 909 q 637 852 640 871 q 635 811 635 831 l 635 113 q 637 75 635 94 q 644 38 640 58 q 656 0 647 18 l 485 0 l 227 553 l 228 113 q 231 74 228 93 q 237 37 233 57 q 250 0 241 17 l 45 0 q 57 36 53 16 q 64 72 61 56 q 66 113 66 92 l 66 811 q 64 854 66 832 q 56 893 61 873 q 43 928 52 913 z "},"o":{"ha":811,"x_min":19,"x_max":791,"o":"m 19 469 q 49 655 19 569 q 132 805 79 742 q 258 904 186 868 q 415 940 330 940 q 581 898 511 940 q 698 788 651 856 q 768 636 745 721 q 791 467 791 551 q 767 294 791 380 q 694 139 743 208 q 573 27 646 71 q 402 -16 500 -16 q 235 28 307 -16 q 116 142 163 72 q 43 298 68 212 q 19 469 19 385 m 211 471 q 221 374 211 428 q 256 272 231 319 q 318 191 280 224 q 411 158 357 158 q 494 183 458 158 q 552 249 529 208 q 588 341 576 290 q 601 447 601 393 q 590 545 601 490 q 557 649 580 600 q 496 732 534 699 q 404 766 458 766 q 311 736 348 766 q 252 662 275 707 q 220 567 230 618 q 211 471 211 515 z "},"p":{"ha":633,"x_min":43,"x_max":625,"o":"m 43 926 l 359 926 q 457 908 410 926 q 543 853 505 890 q 603 758 581 815 q 625 621 625 700 q 600 486 625 543 q 533 392 574 429 q 439 337 492 355 q 334 319 387 319 l 250 319 l 250 113 q 253 72 250 93 q 258 34 256 54 q 268 -1 261 14 l 45 -1 q 56 35 52 16 q 62 72 60 54 q 65 113 65 92 l 65 812 q 62 847 65 829 q 56 883 60 863 q 43 926 52 904 m 250 467 l 315 467 q 360 475 338 467 q 399 502 382 484 q 428 549 416 519 q 439 619 439 578 q 433 674 439 646 q 414 726 428 703 q 378 765 400 750 q 325 781 357 781 l 250 781 l 250 467 z "},"q":{"ha":821,"x_min":21,"x_max":793,"o":"m 21 469 q 51 655 21 569 q 134 805 81 742 q 259 904 187 868 q 416 940 332 940 q 583 899 512 940 q 700 789 653 857 q 770 636 747 721 q 793 467 793 551 q 781 337 793 404 q 741 208 768 269 q 669 97 713 147 q 564 18 625 47 q 597 -27 582 -7 q 627 -65 612 -47 q 658 -97 642 -82 q 699 -122 675 -111 q 578 -150 631 -150 q 519 -141 545 -150 q 477 -120 494 -132 q 449 -97 460 -109 q 435 -81 439 -86 q 406 -42 415 -57 q 385 -7 397 -26 q 223 41 292 -3 q 110 152 154 85 q 43 301 65 218 q 21 469 21 385 m 212 472 q 223 374 212 429 q 258 272 233 319 q 320 191 282 224 q 412 158 358 158 q 495 183 460 158 q 554 249 530 208 q 590 342 578 290 q 603 449 603 395 q 592 546 603 490 q 559 650 582 602 q 498 732 536 699 q 406 766 460 766 q 313 737 350 766 q 254 664 277 708 q 222 568 232 619 q 212 472 212 517 z "},"r":{"ha":709,"x_min":43,"x_max":685,"o":"m 43 926 l 368 926 q 468 907 420 926 q 553 852 517 888 q 612 768 590 817 q 635 660 635 720 q 591 490 635 555 q 484 390 547 424 l 628 83 q 643 53 635 68 q 661 26 650 41 q 685 -1 672 11 l 457 -1 l 314 351 l 250 351 l 250 113 q 253 72 250 93 q 258 34 256 54 q 268 -1 261 14 l 45 -1 q 56 35 52 16 q 62 72 60 54 q 65 113 65 92 l 65 812 q 62 847 65 829 q 56 883 60 863 q 43 926 52 904 m 250 500 l 322 500 q 367 510 345 500 q 408 539 390 519 q 436 588 425 558 q 447 659 447 618 q 440 698 447 677 q 419 738 433 720 q 384 769 406 757 q 334 781 363 781 l 250 781 l 250 500 z "},"s":{"ha":583,"x_min":36,"x_max":551,"o":"m 36 71 l 36 286 q 105 211 69 237 q 174 172 142 184 q 245 155 210 157 q 368 256 368 155 q 353 301 368 281 q 313 341 338 322 q 256 377 288 359 q 195 414 225 395 q 71 537 103 471 q 39 684 39 603 q 58 783 39 736 q 115 865 78 829 q 207 921 153 900 q 332 942 261 942 q 400 935 365 941 q 461 920 429 929 q 521 892 493 911 l 521 668 q 465 724 497 704 q 403 753 432 743 q 332 765 368 764 q 260 743 289 765 q 229 675 231 721 q 235 642 229 656 q 253 611 240 627 q 290 579 267 596 q 349 542 314 562 q 419 498 383 521 q 485 445 456 476 q 533 371 514 414 q 551 267 551 328 q 529 149 551 201 q 469 60 507 97 q 378 4 431 24 q 268 -16 326 -16 q 180 -5 220 -16 q 111 19 140 5 q 61 48 81 33 q 36 71 41 62 z "},"t":{"ha":650,"x_min":17,"x_max":633,"o":"m 17 733 l 46 926 l 606 926 l 633 733 q 603 751 623 744 q 564 761 583 758 q 518 765 541 765 l 418 765 l 419 126 q 422 79 419 102 q 430 38 425 60 q 444 -1 435 16 l 205 -1 q 221 39 216 17 q 229 81 227 61 q 233 126 232 104 l 233 765 l 132 765 q 86 761 109 765 q 47 751 66 758 q 17 733 28 745 z "},"u":{"ha":715,"x_min":35,"x_max":677,"o":"m 35 928 l 260 928 q 250 885 253 905 q 244 850 248 865 q 241 814 241 831 l 241 307 q 265 205 241 246 q 357 164 289 164 q 475 304 475 164 l 475 814 q 472 851 475 832 q 465 888 469 868 q 453 928 461 908 l 677 928 q 668 885 671 905 q 663 850 665 865 q 660 814 660 831 l 660 304 q 582 75 660 159 q 357 -9 504 -9 q 130 73 204 -9 q 56 302 56 155 l 56 814 q 53 850 56 832 q 46 885 50 865 q 35 928 41 905 z "},"v":{"ha":753,"x_min":16,"x_max":737,"o":"m 16 928 l 254 928 q 250 897 250 911 q 251 877 250 886 q 253 861 252 868 q 257 846 254 853 l 395 254 l 524 863 q 525 871 524 865 q 526 879 525 873 q 526 889 526 884 q 518 928 526 909 l 737 928 q 717 888 726 909 q 701 847 708 867 q 686 803 693 825 l 513 111 q 509 93 510 103 q 506 74 507 85 q 505 52 505 62 q 508 23 505 36 q 515 -1 510 9 l 249 -1 q 255 24 253 9 q 257 54 257 39 q 256 70 257 62 q 256 85 256 78 q 254 97 254 92 q 229 187 243 136 q 200 296 215 239 q 170 413 186 354 q 140 529 154 472 q 68 802 106 661 q 53 852 61 828 q 36 895 46 873 q 16 928 26 917 z "},"w":{"ha":1161,"x_min":26,"x_max":1135,"o":"m 26 926 l 272 926 q 264 898 265 913 q 262 869 262 884 q 262 853 262 861 q 264 842 262 846 l 364 361 l 476 840 q 478 848 476 843 q 479 858 478 852 q 479 869 479 863 q 476 896 479 882 q 465 926 473 911 l 737 926 q 728 896 730 911 q 725 868 725 880 q 726 848 725 852 q 728 842 726 844 l 838 359 l 936 836 q 937 847 936 842 q 938 859 937 852 q 939 873 939 865 q 937 900 939 886 q 929 926 936 914 l 1135 926 q 1114 896 1122 911 q 1100 867 1105 880 q 1090 836 1095 851 l 907 -1 l 730 -1 l 578 640 l 436 -1 l 258 -1 l 66 836 q 54 880 61 857 q 26 926 46 903 z "},"x":{"ha":790,"x_min":35,"x_max":757,"o":"m 35 928 l 281 928 q 278 905 278 914 q 283 871 278 887 q 294 843 288 854 l 404 627 l 507 836 q 517 863 511 848 q 524 887 521 873 q 528 916 528 901 q 526 928 528 924 l 745 928 q 715 891 728 908 q 694 863 703 875 q 679 836 685 847 l 500 478 l 682 115 q 708 69 694 92 q 732 30 719 50 q 757 -1 746 9 l 519 -1 l 519 0 q 515 40 519 21 q 504 75 510 60 q 489 110 497 94 l 385 339 l 296 113 q 281 74 288 93 q 268 37 274 57 q 261 -1 262 17 l 46 -1 q 70 36 58 16 q 92 72 82 56 q 113 113 102 92 l 288 476 l 96 836 q 64 889 80 864 q 35 928 47 914 z "},"y":{"ha":757,"x_min":11,"x_max":745,"o":"m 11 928 l 264 928 q 260 901 260 916 q 261 880 260 890 q 265 863 262 869 q 271 846 268 853 l 392 555 l 514 846 l 518 859 q 522 873 521 865 q 524 892 524 880 q 522 909 524 900 q 517 928 521 918 l 745 928 q 724 900 734 916 q 707 872 714 885 q 690 842 699 857 l 481 366 l 481 126 q 484 79 481 102 q 491 38 486 60 q 505 -1 496 16 l 267 -1 q 282 39 276 17 q 290 81 288 61 q 293 126 293 104 l 293 366 l 71 842 q 50 880 61 863 q 30 910 41 896 q 11 928 20 924 z "},"z":{"ha":635,"x_min":40,"x_max":597,"o":"m 40 147 l 390 772 l 160 772 q 126 768 143 772 q 92 757 111 766 q 56 734 74 749 l 82 925 l 553 925 l 597 786 l 248 158 l 482 158 q 517 161 500 157 q 549 170 532 164 q 581 186 566 175 l 554 -1 l 65 -1 l 40 147 z "},"{":{"ha":305,"x_min":3,"x_max":297,"o":"m 3 387 q 78 436 61 403 q 94 532 94 469 l 94 742 q 99 823 94 782 q 129 893 103 864 q 165 921 144 911 q 208 934 186 930 q 254 937 231 937 q 297 936 277 937 q 228 884 247 919 q 208 790 208 848 l 208 566 q 205 502 208 531 q 191 449 201 472 q 161 411 180 427 q 109 387 142 396 q 190 330 172 370 q 208 221 208 289 l 208 -20 q 226 -115 208 -81 q 297 -168 244 -149 q 217 -166 254 -168 q 142 -135 179 -164 q 101 -74 109 -110 q 94 4 94 -37 l 94 243 q 92 296 94 273 q 69 345 89 319 q 3 387 43 379 z "},"|":{"ha":201,"x_min":49,"x_max":155,"o":"m 49 0 l 49 930 l 155 930 l 155 0 l 49 0 z "},"}":{"ha":305,"x_min":8,"x_max":302,"o":"m 8 -168 q 79 -115 61 -149 q 97 -20 97 -81 l 97 221 q 115 330 97 289 q 197 387 134 371 q 144 411 164 395 q 115 449 125 427 q 101 501 104 472 q 97 566 97 530 l 97 790 q 78 884 97 848 q 8 936 58 920 q 52 937 29 937 q 97 934 75 937 q 140 921 119 930 q 176 893 161 911 q 207 823 203 864 q 211 742 211 782 l 211 532 q 228 436 211 469 q 302 387 244 403 q 236 345 262 379 q 214 296 216 319 q 211 243 211 273 l 211 4 q 204 -74 211 -37 q 164 -135 197 -110 q 89 -166 127 -164 q 8 -168 52 -168 z "},"~":{"ha":711,"x_min":29,"x_max":688,"o":"m 29 264 q 65 323 46 294 q 109 374 85 351 q 160 411 132 397 q 224 425 187 425 q 299 412 261 425 q 374 382 338 399 q 442 352 410 366 q 500 339 475 339 q 533 349 518 339 q 561 373 549 358 q 583 404 574 387 q 603 436 593 421 l 688 378 q 651 322 669 350 q 610 273 632 294 q 561 238 587 252 q 500 225 534 225 q 439 235 467 225 q 379 257 411 244 l 328 279 q 278 300 305 289 q 228 311 252 311 q 188 301 204 311 q 158 276 171 292 q 133 241 144 260 q 113 204 122 222 l 29 264 z "}," ":{"ha":726,"x_min":43,"x_max":713,"o":"m 43 0 q 55 36 51 16 q 62 74 60 56 q 65 115 65 95 l 65 812 q 62 852 65 832 q 56 891 60 871 q 45 928 52 911 l 272 928 q 260 886 264 907 q 253 848 256 865 q 250 812 250 829 l 250 555 q 263 577 254 561 q 284 614 272 593 q 311 662 297 636 q 339 713 325 688 q 411 846 372 772 q 424 869 418 855 q 435 895 429 880 q 446 928 440 909 l 689 928 q 653 893 672 914 q 618 852 633 872 q 581 806 598 829 l 399 505 l 625 118 q 652 78 636 98 q 679 40 663 60 q 713 0 694 20 l 481 0 l 250 410 l 250 115 q 253 72 250 93 q 260 35 256 54 q 273 0 264 16 l 43 0 z "},"¡":{"ha":280,"x_min":25,"x_max":256,"o":"m 25 -111 q 36 -70 32 -90 q 43 -33 40 -50 q 46 3 45 -15 l 79 572 l 200 572 l 233 3 q 236 -35 233 -16 q 243 -72 239 -52 q 256 -111 248 -92 l 25 -111 m 52 733 q 78 803 52 773 q 142 832 104 832 q 205 803 179 832 q 232 733 232 774 q 205 665 232 693 q 142 636 179 636 q 78 665 104 636 q 52 733 52 693 z "},"¢":{"ha":529,"x_min":9,"x_max":510,"o":"m 9 469 q 31 594 9 534 q 90 698 53 653 q 179 771 127 743 q 290 803 231 799 l 290 913 l 385 913 l 385 803 q 445 796 415 802 q 503 782 475 790 l 503 640 q 435 669 471 660 q 363 677 399 677 q 290 661 318 677 q 247 616 262 644 q 224 550 231 587 q 218 471 218 513 q 224 392 218 429 q 244 326 229 354 q 287 280 260 297 q 358 264 314 264 q 436 274 393 264 q 510 304 479 285 l 503 170 q 445 150 475 159 q 385 139 415 142 l 385 1 l 290 1 l 290 139 q 178 168 229 140 q 89 240 126 195 q 31 344 52 285 q 9 469 9 403 z "},"£":{"ha":598,"x_min":25,"x_max":562,"o":"m 25 111 q 65 217 25 180 q 157 254 106 254 q 203 248 182 254 q 248 231 225 241 q 248 281 252 254 q 233 335 243 310 q 210 383 222 359 l 174 452 l 60 452 l 60 554 l 126 554 q 105 614 113 585 q 98 681 98 644 q 122 788 98 738 q 182 871 146 839 q 267 919 219 905 q 363 933 315 933 q 509 899 441 933 l 510 742 l 509 742 q 507 743 507 742 q 450 786 477 770 q 387 802 424 802 q 305 765 338 802 q 272 668 272 729 q 273 637 272 654 q 276 603 273 619 q 286 574 279 586 q 304 559 292 562 l 326 554 l 457 554 l 457 452 l 347 452 q 377 370 363 412 q 392 283 392 329 q 386 232 392 257 q 372 183 380 207 q 415 171 395 176 q 458 165 436 165 q 515 176 488 165 q 562 214 542 186 l 562 8 q 509 -12 534 -5 q 454 -18 484 -18 q 372 -1 408 -18 q 297 40 336 16 q 233 -4 269 9 q 161 -18 197 -18 q 113 -11 138 -18 q 70 13 89 -3 q 38 53 50 28 q 25 111 25 78 m 117 110 q 129 87 117 93 q 153 81 142 81 q 185 88 170 81 q 211 111 200 96 q 183 131 200 123 q 153 139 166 139 q 129 133 142 139 q 117 110 117 126 z "},"¤":{"ha":718,"x_min":39,"x_max":679,"o":"m 39 235 l 94 290 q 59 368 71 330 q 47 453 47 406 q 94 619 47 543 l 39 675 l 136 775 l 193 718 q 272 754 229 742 q 357 766 314 766 q 526 718 450 766 l 583 775 l 679 675 l 623 619 q 671 454 671 545 q 659 369 671 412 q 623 290 647 326 l 679 235 l 583 136 l 526 192 q 448 156 489 170 q 363 143 407 143 q 274 155 318 143 q 193 192 231 167 l 136 136 l 39 235 m 237 453 q 274 367 237 400 q 364 334 311 334 q 410 344 389 334 q 447 371 431 354 q 472 410 463 387 q 481 456 481 432 q 472 501 481 479 q 447 539 463 522 q 410 566 431 555 q 364 576 389 576 q 274 542 311 576 q 237 453 237 507 z "},"¥":{"ha":765,"x_min":16,"x_max":749,"o":"m 16 928 l 268 928 q 264 901 264 916 q 265 880 264 890 q 269 863 267 869 q 275 846 272 853 l 396 555 l 518 846 l 522 859 q 526 873 525 865 q 528 892 528 880 q 526 909 528 900 q 521 928 525 918 l 749 928 q 728 900 738 916 q 711 872 718 885 q 694 842 703 857 l 586 595 l 673 595 l 673 475 l 533 475 l 497 395 l 673 395 l 673 275 l 485 275 l 485 126 q 488 79 485 102 q 495 38 490 60 q 510 -1 500 16 l 271 -1 q 286 39 280 17 q 294 81 292 61 q 297 126 297 104 l 297 275 l 90 275 l 90 395 l 283 395 l 245 475 l 90 475 l 90 595 l 191 595 l 75 842 q 54 880 66 863 q 34 910 45 896 q 16 928 24 924 z "},"§":{"ha":534,"x_min":35,"x_max":504,"o":"m 35 49 q 46 40 40 43 q 127 -17 85 8 q 218 -41 170 -41 q 254 -36 235 -41 q 288 -19 272 -31 q 315 9 304 -8 q 325 52 325 26 q 303 103 325 81 q 250 148 282 126 q 181 194 218 170 q 111 249 143 218 q 58 320 79 279 q 36 416 36 361 q 55 517 36 472 q 106 600 74 562 q 78 659 86 625 q 71 725 71 692 q 91 822 71 782 q 143 888 111 863 q 214 924 175 913 q 292 936 253 936 q 463 899 380 936 l 463 696 q 390 761 428 734 q 304 787 353 787 q 279 785 294 787 q 253 776 265 782 q 231 759 240 770 q 222 729 222 747 q 232 700 222 711 q 259 675 243 686 q 290 653 275 664 q 362 606 325 629 q 432 553 399 583 q 485 478 467 521 q 504 378 504 435 q 488 283 504 323 q 444 203 472 243 q 472 142 464 175 q 481 72 481 109 q 460 -44 481 9 q 401 -135 439 -97 q 317 -189 364 -172 q 222 -205 271 -205 q 126 -192 174 -205 q 35 -155 79 -179 l 35 49 m 184 452 q 212 392 184 420 q 245 364 226 378 q 282 339 265 350 q 298 327 288 334 q 319 313 309 319 q 337 300 329 306 q 350 290 346 294 q 363 340 363 313 q 356 377 363 361 q 337 406 349 393 q 312 430 326 419 q 285 450 298 440 q 278 455 283 452 q 265 463 272 458 q 253 471 258 468 q 245 476 248 475 q 237 482 243 477 q 223 491 231 486 q 210 500 215 496 q 203 507 204 505 q 190 481 196 495 q 184 452 184 467 z "},"¨":{"ha":447,"x_min":40,"x_max":407,"o":"m 40 815 q 62 871 40 847 q 118 895 85 895 q 172 873 150 895 q 195 819 195 851 q 171 763 195 785 q 114 742 147 742 q 62 764 85 742 q 40 815 40 786 m 253 815 q 275 871 253 847 q 330 895 297 895 q 385 873 362 895 q 407 819 407 851 q 383 763 407 785 q 326 742 359 742 q 276 764 298 742 q 253 815 253 786 z "},"©":{"ha":1000,"x_min":29,"x_max":971,"o":"m 29 460 q 66 645 29 558 q 168 797 103 732 q 317 899 232 861 q 501 936 403 936 q 683 899 597 936 q 832 797 768 861 q 933 646 896 733 q 971 463 971 559 q 934 274 971 363 q 833 121 897 186 q 683 19 770 57 q 496 -18 595 -18 q 314 20 399 -18 q 166 124 229 58 q 66 276 103 189 q 29 460 29 363 m 134 461 q 163 316 134 383 q 242 199 192 249 q 359 119 292 149 q 503 90 426 90 q 644 119 578 90 q 759 197 710 147 q 838 314 808 248 q 867 457 867 380 q 838 603 867 535 q 760 722 810 671 q 643 802 710 772 q 498 831 575 831 q 357 802 423 831 q 240 722 290 772 q 162 605 191 672 q 134 461 134 538 m 298 444 q 315 552 298 503 q 361 638 332 602 q 430 696 390 675 q 518 717 471 717 q 557 713 536 717 q 595 703 574 710 q 636 685 616 696 l 636 559 q 600 592 621 581 q 559 608 579 603 q 511 615 536 614 q 461 598 482 615 q 427 557 440 582 q 408 505 414 533 q 401 453 401 476 q 407 401 401 429 q 426 348 412 372 q 459 307 439 323 q 509 290 479 290 q 558 298 534 290 q 601 320 579 305 q 637 363 623 335 l 637 236 q 594 208 618 218 q 550 195 571 199 q 500 189 525 189 q 410 212 448 189 q 347 271 372 235 q 310 353 322 307 q 298 444 298 399 z "},"«":{"ha":553,"x_min":21,"x_max":511,"o":"m 21 345 l 168 542 l 283 542 l 172 345 l 283 150 l 168 150 l 21 345 m 249 345 l 397 542 l 511 542 l 400 345 l 511 150 l 397 150 l 249 345 z "},"¬":{"ha":633,"x_min":0,"x_max":585,"o":"m 0 366 l 0 485 l 585 485 l 585 90 l 479 90 l 479 366 l 0 366 z "},"­":{"ha":532,"x_min":17,"x_max":517,"o":"m 17 250 l 87 351 q 97 365 90 355 q 109 383 103 374 q 121 400 115 392 q 132 411 127 408 q 157 418 142 418 q 183 418 172 418 l 349 418 q 434 423 393 418 q 517 439 475 428 l 446 338 q 437 325 443 334 q 424 306 431 315 q 412 289 418 297 q 401 278 406 281 q 376 271 392 271 q 350 271 361 271 l 184 271 q 99 266 140 271 q 17 250 58 261 z "},"®":{"ha":1001,"x_min":29,"x_max":972,"o":"m 29 463 q 67 648 29 562 q 169 799 104 734 q 319 899 233 863 q 504 936 406 936 q 687 899 601 936 q 836 797 772 861 q 936 645 899 732 q 972 460 972 558 q 935 273 972 360 q 833 121 897 186 q 683 19 770 57 q 498 -18 595 -18 q 315 20 400 -18 q 165 124 229 58 q 65 277 102 189 q 29 463 29 364 m 135 464 q 163 319 135 387 q 240 200 191 252 q 355 119 289 149 q 497 89 420 89 q 643 118 575 89 q 761 197 711 147 q 840 315 811 248 q 869 463 869 383 q 840 606 869 539 q 761 724 811 673 q 643 802 710 774 q 498 831 575 831 q 357 802 423 831 q 242 722 292 772 q 164 606 193 672 q 135 464 135 539 m 345 204 q 351 223 349 212 q 354 244 353 235 q 355 267 355 255 l 355 652 q 354 671 355 661 q 351 690 353 679 q 345 714 349 701 l 522 714 q 578 704 551 714 q 624 674 604 693 q 657 627 644 654 q 669 568 669 600 q 646 474 669 510 q 586 419 623 439 l 665 250 q 675 233 669 242 q 685 219 679 227 q 697 204 690 211 l 572 204 l 493 399 l 458 399 l 458 267 q 460 244 458 256 q 463 223 461 235 q 468 204 464 212 l 345 204 m 458 479 l 497 479 q 545 501 522 479 q 567 567 567 522 q 552 611 567 588 q 504 635 536 635 l 458 635 l 458 479 z "},"±":{"ha":557,"x_min":20,"x_max":539,"o":"m 20 0 l 20 110 l 539 110 l 539 0 l 20 0 m 20 357 l 20 467 l 235 467 l 235 650 l 322 650 l 322 467 l 539 467 l 539 358 l 322 358 l 322 174 l 235 174 l 235 357 l 20 357 z "},"²":{"ha":351,"x_min":24,"x_max":322,"o":"m 24 472 l 170 739 q 190 779 180 758 q 199 821 199 800 q 151 861 199 861 q 105 856 123 861 q 65 835 87 851 l 61 832 l 75 924 q 172 945 121 945 q 260 912 224 945 q 296 831 296 880 q 283 765 296 798 q 256 704 271 732 q 213 624 233 664 q 170 546 192 585 l 197 545 q 260 545 229 545 q 322 558 292 546 l 301 472 l 24 472 z "},"³":{"ha":321,"x_min":25,"x_max":288,"o":"m 25 564 l 29 561 q 72 540 50 549 q 118 532 94 532 q 174 557 154 532 q 195 618 195 583 q 181 668 195 647 q 136 689 168 689 q 109 689 123 689 q 79 686 94 689 l 79 764 q 114 764 98 764 q 144 771 131 765 q 165 788 157 777 q 174 821 174 800 q 158 859 174 848 q 117 869 142 869 q 78 865 94 869 q 41 848 61 860 l 37 846 l 58 928 q 146 945 100 945 q 231 917 199 945 q 264 835 264 889 q 255 779 264 807 q 218 739 245 751 q 273 692 258 727 q 288 618 288 657 q 273 558 288 586 q 235 510 258 530 q 183 476 212 489 q 123 464 154 464 q 84 467 105 464 q 45 475 62 469 l 25 564 z "},"´":{"ha":336,"x_min":3,"x_max":328,"o":"m 3 766 l 272 921 l 328 825 l 68 728 l 3 766 z "},"µ":{"ha":682,"x_min":29,"x_max":629,"o":"m 29 -58 q 35 -42 33 -50 q 40 -26 38 -34 q 43 -12 42 -19 q 46 1 45 -5 q 48 14 47 7 q 49 28 49 21 l 49 250 l 49 414 l 49 637 q 46 664 49 652 q 40 691 44 675 q 35 706 38 699 q 29 723 33 714 l 239 723 q 230 691 233 707 q 227 677 229 684 q 224 664 226 670 q 222 637 222 651 l 222 435 l 222 277 q 244 200 222 231 q 329 169 266 169 q 439 275 439 169 l 439 637 q 439 651 439 644 q 437 665 438 658 q 431 693 434 676 q 426 708 429 701 q 419 723 422 715 l 629 723 q 623 706 625 714 q 620 691 621 699 q 617 677 618 684 q 614 664 616 670 q 612 637 612 650 l 612 252 q 539 78 612 141 q 329 14 467 14 q 222 26 271 14 q 223 11 222 16 q 224 1 223 5 q 230 -26 228 -12 q 233 -42 231 -34 q 239 -58 235 -50 l 29 -58 z "},"¶":{"ha":574,"x_min":14,"x_max":539,"o":"m 14 661 q 87 859 14 787 q 166 905 127 896 q 254 914 205 914 l 539 914 l 539 909 q 504 844 507 879 q 500 761 500 810 l 500 -4 q 504 -87 500 -53 q 539 -153 507 -121 l 539 -157 l 400 -157 l 400 791 l 318 791 l 318 -157 l 179 -157 l 179 -153 q 215 -87 211 -122 q 218 -4 218 -53 l 218 410 q 140 428 177 408 q 75 482 103 447 q 30 563 46 517 q 14 661 14 610 z "},"·":{"ha":241,"x_min":31,"x_max":212,"o":"m 31 290 q 57 359 31 330 q 121 387 83 387 q 185 359 158 387 q 212 290 212 330 q 185 221 212 250 q 121 192 158 192 q 57 221 83 192 q 31 290 31 250 z "},"¸":{"ha":269,"x_min":16,"x_max":250,"o":"m 16 -167 q 59 -182 34 -175 q 104 -189 85 -189 q 122 -188 111 -189 q 143 -182 134 -186 q 160 -172 153 -178 q 167 -155 167 -165 q 160 -135 167 -143 q 143 -123 153 -127 q 122 -118 134 -119 q 102 -117 111 -117 q 61 -121 79 -117 l 107 0 l 183 0 l 158 -60 q 222 -87 194 -64 q 250 -150 250 -110 q 236 -197 250 -178 q 201 -230 222 -216 q 153 -251 179 -244 q 106 -257 127 -257 q 39 -245 75 -257 l 16 -167 z "},"¹":{"ha":259,"x_min":26,"x_max":176,"o":"m 26 854 l 26 857 q 47 869 26 856 q 94 899 68 882 q 163 943 123 918 l 165 943 l 164 532 q 165 509 164 519 q 169 487 167 498 q 176 468 171 476 l 58 468 q 65 487 62 476 q 69 509 68 498 q 71 532 71 519 l 71 842 l 26 854 z "},"»":{"ha":553,"x_min":41,"x_max":532,"o":"m 41 150 l 153 345 l 41 542 l 155 542 l 304 345 l 155 150 l 41 150 m 269 150 l 380 345 l 269 542 l 385 542 l 532 345 l 385 150 l 269 150 z "},"¼":{"ha":846,"x_min":53,"x_max":825,"o":"m 53 854 l 53 857 q 74 869 53 856 q 121 899 94 882 q 189 943 150 918 l 192 943 l 191 532 q 192 509 191 519 q 195 487 193 498 q 203 468 197 476 l 85 468 q 92 487 89 476 q 96 509 94 498 q 97 532 97 519 l 97 842 l 53 854 m 81 0 l 611 928 l 742 928 l 212 0 l 81 0 m 460 90 l 639 463 l 745 463 l 745 168 l 781 168 q 803 171 796 168 q 825 176 810 174 l 800 90 l 745 90 q 746 62 746 75 q 746 35 746 50 q 751 13 747 21 q 755 0 754 5 l 648 0 q 660 44 659 24 q 663 90 661 65 l 460 90 m 578 167 l 661 167 l 661 351 l 578 167 z "},"½":{"ha":868,"x_min":53,"x_max":835,"o":"m 53 854 l 53 857 q 74 869 53 856 q 121 899 94 882 q 189 943 150 918 l 192 943 l 191 532 q 192 509 191 519 q 195 487 193 498 q 203 468 197 476 l 85 468 q 92 487 89 476 q 96 509 94 498 q 97 532 97 519 l 97 842 l 53 854 m 81 0 l 611 928 l 742 928 l 213 0 l 81 0 m 536 8 l 682 275 q 702 315 693 294 q 711 357 711 336 q 664 397 711 397 q 618 392 636 397 q 578 371 600 387 l 574 368 l 588 460 q 685 481 634 481 q 772 449 736 481 q 808 367 808 416 q 796 301 808 334 q 768 240 783 268 q 725 160 746 200 q 682 82 705 121 l 710 81 q 773 81 742 81 q 835 94 804 82 l 814 8 l 536 8 z "},"¾":{"ha":878,"x_min":35,"x_max":857,"o":"m 35 564 l 39 561 q 82 540 60 549 q 127 532 104 532 q 184 557 163 532 q 204 618 204 583 q 191 668 204 647 q 146 689 178 689 q 118 689 132 689 q 89 686 104 689 l 89 764 q 124 764 107 764 q 154 771 140 765 q 175 788 167 777 q 183 821 183 800 q 167 859 183 848 q 126 869 151 869 q 87 865 104 869 q 52 848 71 860 l 47 846 l 68 928 q 155 945 109 945 q 241 917 208 945 q 273 835 273 889 q 264 779 273 807 q 228 739 256 751 q 282 692 268 727 q 297 618 297 657 q 282 558 297 586 q 245 510 268 530 q 193 476 222 489 q 134 464 164 464 q 94 467 115 464 q 54 475 72 469 l 35 564 m 113 0 l 643 928 l 774 928 l 244 0 l 113 0 m 492 90 l 671 463 l 777 463 l 777 168 l 812 168 q 835 171 828 168 q 857 176 842 174 l 832 90 l 777 90 q 778 62 778 75 q 778 35 778 50 q 783 13 779 21 q 787 0 786 5 l 681 0 q 692 44 692 24 q 694 90 693 65 l 492 90 m 610 167 l 693 167 l 693 351 l 610 167 z "},"¿":{"ha":512,"x_min":9,"x_max":488,"o":"m 9 161 l 9 167 q 29 269 9 224 q 75 349 49 314 q 129 410 102 385 q 170 453 155 436 q 205 502 191 479 q 220 547 220 524 q 210 585 220 566 l 429 585 q 421 535 428 561 q 396 473 415 509 q 378 447 389 461 q 354 420 367 433 q 331 396 342 407 q 311 376 319 385 q 278 342 298 363 q 241 297 258 322 q 211 243 224 272 q 199 182 199 214 q 233 87 199 122 q 322 52 268 52 l 326 52 q 435 82 385 52 q 460 100 448 90 q 488 122 472 110 l 468 -68 q 403 -94 440 -81 q 321 -109 366 -106 l 296 -109 q 174 -88 228 -109 q 85 -33 121 -68 q 29 53 49 3 q 9 161 9 103 m 231 742 q 257 811 231 782 q 321 840 283 840 q 385 811 358 840 q 411 742 411 782 q 385 673 411 702 q 321 644 358 644 q 257 673 283 644 q 231 742 231 702 z "},"À":{"ha":761,"x_min":16,"x_max":750,"o":"m 16 0 q 36 40 26 18 q 52 81 45 61 q 66 126 60 103 l 240 817 q 243 835 241 825 q 245 854 244 843 q 245 876 245 865 q 244 905 245 892 q 237 929 243 918 l 517 929 q 510 904 511 918 q 509 873 509 889 q 509 857 509 864 q 510 843 509 850 q 511 831 510 836 q 535 739 521 791 q 564 631 549 688 q 594 514 579 574 q 625 399 610 454 q 697 126 660 267 q 714 78 705 101 q 731 37 721 58 q 750 0 741 16 l 522 0 q 526 31 526 14 q 525 51 526 41 q 522 66 524 60 q 519 82 521 75 q 514 104 518 87 q 505 147 511 120 q 488 222 498 174 l 258 222 q 254 199 258 220 q 243 153 249 179 q 233 103 237 127 q 227 65 228 78 q 225 58 225 62 q 224 50 224 56 q 224 39 224 45 q 225 19 224 29 q 231 0 227 9 l 16 0 m 208 1076 l 264 1171 l 534 1017 l 468 978 l 208 1076 m 294 376 l 454 376 l 372 708 l 294 376 z "},"Á":{"ha":761,"x_min":16,"x_max":750,"o":"m 16 0 q 36 40 26 18 q 52 81 45 61 q 66 126 60 103 l 240 817 q 243 835 241 825 q 245 854 244 843 q 245 876 245 865 q 244 905 245 892 q 237 929 243 918 l 517 929 q 510 904 511 918 q 509 873 509 889 q 509 857 509 864 q 510 843 509 850 q 511 831 510 836 q 535 739 521 791 q 564 631 549 688 q 594 514 579 574 q 625 399 610 454 q 697 126 660 267 q 714 78 705 101 q 731 37 721 58 q 750 0 741 16 l 522 0 q 526 31 526 14 q 525 51 526 41 q 522 66 524 60 q 519 82 521 75 q 514 104 518 87 q 505 147 511 120 q 488 222 498 174 l 258 222 q 254 199 258 220 q 243 153 249 179 q 233 103 237 127 q 227 65 228 78 q 225 58 225 62 q 224 50 224 56 q 224 39 224 45 q 225 19 224 29 q 231 0 227 9 l 16 0 m 205 1017 l 475 1171 l 530 1076 l 271 978 l 205 1017 m 294 376 l 454 376 l 372 708 l 294 376 z "},"Â":{"ha":761,"x_min":16,"x_max":750,"o":"m 16 0 q 36 40 26 18 q 52 81 45 61 q 66 126 60 103 l 240 817 q 243 835 241 825 q 245 854 244 843 q 245 876 245 865 q 244 905 245 892 q 237 929 243 918 l 517 929 q 510 904 511 918 q 509 873 509 889 q 509 857 509 864 q 510 843 509 850 q 511 831 510 836 q 535 739 521 791 q 564 631 549 688 q 594 514 579 574 q 625 399 610 454 q 697 126 660 267 q 714 78 705 101 q 731 37 721 58 q 750 0 741 16 l 522 0 q 526 31 526 14 q 525 51 526 41 q 522 66 524 60 q 519 82 521 75 q 514 104 518 87 q 505 147 511 120 q 488 222 498 174 l 258 222 q 254 199 258 220 q 243 153 249 179 q 233 103 237 127 q 227 65 228 78 q 225 58 225 62 q 224 50 224 56 q 224 39 224 45 q 225 19 224 29 q 231 0 227 9 l 16 0 m 115 1031 l 371 1182 l 631 1031 l 557 989 l 371 1069 l 186 989 l 115 1031 m 294 376 l 454 376 l 372 708 l 294 376 z "},"Ã":{"ha":761,"x_min":16,"x_max":750,"o":"m 16 0 q 36 40 26 18 q 52 81 45 61 q 66 126 60 103 l 240 817 q 243 835 241 825 q 245 854 244 843 q 245 876 245 865 q 244 905 245 892 q 237 929 243 918 l 517 929 q 510 904 511 918 q 509 873 509 889 q 509 857 509 864 q 510 843 509 850 q 511 831 510 836 q 535 739 521 791 q 564 631 549 688 q 594 514 579 574 q 625 399 610 454 q 697 126 660 267 q 714 78 705 101 q 731 37 721 58 q 750 0 741 16 l 522 0 q 526 31 526 14 q 525 51 526 41 q 522 66 524 60 q 519 82 521 75 q 514 104 518 87 q 505 147 511 120 q 488 222 498 174 l 258 222 q 254 199 258 220 q 243 153 249 179 q 233 103 237 127 q 227 65 228 78 q 225 58 225 62 q 224 50 224 56 q 224 39 224 45 q 225 19 224 29 q 231 0 227 9 l 16 0 m 189 983 l 214 1082 q 255 1097 233 1092 q 298 1103 276 1103 q 351 1097 325 1103 q 400 1085 376 1092 q 435 1075 418 1080 q 472 1069 452 1069 q 526 1080 497 1069 q 578 1101 555 1090 l 547 1004 q 469 983 513 983 q 382 998 425 983 q 296 1013 340 1013 q 240 1004 265 1013 q 189 983 215 996 m 294 376 l 454 376 l 372 708 l 294 376 z "},"Ä":{"ha":761,"x_min":16,"x_max":750,"o":"m 16 0 q 36 40 26 18 q 52 81 45 61 q 66 126 60 103 l 240 817 q 243 835 241 825 q 245 854 244 843 q 245 876 245 865 q 244 905 245 892 q 237 929 243 918 l 517 929 q 510 904 511 918 q 509 873 509 889 q 509 857 509 864 q 510 843 509 850 q 511 831 510 836 q 535 739 521 791 q 564 631 549 688 q 594 514 579 574 q 625 399 610 454 q 697 126 660 267 q 714 78 705 101 q 731 37 721 58 q 750 0 741 16 l 522 0 q 526 31 526 14 q 525 51 526 41 q 522 66 524 60 q 519 82 521 75 q 514 104 518 87 q 505 147 511 120 q 488 222 498 174 l 258 222 q 254 199 258 220 q 243 153 249 179 q 233 103 237 127 q 227 65 228 78 q 225 58 225 62 q 224 50 224 56 q 224 39 224 45 q 225 19 224 29 q 231 0 227 9 l 16 0 m 191 1051 q 214 1107 191 1083 q 269 1131 236 1131 q 323 1109 301 1131 q 346 1055 346 1087 q 322 999 346 1021 q 265 978 298 978 q 214 1000 236 978 q 191 1051 191 1022 m 294 376 l 454 376 l 372 708 l 294 376 m 404 1051 q 426 1107 404 1083 q 481 1131 448 1131 q 536 1109 513 1131 q 558 1055 558 1087 q 534 999 558 1021 q 477 978 511 978 q 427 1000 450 978 q 404 1051 404 1022 z "},"Å":{"ha":761,"x_min":16,"x_max":750,"o":"m 16 0 q 36 40 26 18 q 52 81 45 61 q 66 126 60 103 l 240 817 q 243 835 241 825 q 245 854 244 843 q 245 876 245 865 q 244 905 245 892 q 237 929 243 918 l 517 929 q 510 904 511 918 q 509 873 509 889 q 509 857 509 864 q 510 843 509 850 q 511 831 510 836 q 535 739 521 791 q 564 631 549 688 q 594 514 579 574 q 625 399 610 454 q 697 126 660 267 q 714 78 705 101 q 731 37 721 58 q 750 0 741 16 l 522 0 q 526 31 526 14 q 525 51 526 41 q 522 66 524 60 q 519 82 521 75 q 514 104 518 87 q 505 147 511 120 q 488 222 498 174 l 258 222 q 254 199 258 220 q 243 153 249 179 q 233 103 237 127 q 227 65 228 78 q 225 58 225 62 q 224 50 224 56 q 224 39 224 45 q 225 19 224 29 q 231 0 227 9 l 16 0 m 292 1057 q 317 1115 292 1093 q 376 1137 343 1137 q 433 1112 410 1137 q 457 1055 457 1087 q 433 998 457 1022 q 375 973 408 973 q 315 997 339 973 q 292 1057 292 1021 m 294 376 l 454 376 l 372 708 l 294 376 m 346 1054 q 354 1035 346 1043 q 374 1027 363 1027 q 393 1036 385 1027 q 401 1055 401 1044 q 393 1075 401 1066 q 374 1084 385 1084 q 354 1076 361 1084 q 346 1054 346 1067 z "},"Æ":{"ha":991,"x_min":16,"x_max":953,"o":"m 16 0 q 36 40 26 18 q 52 81 45 61 q 66 126 60 103 l 240 817 q 243 835 241 825 q 245 854 244 843 q 245 876 245 865 q 244 903 245 892 q 237 928 243 914 l 517 928 q 510 902 511 914 q 509 873 509 889 q 509 857 509 864 q 510 843 509 850 q 511 831 510 836 q 535 739 521 791 q 564 631 549 688 q 594 514 579 574 q 625 399 610 454 q 697 126 660 267 q 714 78 705 101 q 731 37 721 58 q 750 0 741 16 l 492 0 l 488 222 l 258 222 q 254 199 258 220 q 243 153 249 179 q 233 103 237 127 q 227 65 228 78 q 225 58 225 62 q 224 50 224 56 q 224 39 224 45 q 225 19 224 29 q 231 0 227 9 l 16 0 m 294 376 l 454 376 l 372 708 l 294 376 m 460 0 q 472 33 468 14 q 479 71 476 53 q 482 114 482 92 l 482 812 q 479 859 482 836 q 472 897 477 878 q 461 928 468 916 l 922 928 l 953 730 q 915 752 933 744 q 880 764 896 761 q 847 768 862 768 l 668 768 l 668 559 l 793 559 q 829 564 811 559 q 863 573 845 566 q 897 590 880 579 l 897 374 q 862 390 880 385 q 829 399 844 396 q 793 403 811 403 l 668 403 l 668 165 l 851 165 q 886 168 869 164 q 918 176 902 171 q 950 193 935 182 l 922 0 l 460 0 z "},"Ç":{"ha":683,"x_min":25,"x_max":643,"o":"m 25 450 q 56 646 25 556 q 140 803 86 736 q 266 907 193 869 q 425 945 339 945 q 496 937 460 943 q 565 920 528 932 q 639 886 603 908 l 639 661 q 574 719 612 699 q 500 749 536 739 q 412 761 457 760 q 321 731 359 761 q 259 656 283 701 q 223 560 235 611 q 212 465 212 509 q 223 371 212 422 q 257 274 233 319 q 317 199 281 229 q 407 170 354 170 q 497 186 453 171 q 575 225 534 198 q 643 301 615 252 l 643 71 q 565 22 608 39 q 484 -3 522 5 q 392 -14 437 -12 q 229 28 298 -14 q 115 135 160 69 q 47 284 69 201 q 25 450 25 367 m 274 -167 q 318 -182 292 -175 q 363 -189 343 -189 q 381 -188 370 -189 q 401 -182 392 -186 q 418 -172 411 -178 q 425 -155 425 -165 q 418 -135 425 -143 q 401 -123 411 -127 q 381 -118 392 -119 q 360 -117 370 -117 q 319 -121 338 -117 l 366 0 l 441 0 l 416 -60 q 480 -87 452 -64 q 509 -150 509 -110 q 495 -197 509 -178 q 459 -230 481 -216 q 412 -251 437 -244 q 364 -257 386 -257 q 297 -245 334 -257 l 274 -167 z "},"È":{"ha":570,"x_min":39,"x_max":532,"o":"m 39 0 q 51 33 47 14 q 58 71 56 53 q 61 114 61 92 l 61 812 q 58 859 61 836 q 52 897 56 878 q 40 928 47 916 l 501 928 l 532 730 q 493 752 512 744 q 460 764 475 761 q 427 768 441 768 l 248 768 l 248 559 l 372 559 q 408 564 391 559 q 442 573 424 566 q 476 590 460 579 l 476 374 q 441 390 459 385 q 408 399 424 396 q 372 403 390 403 l 248 403 l 248 165 l 431 165 q 465 168 449 164 q 497 176 481 171 q 529 193 514 182 l 501 0 l 39 0 m 106 1076 l 162 1171 l 432 1017 l 366 978 l 106 1076 z "},"É":{"ha":570,"x_min":39,"x_max":532,"o":"m 39 0 q 51 33 47 14 q 58 71 56 53 q 61 114 61 92 l 61 812 q 58 859 61 836 q 52 897 56 878 q 40 928 47 916 l 501 928 l 532 730 q 493 752 512 744 q 460 764 475 761 q 427 768 441 768 l 248 768 l 248 559 l 372 559 q 408 564 391 559 q 442 573 424 566 q 476 590 460 579 l 476 374 q 441 390 459 385 q 408 399 424 396 q 372 403 390 403 l 248 403 l 248 165 l 431 165 q 465 168 449 164 q 497 176 481 171 q 529 193 514 182 l 501 0 l 39 0 m 106 1017 l 375 1171 l 431 1076 l 171 978 l 106 1017 z "},"Ê":{"ha":570,"x_min":24,"x_max":540,"o":"m 24 1031 l 280 1182 l 540 1031 l 467 989 l 280 1069 l 96 989 l 24 1031 m 39 0 q 51 33 47 14 q 58 71 56 53 q 61 114 61 92 l 61 812 q 58 859 61 836 q 52 897 56 878 q 40 928 47 916 l 501 928 l 532 730 q 493 752 512 744 q 460 764 475 761 q 427 768 441 768 l 248 768 l 248 559 l 372 559 q 408 564 391 559 q 442 573 424 566 q 476 590 460 579 l 476 374 q 441 390 459 385 q 408 399 424 396 q 372 403 390 403 l 248 403 l 248 165 l 431 165 q 465 168 449 164 q 497 176 481 171 q 529 193 514 182 l 501 0 l 39 0 z "},"Ë":{"ha":570,"x_min":39,"x_max":532,"o":"m 39 0 q 51 33 47 14 q 58 71 56 53 q 61 114 61 92 l 61 812 q 58 859 61 836 q 52 897 56 878 q 40 928 47 916 l 501 928 l 532 730 q 493 752 512 744 q 460 764 475 761 q 427 768 441 768 l 248 768 l 248 559 l 372 559 q 408 564 391 559 q 442 573 424 566 q 476 590 460 579 l 476 374 q 441 390 459 385 q 408 399 424 396 q 372 403 390 403 l 248 403 l 248 165 l 431 165 q 465 168 449 164 q 497 176 481 171 q 529 193 514 182 l 501 0 l 39 0 m 100 1051 q 122 1107 100 1083 q 178 1131 144 1131 q 232 1109 210 1131 q 254 1055 254 1087 q 231 999 254 1021 q 174 978 207 978 q 122 1000 144 978 q 100 1051 100 1022 m 313 1051 q 335 1107 313 1083 q 390 1131 357 1131 q 444 1109 422 1131 q 467 1055 467 1087 q 443 999 467 1021 q 386 978 419 978 q 335 1000 358 978 q 313 1051 313 1022 z "},"Ì":{"ha":300,"x_min":-35,"x_max":291,"o":"m -35 1076 l 21 1171 l 291 1017 l 225 978 l -35 1076 m 31 0 q 46 40 40 18 q 54 82 52 62 q 57 127 57 106 l 57 798 q 54 843 57 820 q 46 885 52 863 q 31 928 40 908 l 267 928 q 253 887 257 909 q 245 844 249 864 q 243 798 243 821 l 243 127 q 245 81 243 104 q 253 39 248 61 q 267 0 257 17 l 31 0 z "},"Í":{"ha":300,"x_min":21,"x_max":346,"o":"m 21 1026 l 290 1181 l 346 1085 l 86 987 l 21 1026 m 31 0 q 46 40 40 18 q 54 82 52 62 q 57 127 57 106 l 57 798 q 54 843 57 820 q 46 885 52 863 q 31 928 40 908 l 267 928 q 253 887 257 909 q 245 844 249 864 q 243 798 243 821 l 243 127 q 245 81 243 104 q 253 39 248 61 q 267 0 257 17 l 31 0 z "},"Î":{"ha":300,"x_min":-94,"x_max":422,"o":"m -94 1031 l 162 1182 l 422 1031 l 349 989 l 162 1069 l -22 989 l -94 1031 m 31 0 q 46 40 40 18 q 54 82 52 62 q 57 127 57 106 l 57 798 q 54 843 57 820 q 46 885 52 863 q 31 928 40 908 l 267 928 q 253 887 257 909 q 245 844 249 864 q 243 798 243 821 l 243 127 q 245 81 243 104 q 253 39 248 61 q 267 0 257 17 l 31 0 z "},"Ï":{"ha":300,"x_min":-25,"x_max":342,"o":"m -25 1063 q -3 1118 -25 1095 q 53 1142 20 1142 q 107 1120 85 1142 q 130 1067 130 1099 q 106 1011 130 1032 q 49 989 82 989 q -3 1011 20 989 q -25 1063 -25 1034 m 31 0 q 46 40 40 18 q 54 82 52 62 q 57 127 57 106 l 57 798 q 54 843 57 820 q 46 885 52 863 q 31 928 40 908 l 267 928 q 253 887 257 909 q 245 844 249 864 q 243 798 243 821 l 243 127 q 245 81 243 104 q 253 39 248 61 q 267 0 257 17 l 31 0 m 188 1063 q 210 1118 188 1095 q 265 1142 232 1142 q 319 1120 297 1142 q 342 1067 342 1099 q 318 1011 342 1032 q 261 989 294 989 q 211 1011 233 989 q 188 1063 188 1034 z "},"Ñ":{"ha":696,"x_min":41,"x_max":654,"o":"m 41 928 l 229 928 l 473 395 l 473 811 q 471 854 473 832 q 463 893 468 873 q 450 928 458 913 l 654 928 q 643 890 646 909 q 636 852 639 871 q 633 811 633 831 l 633 113 q 636 75 633 94 q 642 38 639 58 q 654 0 646 18 l 484 0 l 225 553 l 227 113 q 229 74 227 93 q 236 37 232 57 q 249 0 240 17 l 43 0 q 55 36 51 16 q 62 72 60 56 q 65 113 65 92 l 65 811 q 62 854 65 832 q 55 893 60 873 q 41 928 50 913 m 170 983 l 195 1082 q 236 1097 214 1092 q 279 1103 257 1103 q 332 1097 306 1103 q 381 1085 357 1092 q 416 1075 399 1080 q 453 1069 433 1069 q 507 1080 478 1069 q 559 1101 536 1090 l 528 1004 q 450 983 494 983 q 363 998 406 983 q 277 1013 321 1013 q 221 1004 246 1013 q 170 983 196 996 z "},"Ò":{"ha":830,"x_min":29,"x_max":802,"o":"m 29 469 q 59 655 29 569 q 142 805 89 742 q 268 904 196 868 q 425 940 340 940 q 591 898 521 940 q 708 788 661 856 q 779 636 755 721 q 802 467 802 551 q 777 294 802 380 q 704 139 753 208 q 583 27 656 71 q 412 -16 510 -16 q 245 28 317 -16 q 126 142 174 72 q 54 298 78 212 q 29 469 29 385 m 221 471 q 231 374 221 428 q 266 272 241 319 q 329 191 290 224 q 421 158 367 158 q 504 183 469 158 q 563 249 539 208 q 598 341 586 290 q 611 447 611 393 q 601 545 611 490 q 567 649 590 600 q 506 732 545 699 q 414 766 468 766 q 321 736 358 766 q 262 662 285 707 q 231 567 240 618 q 221 471 221 515 m 235 1076 l 290 1171 l 560 1017 l 494 978 l 235 1076 z "},"Ó":{"ha":830,"x_min":29,"x_max":802,"o":"m 29 469 q 59 655 29 569 q 142 805 89 742 q 268 904 196 868 q 425 940 340 940 q 591 898 521 940 q 708 788 661 856 q 779 636 755 721 q 802 467 802 551 q 777 294 802 380 q 704 139 753 208 q 583 27 656 71 q 412 -16 510 -16 q 245 28 317 -16 q 126 142 174 72 q 54 298 78 212 q 29 469 29 385 m 221 471 q 231 374 221 428 q 266 272 241 319 q 329 191 290 224 q 421 158 367 158 q 504 183 469 158 q 563 249 539 208 q 598 341 586 290 q 611 447 611 393 q 601 545 611 490 q 567 649 590 600 q 506 732 545 699 q 414 766 468 766 q 321 736 358 766 q 262 662 285 707 q 231 567 240 618 q 221 471 221 515 m 261 1017 l 530 1171 l 586 1075 l 326 978 l 261 1017 z "},"Ô":{"ha":830,"x_min":29,"x_max":802,"o":"m 29 469 q 59 655 29 569 q 142 805 89 742 q 268 904 196 868 q 425 940 340 940 q 591 898 521 940 q 708 788 661 856 q 779 636 755 721 q 802 467 802 551 q 777 294 802 380 q 704 139 753 208 q 583 27 656 71 q 412 -16 510 -16 q 245 28 317 -16 q 126 142 174 72 q 54 298 78 212 q 29 469 29 385 m 163 1031 l 419 1182 l 679 1031 l 606 989 l 419 1069 l 235 989 l 163 1031 m 221 471 q 231 374 221 428 q 266 272 241 319 q 329 191 290 224 q 421 158 367 158 q 504 183 469 158 q 563 249 539 208 q 598 341 586 290 q 611 447 611 393 q 601 545 611 490 q 567 649 590 600 q 506 732 545 699 q 414 766 468 766 q 321 736 358 766 q 262 662 285 707 q 231 567 240 618 q 221 471 221 515 z "},"Õ":{"ha":830,"x_min":29,"x_max":802,"o":"m 29 469 q 59 655 29 569 q 142 805 89 742 q 268 904 196 868 q 425 940 340 940 q 591 898 521 940 q 708 788 661 856 q 779 636 755 721 q 802 467 802 551 q 777 294 802 380 q 704 139 753 208 q 583 27 656 71 q 412 -16 510 -16 q 245 28 317 -16 q 126 142 174 72 q 54 298 78 212 q 29 469 29 385 m 221 471 q 231 374 221 428 q 266 272 241 319 q 329 191 290 224 q 421 158 367 158 q 504 183 469 158 q 563 249 539 208 q 598 341 586 290 q 611 447 611 393 q 601 545 611 490 q 567 649 590 600 q 506 732 545 699 q 414 766 468 766 q 321 736 358 766 q 262 662 285 707 q 231 567 240 618 q 221 471 221 515 m 247 983 l 272 1082 q 313 1097 292 1092 q 357 1103 334 1103 q 409 1097 383 1103 q 458 1085 435 1092 q 494 1075 477 1080 q 530 1069 511 1069 q 585 1080 555 1069 q 636 1101 614 1090 l 606 1004 q 528 983 571 983 q 441 998 483 983 q 354 1013 399 1013 q 298 1004 323 1013 q 247 983 273 996 z "},"Ö":{"ha":830,"x_min":29,"x_max":802,"o":"m 29 469 q 59 655 29 569 q 142 805 89 742 q 268 904 196 868 q 425 940 340 940 q 591 898 521 940 q 708 788 661 856 q 779 636 755 721 q 802 467 802 551 q 777 294 802 380 q 704 139 753 208 q 583 27 656 71 q 412 -16 510 -16 q 245 28 317 -16 q 126 142 174 72 q 54 298 78 212 q 29 469 29 385 m 221 471 q 231 374 221 428 q 266 272 241 319 q 329 191 290 224 q 421 158 367 158 q 504 183 469 158 q 563 249 539 208 q 598 341 586 290 q 611 447 611 393 q 601 545 611 490 q 567 649 590 600 q 506 732 545 699 q 414 766 468 766 q 321 736 358 766 q 262 662 285 707 q 231 567 240 618 q 221 471 221 515 m 237 1051 q 260 1107 237 1083 q 315 1131 282 1131 q 370 1109 347 1131 q 392 1055 392 1087 q 368 999 392 1021 q 311 978 345 978 q 260 1000 282 978 q 237 1051 237 1022 m 450 1051 q 472 1107 450 1083 q 528 1131 494 1131 q 582 1109 559 1131 q 604 1055 604 1087 q 581 999 604 1021 q 524 978 557 978 q 473 1000 496 978 q 450 1051 450 1022 z "},"Ø":{"ha":830,"x_min":29,"x_max":802,"o":"m 29 469 q 59 655 29 569 q 142 805 89 742 q 268 904 196 868 q 425 940 340 940 q 576 905 507 940 l 607 966 l 761 966 l 686 817 q 773 653 745 746 q 802 467 802 561 q 777 294 802 380 q 704 139 753 208 q 583 27 656 71 q 412 -16 510 -16 q 286 8 345 -16 l 256 -54 l 97 -54 l 168 89 q 64 265 99 163 q 29 469 29 367 m 221 471 q 231 377 221 429 q 262 278 240 325 l 494 742 q 457 760 476 753 q 414 766 437 766 q 321 736 358 766 q 262 662 285 707 q 231 567 240 618 q 221 471 221 515 m 366 168 q 421 158 389 159 q 504 183 469 158 q 563 249 539 208 q 598 341 586 290 q 611 447 611 393 q 605 524 611 481 q 583 608 599 567 l 366 168 z "},"Ù":{"ha":715,"x_min":35,"x_max":677,"o":"m 35 928 l 260 928 q 250 885 253 905 q 244 850 248 865 q 241 814 241 831 l 241 307 q 265 205 241 246 q 357 164 289 164 q 475 304 475 164 l 475 814 q 472 851 475 832 q 465 888 469 868 q 453 928 461 908 l 677 928 q 668 885 671 905 q 663 850 665 865 q 660 814 660 831 l 660 304 q 582 75 660 159 q 357 -9 504 -9 q 130 73 204 -9 q 56 302 56 155 l 56 814 q 53 850 56 832 q 46 885 50 865 q 35 928 41 905 m 197 1076 l 253 1171 l 523 1017 l 457 978 l 197 1076 z "},"Ú":{"ha":715,"x_min":35,"x_max":677,"o":"m 35 928 l 260 928 q 250 885 253 905 q 244 850 248 865 q 241 814 241 831 l 241 307 q 265 205 241 246 q 357 164 289 164 q 475 304 475 164 l 475 814 q 472 851 475 832 q 465 888 469 868 q 453 928 461 908 l 677 928 q 668 885 671 905 q 663 850 665 865 q 660 814 660 831 l 660 304 q 582 75 660 159 q 357 -9 504 -9 q 130 73 204 -9 q 56 302 56 155 l 56 814 q 53 850 56 832 q 46 885 50 865 q 35 928 41 905 m 187 1030 l 456 1185 l 512 1089 l 252 991 l 187 1030 z "},"Û":{"ha":715,"x_min":35,"x_max":677,"o":"m 35 928 l 260 928 q 250 885 253 905 q 244 850 248 865 q 241 814 241 831 l 241 307 q 265 205 241 246 q 357 164 289 164 q 475 304 475 164 l 475 814 q 472 851 475 832 q 465 888 469 868 q 453 928 461 908 l 677 928 q 668 885 671 905 q 663 850 665 865 q 660 814 660 831 l 660 304 q 582 75 660 159 q 357 -9 504 -9 q 130 73 204 -9 q 56 302 56 155 l 56 814 q 53 850 56 832 q 46 885 50 865 q 35 928 41 905 m 111 1031 l 366 1182 l 626 1031 l 553 989 l 366 1069 l 182 989 l 111 1031 z "},"Ü":{"ha":715,"x_min":35,"x_max":677,"o":"m 35 928 l 260 928 q 250 885 253 905 q 244 850 248 865 q 241 814 241 831 l 241 307 q 265 205 241 246 q 357 164 289 164 q 475 304 475 164 l 475 814 q 472 851 475 832 q 465 888 469 868 q 453 928 461 908 l 677 928 q 668 885 671 905 q 663 850 665 865 q 660 814 660 831 l 660 304 q 582 75 660 159 q 357 -9 504 -9 q 130 73 204 -9 q 56 302 56 155 l 56 814 q 53 850 56 832 q 46 885 50 865 q 35 928 41 905 m 179 1051 q 201 1107 179 1083 q 257 1131 224 1131 q 311 1109 289 1131 q 334 1055 334 1087 q 310 999 334 1021 q 253 978 286 978 q 201 1000 224 978 q 179 1051 179 1022 m 392 1051 q 414 1107 392 1083 q 469 1131 436 1131 q 524 1109 501 1131 q 546 1055 546 1087 q 522 999 546 1021 q 465 978 498 978 q 415 1000 437 978 q 392 1051 392 1022 z "},"Ý":{"ha":757,"x_min":11,"x_max":745,"o":"m 11 928 l 264 928 q 260 901 260 916 q 261 880 260 890 q 265 863 262 869 q 271 846 268 853 l 392 555 l 514 846 l 518 859 q 522 873 521 865 q 524 892 524 880 q 522 909 524 900 q 517 928 521 918 l 745 928 q 724 900 734 916 q 707 872 714 885 q 690 842 699 857 l 481 366 l 481 126 q 484 79 481 102 q 491 38 486 60 q 505 -1 496 16 l 267 -1 q 282 39 276 17 q 290 81 288 61 q 293 126 293 104 l 293 366 l 71 842 q 50 880 61 863 q 30 910 41 896 q 11 928 20 924 m 235 1010 l 504 1165 l 559 1069 l 300 972 l 235 1010 z "},"ß":{"ha":676,"x_min":29,"x_max":652,"o":"m 29 517 l 82 640 l 82 654 q 93 768 82 717 q 142 861 104 819 q 227 917 178 900 q 329 933 277 933 q 407 924 369 933 q 482 890 446 916 q 542 824 518 864 q 566 728 566 785 q 546 643 566 676 q 502 589 526 610 q 458 555 478 568 q 439 530 439 542 q 446 516 439 521 q 458 509 453 511 q 531 466 496 490 q 592 409 566 441 q 635 333 619 376 q 652 235 652 290 q 633 129 652 175 q 583 50 614 82 q 510 0 551 17 q 424 -17 468 -17 q 346 -1 381 -17 l 296 143 q 331 122 314 131 q 371 114 349 114 q 446 148 414 114 q 478 237 478 182 q 466 298 478 269 q 436 351 454 326 q 396 395 418 375 q 354 431 374 415 q 316 466 334 446 q 298 517 298 485 q 310 557 298 542 q 338 587 321 572 q 362 610 353 600 q 379 643 371 621 q 389 676 386 659 q 392 710 392 693 q 375 781 392 750 q 322 812 358 812 q 287 799 302 812 q 264 765 271 786 q 254 696 254 737 q 253 621 253 656 l 253 153 q 253 108 253 129 q 256 70 253 87 q 266 36 258 53 q 290 4 273 20 l 290 0 l 41 0 l 41 4 q 78 70 75 36 q 82 153 82 104 l 82 517 l 29 517 z "},"à":{"ha":761,"x_min":16,"x_max":750,"o":"m 16 0 q 36 40 26 18 q 52 81 45 61 q 66 126 60 103 l 240 817 q 243 835 241 825 q 245 854 244 843 q 245 876 245 865 q 244 905 245 892 q 237 929 243 918 l 517 929 q 510 904 511 918 q 509 873 509 889 q 509 857 509 864 q 510 843 509 850 q 511 831 510 836 q 535 739 521 791 q 564 631 549 688 q 594 514 579 574 q 625 399 610 454 q 697 126 660 267 q 714 78 705 101 q 731 37 721 58 q 750 0 741 16 l 522 0 q 526 31 526 14 q 525 51 526 41 q 522 66 524 60 q 519 82 521 75 q 514 104 518 87 q 505 147 511 120 q 488 222 498 174 l 258 222 q 254 199 258 220 q 243 153 249 179 q 233 103 237 127 q 227 65 228 78 q 225 58 225 62 q 224 50 224 56 q 224 39 224 45 q 225 19 224 29 q 231 0 227 9 l 16 0 m 222 1076 l 277 1171 l 547 1017 l 481 978 l 222 1076 m 294 376 l 454 376 l 372 708 l 294 376 z "},"á":{"ha":761,"x_min":16,"x_max":750,"o":"m 16 0 q 36 40 26 18 q 52 81 45 61 q 66 126 60 103 l 240 817 q 243 835 241 825 q 245 854 244 843 q 245 876 245 865 q 244 905 245 892 q 237 929 243 918 l 517 929 q 510 904 511 918 q 509 873 509 889 q 509 857 509 864 q 510 843 509 850 q 511 831 510 836 q 535 739 521 791 q 564 631 549 688 q 594 514 579 574 q 625 399 610 454 q 697 126 660 267 q 714 78 705 101 q 731 37 721 58 q 750 0 741 16 l 522 0 q 526 31 526 14 q 525 51 526 41 q 522 66 524 60 q 519 82 521 75 q 514 104 518 87 q 505 147 511 120 q 488 222 498 174 l 258 222 q 254 199 258 220 q 243 153 249 179 q 233 103 237 127 q 227 65 228 78 q 225 58 225 62 q 224 50 224 56 q 224 39 224 45 q 225 19 224 29 q 231 0 227 9 l 16 0 m 219 1017 l 488 1171 l 544 1076 l 284 978 l 219 1017 m 294 376 l 454 376 l 372 708 l 294 376 z "},"â":{"ha":761,"x_min":16,"x_max":750,"o":"m 16 0 q 36 40 26 18 q 52 81 45 61 q 66 126 60 103 l 240 817 q 243 835 241 825 q 245 854 244 843 q 245 876 245 865 q 244 905 245 892 q 237 929 243 918 l 517 929 q 510 904 511 918 q 509 873 509 889 q 509 857 509 864 q 510 843 509 850 q 511 831 510 836 q 535 739 521 791 q 564 631 549 688 q 594 514 579 574 q 625 399 610 454 q 697 126 660 267 q 714 78 705 101 q 731 37 721 58 q 750 0 741 16 l 522 0 q 526 31 526 14 q 525 51 526 41 q 522 66 524 60 q 519 82 521 75 q 514 104 518 87 q 505 147 511 120 q 488 222 498 174 l 258 222 q 254 199 258 220 q 243 153 249 179 q 233 103 237 127 q 227 65 228 78 q 225 58 225 62 q 224 50 224 56 q 224 39 224 45 q 225 19 224 29 q 231 0 227 9 l 16 0 m 117 1031 l 372 1182 l 632 1031 l 559 989 l 372 1069 l 188 989 l 117 1031 m 294 376 l 454 376 l 372 708 l 294 376 z "},"ã":{"ha":761,"x_min":16,"x_max":750,"o":"m 16 0 q 36 40 26 18 q 52 81 45 61 q 66 126 60 103 l 240 817 q 243 835 241 825 q 245 854 244 843 q 245 876 245 865 q 244 905 245 892 q 237 929 243 918 l 517 929 q 510 904 511 918 q 509 873 509 889 q 509 857 509 864 q 510 843 509 850 q 511 831 510 836 q 535 739 521 791 q 564 631 549 688 q 594 514 579 574 q 625 399 610 454 q 697 126 660 267 q 714 78 705 101 q 731 37 721 58 q 750 0 741 16 l 522 0 q 526 31 526 14 q 525 51 526 41 q 522 66 524 60 q 519 82 521 75 q 514 104 518 87 q 505 147 511 120 q 488 222 498 174 l 258 222 q 254 199 258 220 q 243 153 249 179 q 233 103 237 127 q 227 65 228 78 q 225 58 225 62 q 224 50 224 56 q 224 39 224 45 q 225 19 224 29 q 231 0 227 9 l 16 0 m 190 983 l 215 1082 q 256 1097 235 1092 q 300 1103 277 1103 q 352 1097 326 1103 q 401 1085 378 1092 q 437 1075 420 1080 q 473 1069 454 1069 q 528 1080 498 1069 q 579 1101 557 1090 l 549 1004 q 471 983 514 983 q 384 998 426 983 q 297 1013 342 1013 q 241 1004 267 1013 q 190 983 216 996 m 294 376 l 454 376 l 372 708 l 294 376 z "},"ä":{"ha":761,"x_min":25,"x_max":760,"o":"m 25 0 q 45 40 36 18 q 61 81 54 61 q 76 126 69 103 l 250 817 q 252 835 251 825 q 254 854 254 843 q 255 876 255 865 q 254 905 255 892 q 247 929 252 918 l 526 929 q 519 904 521 918 q 518 873 518 889 q 518 857 518 864 q 519 843 518 850 q 521 831 519 836 q 544 739 530 791 q 573 631 558 688 q 604 514 589 574 q 635 399 619 454 q 707 126 669 267 q 724 78 715 101 q 740 37 730 58 q 760 0 750 16 l 532 0 q 536 31 536 14 q 534 51 536 41 q 532 66 533 60 q 529 82 530 75 q 524 104 528 87 q 514 147 521 120 q 497 222 508 174 l 268 222 q 263 199 268 220 q 253 153 258 179 q 242 103 247 127 q 236 65 237 78 q 235 58 235 62 q 233 50 233 56 q 233 39 233 45 q 235 19 233 29 q 240 0 236 9 l 25 0 m 203 1051 q 225 1107 203 1083 q 281 1131 248 1131 q 335 1109 313 1131 q 357 1055 357 1087 q 334 999 357 1021 q 277 978 310 978 q 225 1000 248 978 q 203 1051 203 1022 m 304 376 l 464 376 l 382 708 l 304 376 m 416 1051 q 438 1107 416 1083 q 493 1131 460 1131 q 547 1109 525 1131 q 570 1055 570 1087 q 546 999 570 1021 q 489 978 522 978 q 438 1000 461 978 q 416 1051 416 1022 z "},"å":{"ha":761,"x_min":16,"x_max":750,"o":"m 16 0 q 36 40 26 18 q 52 81 45 61 q 66 126 60 103 l 240 817 q 243 835 241 825 q 245 854 244 843 q 245 876 245 865 q 244 905 245 892 q 237 929 243 918 l 517 929 q 510 904 511 918 q 509 873 509 889 q 509 857 509 864 q 510 843 509 850 q 511 831 510 836 q 535 739 521 791 q 564 631 549 688 q 594 514 579 574 q 625 399 610 454 q 697 126 660 267 q 714 78 705 101 q 731 37 721 58 q 750 0 741 16 l 522 0 q 526 31 526 14 q 525 51 526 41 q 522 66 524 60 q 519 82 521 75 q 514 104 518 87 q 505 147 511 120 q 488 222 498 174 l 258 222 q 254 199 258 220 q 243 153 249 179 q 233 103 237 127 q 227 65 228 78 q 225 58 225 62 q 224 50 224 56 q 224 39 224 45 q 225 19 224 29 q 231 0 227 9 l 16 0 m 294 376 l 454 376 l 372 708 l 294 376 m 294 1071 q 320 1129 294 1107 q 379 1152 346 1152 q 436 1126 412 1152 q 460 1069 460 1101 q 435 1012 460 1036 q 378 987 411 987 q 318 1011 342 987 q 294 1071 294 1035 m 349 1068 q 357 1049 349 1057 q 376 1042 366 1042 q 396 1050 387 1042 q 404 1069 404 1059 q 396 1089 404 1080 q 376 1099 387 1099 q 356 1090 364 1099 q 349 1068 349 1081 z "},"æ":{"ha":991,"x_min":16,"x_max":953,"o":"m 16 0 q 36 40 26 18 q 52 81 45 61 q 66 126 60 103 l 240 817 q 243 835 241 825 q 245 854 244 843 q 245 876 245 865 q 244 903 245 892 q 237 928 243 914 l 517 928 q 510 902 511 914 q 509 873 509 889 q 509 857 509 864 q 510 843 509 850 q 511 831 510 836 q 535 739 521 791 q 564 631 549 688 q 594 514 579 574 q 625 399 610 454 q 697 126 660 267 q 714 78 705 101 q 731 37 721 58 q 750 0 741 16 l 492 0 l 488 222 l 258 222 q 254 199 258 220 q 243 153 249 179 q 233 103 237 127 q 227 65 228 78 q 225 58 225 62 q 224 50 224 56 q 224 39 224 45 q 225 19 224 29 q 231 0 227 9 l 16 0 m 294 376 l 454 376 l 372 708 l 294 376 m 460 0 q 472 33 468 14 q 479 71 476 53 q 482 114 482 92 l 482 812 q 479 859 482 836 q 472 897 477 878 q 461 928 468 916 l 922 928 l 953 730 q 915 752 933 744 q 880 764 896 761 q 847 768 862 768 l 668 768 l 668 559 l 793 559 q 829 564 811 559 q 863 573 845 566 q 897 590 880 579 l 897 374 q 862 390 880 385 q 829 399 844 396 q 793 403 811 403 l 668 403 l 668 165 l 851 165 q 886 168 869 164 q 918 176 902 171 q 950 193 935 182 l 922 0 l 460 0 z "},"ç":{"ha":684,"x_min":26,"x_max":644,"o":"m 26 450 q 57 646 26 556 q 141 803 87 736 q 268 907 195 869 q 427 945 340 945 q 497 937 461 943 q 567 920 529 932 q 640 886 604 908 l 640 661 q 576 719 614 699 q 501 749 538 739 q 414 761 458 760 q 323 731 361 761 q 260 656 285 701 q 225 560 236 611 q 214 465 214 509 q 224 371 214 422 q 258 274 235 319 q 319 199 282 229 q 408 170 355 170 q 498 186 454 171 q 576 225 536 198 q 644 301 616 252 l 644 71 q 567 22 610 39 q 485 -3 524 5 q 393 -14 439 -12 q 230 28 299 -14 q 116 135 161 69 q 48 284 71 201 q 26 450 26 367 m 275 -167 q 319 -182 294 -175 q 364 -189 345 -189 q 382 -188 371 -189 q 403 -182 393 -186 q 419 -172 412 -178 q 427 -155 427 -165 q 419 -135 427 -143 q 403 -123 412 -127 q 382 -118 393 -119 q 361 -117 371 -117 q 321 -121 339 -117 l 367 0 l 443 0 l 418 -60 q 482 -87 454 -64 q 510 -150 510 -110 q 496 -197 510 -178 q 460 -230 482 -216 q 413 -251 439 -244 q 366 -257 387 -257 q 298 -245 335 -257 l 275 -167 z "},"è":{"ha":573,"x_min":41,"x_max":534,"o":"m 41 0 q 54 33 50 14 q 61 71 58 53 q 64 114 64 92 l 64 812 q 61 859 64 836 q 54 897 58 878 q 43 928 50 916 l 504 928 l 534 730 q 496 752 515 744 q 463 764 478 761 q 429 768 444 768 l 250 768 l 250 559 l 375 559 q 411 564 393 559 q 445 573 427 566 q 479 590 463 579 l 479 374 q 445 390 463 385 q 411 399 427 396 q 375 403 393 403 l 250 403 l 250 165 l 433 165 q 468 168 452 164 q 500 176 484 171 q 532 193 517 182 l 504 0 l 41 0 m 117 1076 l 172 1171 l 442 1017 l 376 978 l 117 1076 z "},"é":{"ha":573,"x_min":41,"x_max":534,"o":"m 41 0 q 54 33 50 14 q 61 71 58 53 q 64 114 64 92 l 64 812 q 61 859 64 836 q 54 897 58 878 q 43 928 50 916 l 504 928 l 534 730 q 496 752 515 744 q 463 764 478 761 q 429 768 444 768 l 250 768 l 250 559 l 375 559 q 411 564 393 559 q 445 573 427 566 q 479 590 463 579 l 479 374 q 445 390 463 385 q 411 399 427 396 q 375 403 393 403 l 250 403 l 250 165 l 433 165 q 468 168 452 164 q 500 176 484 171 q 532 193 517 182 l 504 0 l 41 0 m 111 1017 l 380 1171 l 436 1076 l 176 978 l 111 1017 z "},"ê":{"ha":573,"x_min":24,"x_max":540,"o":"m 24 1031 l 280 1182 l 540 1031 l 467 989 l 280 1069 l 96 989 l 24 1031 m 41 0 q 54 33 50 14 q 61 71 58 53 q 64 114 64 92 l 64 812 q 61 859 64 836 q 54 897 58 878 q 43 928 50 916 l 504 928 l 534 730 q 496 752 515 744 q 463 764 478 761 q 429 768 444 768 l 250 768 l 250 559 l 375 559 q 411 564 393 559 q 445 573 427 566 q 479 590 463 579 l 479 374 q 445 390 463 385 q 411 399 427 396 q 375 403 393 403 l 250 403 l 250 165 l 433 165 q 468 168 452 164 q 500 176 484 171 q 532 193 517 182 l 504 0 l 41 0 z "},"ë":{"ha":573,"x_min":41,"x_max":534,"o":"m 41 0 q 54 33 50 14 q 61 71 58 53 q 64 114 64 92 l 64 812 q 61 859 64 836 q 54 897 58 878 q 43 928 50 916 l 504 928 l 534 730 q 496 752 515 744 q 463 764 478 761 q 429 768 444 768 l 250 768 l 250 559 l 375 559 q 411 564 393 559 q 445 573 427 566 q 479 590 463 579 l 479 374 q 445 390 463 385 q 411 399 427 396 q 375 403 393 403 l 250 403 l 250 165 l 433 165 q 468 168 452 164 q 500 176 484 171 q 532 193 517 182 l 504 0 l 41 0 m 92 1051 q 114 1107 92 1083 q 170 1131 136 1131 q 224 1109 201 1131 q 246 1055 246 1087 q 222 999 246 1021 q 165 978 199 978 q 114 1000 136 978 q 92 1051 92 1022 m 304 1051 q 327 1107 304 1083 q 382 1131 349 1131 q 436 1109 414 1131 q 458 1055 458 1087 q 435 999 458 1021 q 378 978 411 978 q 327 1000 350 978 q 304 1051 304 1022 z "},"ì":{"ha":300,"x_min":-35,"x_max":291,"o":"m -35 1076 l 21 1171 l 291 1017 l 225 978 l -35 1076 m 31 0 q 46 40 40 18 q 54 82 52 62 q 57 127 57 106 l 57 798 q 54 843 57 820 q 46 885 52 863 q 31 928 40 908 l 267 928 q 253 887 257 909 q 245 844 249 864 q 243 798 243 821 l 243 127 q 245 81 243 104 q 253 39 248 61 q 267 0 257 17 l 31 0 z "},"í":{"ha":300,"x_min":15,"x_max":340,"o":"m 15 1017 l 284 1171 l 340 1076 l 80 978 l 15 1017 m 31 0 q 46 40 40 18 q 54 82 52 62 q 57 127 57 106 l 57 798 q 54 843 57 820 q 46 885 52 863 q 31 928 40 908 l 267 928 q 253 887 257 909 q 245 844 249 864 q 243 798 243 821 l 243 127 q 245 81 243 104 q 253 39 248 61 q 267 0 257 17 l 31 0 z "},"î":{"ha":300,"x_min":-98,"x_max":418,"o":"m -98 1031 l 158 1182 l 418 1031 l 345 989 l 158 1069 l -26 989 l -98 1031 m 31 0 q 46 40 40 18 q 54 82 52 62 q 57 127 57 106 l 57 798 q 54 843 57 820 q 46 885 52 863 q 31 928 40 908 l 267 928 q 253 887 257 909 q 245 844 249 864 q 243 798 243 821 l 243 127 q 245 81 243 104 q 253 39 248 61 q 267 0 257 17 l 31 0 z "},"ï":{"ha":300,"x_min":-25,"x_max":342,"o":"m -25 1063 q -3 1118 -25 1095 q 53 1142 20 1142 q 107 1120 85 1142 q 130 1067 130 1099 q 106 1011 130 1032 q 49 989 82 989 q -3 1011 20 989 q -25 1063 -25 1034 m 31 0 q 46 40 40 18 q 54 82 52 62 q 57 127 57 106 l 57 798 q 54 843 57 820 q 46 885 52 863 q 31 928 40 908 l 267 928 q 253 887 257 909 q 245 844 249 864 q 243 798 243 821 l 243 127 q 245 81 243 104 q 253 39 248 61 q 267 0 257 17 l 31 0 m 188 1063 q 210 1118 188 1095 q 265 1142 232 1142 q 319 1120 297 1142 q 342 1067 342 1099 q 318 1011 342 1032 q 261 989 294 989 q 211 1011 233 989 q 188 1063 188 1034 z "},"ñ":{"ha":699,"x_min":43,"x_max":656,"o":"m 43 928 l 231 928 l 475 395 l 475 811 q 472 854 475 832 q 465 893 469 873 q 452 928 460 913 l 656 928 q 644 890 648 909 q 637 852 640 871 q 635 811 635 831 l 635 113 q 637 75 635 94 q 644 38 640 58 q 656 0 647 18 l 485 0 l 227 553 l 228 113 q 231 74 228 93 q 237 37 233 57 q 250 0 241 17 l 45 0 q 57 36 53 16 q 64 72 61 56 q 66 113 66 92 l 66 811 q 64 854 66 832 q 56 893 61 873 q 43 928 52 913 m 170 983 l 195 1082 q 236 1097 214 1092 q 279 1103 257 1103 q 332 1097 306 1103 q 381 1085 357 1092 q 416 1075 399 1080 q 453 1069 433 1069 q 507 1080 478 1069 q 559 1101 536 1090 l 528 1004 q 450 983 494 983 q 363 998 406 983 q 277 1013 321 1013 q 221 1004 246 1013 q 170 983 196 996 z "},"ò":{"ha":830,"x_min":29,"x_max":802,"o":"m 29 469 q 59 655 29 569 q 142 805 89 742 q 268 904 196 868 q 425 940 340 940 q 591 898 521 940 q 708 788 661 856 q 779 636 755 721 q 802 467 802 551 q 777 294 802 380 q 704 139 753 208 q 583 27 656 71 q 412 -16 510 -16 q 245 28 317 -16 q 126 142 174 72 q 54 298 78 212 q 29 469 29 385 m 221 471 q 231 374 221 428 q 266 272 241 319 q 329 191 290 224 q 421 158 367 158 q 504 183 469 158 q 563 249 539 208 q 598 341 586 290 q 611 447 611 393 q 601 545 611 490 q 567 649 590 600 q 506 732 545 699 q 414 766 468 766 q 321 736 358 766 q 262 662 285 707 q 231 567 240 618 q 221 471 221 515 m 252 1076 l 308 1171 l 578 1017 l 512 978 l 252 1076 z "},"ó":{"ha":830,"x_min":29,"x_max":802,"o":"m 29 469 q 59 655 29 569 q 142 805 89 742 q 268 904 196 868 q 425 940 340 940 q 591 898 521 940 q 708 788 661 856 q 779 636 755 721 q 802 467 802 551 q 777 294 802 380 q 704 139 753 208 q 583 27 656 71 q 412 -16 510 -16 q 245 28 317 -16 q 126 142 174 72 q 54 298 78 212 q 29 469 29 385 m 221 471 q 231 374 221 428 q 266 272 241 319 q 329 191 290 224 q 421 158 367 158 q 504 183 469 158 q 563 249 539 208 q 598 341 586 290 q 611 447 611 393 q 601 545 611 490 q 567 649 590 600 q 506 732 545 699 q 414 766 468 766 q 321 736 358 766 q 262 662 285 707 q 231 567 240 618 q 221 471 221 515 m 278 1017 l 547 1171 l 603 1076 l 343 978 l 278 1017 z "},"ô":{"ha":830,"x_min":29,"x_max":802,"o":"m 29 469 q 59 655 29 569 q 142 805 89 742 q 268 904 196 868 q 425 940 340 940 q 591 898 521 940 q 708 788 661 856 q 779 636 755 721 q 802 467 802 551 q 777 294 802 380 q 704 139 753 208 q 583 27 656 71 q 412 -16 510 -16 q 245 28 317 -16 q 126 142 174 72 q 54 298 78 212 q 29 469 29 385 m 157 1031 l 412 1182 l 672 1031 l 599 989 l 412 1069 l 228 989 l 157 1031 m 221 471 q 231 374 221 428 q 266 272 241 319 q 329 191 290 224 q 421 158 367 158 q 504 183 469 158 q 563 249 539 208 q 598 341 586 290 q 611 447 611 393 q 601 545 611 490 q 567 649 590 600 q 506 732 545 699 q 414 766 468 766 q 321 736 358 766 q 262 662 285 707 q 231 567 240 618 q 221 471 221 515 z "},"õ":{"ha":830,"x_min":29,"x_max":802,"o":"m 29 469 q 59 655 29 569 q 142 805 89 742 q 268 904 196 868 q 425 940 340 940 q 591 898 521 940 q 708 788 661 856 q 779 636 755 721 q 802 467 802 551 q 777 294 802 380 q 704 139 753 208 q 583 27 656 71 q 412 -16 510 -16 q 245 28 317 -16 q 126 142 174 72 q 54 298 78 212 q 29 469 29 385 m 221 471 q 231 374 221 428 q 266 272 241 319 q 329 191 290 224 q 421 158 367 158 q 504 183 469 158 q 563 249 539 208 q 598 341 586 290 q 611 447 611 393 q 601 545 611 490 q 567 649 590 600 q 506 732 545 699 q 414 766 468 766 q 321 736 358 766 q 262 662 285 707 q 231 567 240 618 q 221 471 221 515 m 239 983 l 264 1082 q 305 1097 283 1092 q 349 1103 326 1103 q 401 1097 375 1103 q 450 1085 427 1092 q 486 1075 469 1080 q 522 1069 503 1069 q 576 1080 547 1069 q 628 1101 606 1090 l 597 1004 q 519 983 563 983 q 433 998 475 983 q 346 1013 391 1013 q 290 1004 315 1013 q 239 983 265 996 z "},"ö":{"ha":830,"x_min":29,"x_max":802,"o":"m 29 469 q 59 655 29 569 q 142 805 89 742 q 268 904 196 868 q 425 940 340 940 q 591 898 521 940 q 708 788 661 856 q 779 636 755 721 q 802 467 802 551 q 777 294 802 380 q 704 139 753 208 q 583 27 656 71 q 412 -16 510 -16 q 245 28 317 -16 q 126 142 174 72 q 54 298 78 212 q 29 469 29 385 m 221 471 q 231 374 221 428 q 266 272 241 319 q 329 191 290 224 q 421 158 367 158 q 504 183 469 158 q 563 249 539 208 q 598 341 586 290 q 611 447 611 393 q 601 545 611 490 q 567 649 590 600 q 506 732 545 699 q 414 766 468 766 q 321 736 358 766 q 262 662 285 707 q 231 567 240 618 q 221 471 221 515 m 229 1051 q 252 1107 229 1083 q 307 1131 274 1131 q 361 1109 339 1131 q 384 1055 384 1087 q 360 999 384 1021 q 303 978 336 978 q 252 1000 274 978 q 229 1051 229 1022 m 442 1051 q 464 1107 442 1083 q 519 1131 486 1131 q 574 1109 551 1131 q 596 1055 596 1087 q 572 999 596 1021 q 515 978 549 978 q 465 1000 488 978 q 442 1051 442 1022 z "},"÷":{"ha":648,"x_min":3,"x_max":646,"o":"m 3 275 l 3 375 l 646 375 l 646 275 l 3 275 m 231 97 q 259 164 231 137 q 325 191 288 191 q 391 163 363 191 q 418 96 418 135 q 391 28 418 57 q 325 0 364 0 q 258 28 285 0 q 231 97 231 57 m 231 557 q 259 623 231 597 q 325 650 288 650 q 391 622 363 650 q 418 555 418 595 q 391 488 418 517 q 325 460 364 460 q 258 488 285 460 q 231 557 231 517 z "},"ø":{"ha":830,"x_min":29,"x_max":802,"o":"m 29 469 q 59 655 29 569 q 142 805 89 742 q 268 904 196 868 q 425 940 340 940 q 576 905 507 940 l 607 966 l 761 966 l 686 817 q 773 653 745 746 q 802 467 802 561 q 777 294 802 380 q 704 139 753 208 q 583 27 656 71 q 412 -16 510 -16 q 286 8 345 -16 l 256 -54 l 97 -54 l 168 89 q 64 265 99 163 q 29 469 29 367 m 221 471 q 231 377 221 429 q 262 278 240 325 l 494 742 q 457 760 476 753 q 414 766 437 766 q 321 736 358 766 q 262 662 285 707 q 231 567 240 618 q 221 471 221 515 m 366 168 q 421 158 389 159 q 504 183 469 158 q 563 249 539 208 q 598 341 586 290 q 611 447 611 393 q 605 524 611 481 q 583 608 599 567 l 366 168 z "},"ù":{"ha":715,"x_min":35,"x_max":677,"o":"m 35 928 l 260 928 q 250 885 253 905 q 244 850 248 865 q 241 814 241 831 l 241 307 q 265 205 241 246 q 357 164 289 164 q 475 304 475 164 l 475 814 q 472 851 475 832 q 465 888 469 868 q 453 928 461 908 l 677 928 q 668 885 671 905 q 663 850 665 865 q 660 814 660 831 l 660 304 q 582 75 660 159 q 357 -9 504 -9 q 130 73 204 -9 q 56 302 56 155 l 56 814 q 53 850 56 832 q 46 885 50 865 q 35 928 41 905 m 178 1076 l 233 1171 l 503 1017 l 437 978 l 178 1076 z "},"ú":{"ha":715,"x_min":35,"x_max":677,"o":"m 35 928 l 260 928 q 250 885 253 905 q 244 850 248 865 q 241 814 241 831 l 241 307 q 265 205 241 246 q 357 164 289 164 q 475 304 475 164 l 475 814 q 472 851 475 832 q 465 888 469 868 q 453 928 461 908 l 677 928 q 668 885 671 905 q 663 850 665 865 q 660 814 660 831 l 660 304 q 582 75 660 159 q 357 -9 504 -9 q 130 73 204 -9 q 56 302 56 155 l 56 814 q 53 850 56 832 q 46 885 50 865 q 35 928 41 905 m 196 1017 l 465 1171 l 521 1076 l 261 978 l 196 1017 z "},"û":{"ha":715,"x_min":35,"x_max":677,"o":"m 35 928 l 260 928 q 250 885 253 905 q 244 850 248 865 q 241 814 241 831 l 241 307 q 265 205 241 246 q 357 164 289 164 q 475 304 475 164 l 475 814 q 472 851 475 832 q 465 888 469 868 q 453 928 461 908 l 677 928 q 668 885 671 905 q 663 850 665 865 q 660 814 660 831 l 660 304 q 582 75 660 159 q 357 -9 504 -9 q 130 73 204 -9 q 56 302 56 155 l 56 814 q 53 850 56 832 q 46 885 50 865 q 35 928 41 905 m 105 1031 l 361 1182 l 621 1031 l 547 989 l 361 1069 l 176 989 l 105 1031 z "},"ü":{"ha":715,"x_min":35,"x_max":677,"o":"m 35 928 l 260 928 q 250 885 253 905 q 244 850 248 865 q 241 814 241 831 l 241 307 q 265 205 241 246 q 357 164 289 164 q 475 304 475 164 l 475 814 q 472 851 475 832 q 465 888 469 868 q 453 928 461 908 l 677 928 q 668 885 671 905 q 663 850 665 865 q 660 814 660 831 l 660 304 q 582 75 660 159 q 357 -9 504 -9 q 130 73 204 -9 q 56 302 56 155 l 56 814 q 53 850 56 832 q 46 885 50 865 q 35 928 41 905 m 175 1051 q 197 1107 175 1083 q 253 1131 220 1131 q 307 1109 285 1131 q 330 1055 330 1087 q 306 999 330 1021 q 249 978 282 978 q 197 1000 220 978 q 175 1051 175 1022 m 388 1051 q 410 1107 388 1083 q 465 1131 432 1131 q 519 1109 497 1131 q 542 1055 542 1087 q 518 999 542 1021 q 461 978 494 978 q 411 1000 433 978 q 388 1051 388 1022 z "},"ý":{"ha":757,"x_min":11,"x_max":745,"o":"m 11 928 l 264 928 q 260 901 260 916 q 261 880 260 890 q 265 863 262 869 q 271 846 268 853 l 392 555 l 514 846 l 518 859 q 522 873 521 865 q 524 892 524 880 q 522 909 524 900 q 517 928 521 918 l 745 928 q 724 900 734 916 q 707 872 714 885 q 690 842 699 857 l 481 366 l 481 126 q 484 79 481 102 q 491 38 486 60 q 505 -1 496 16 l 267 -1 q 282 39 276 17 q 290 81 288 61 q 293 126 293 104 l 293 366 l 71 842 q 50 880 61 863 q 30 910 41 896 q 11 928 20 924 m 235 1010 l 504 1165 l 559 1069 l 300 972 l 235 1010 z "},"ÿ":{"ha":757,"x_min":11,"x_max":745,"o":"m 11 928 l 264 928 q 260 901 260 916 q 261 880 260 890 q 265 863 262 869 q 271 846 268 853 l 392 555 l 514 846 l 518 859 q 522 873 521 865 q 524 892 524 880 q 522 909 524 900 q 517 928 521 918 l 745 928 q 724 900 734 916 q 707 872 714 885 q 690 842 699 857 l 481 366 l 481 126 q 484 79 481 102 q 491 38 486 60 q 505 -1 496 16 l 267 -1 q 282 39 276 17 q 290 81 288 61 q 293 126 293 104 l 293 366 l 71 842 q 50 880 61 863 q 30 910 41 896 q 11 928 20 924 m 208 1054 q 231 1109 208 1086 q 286 1133 253 1133 q 340 1112 318 1133 q 363 1058 363 1090 q 339 1002 363 1023 q 282 981 315 981 q 231 1003 253 981 q 208 1054 208 1025 m 421 1054 q 443 1109 421 1086 q 498 1133 465 1133 q 553 1112 530 1133 q 575 1058 575 1090 q 551 1002 575 1023 q 494 981 528 981 q 444 1003 467 981 q 421 1054 421 1025 z "},"Ą":{"ha":761,"x_min":16,"x_max":750,"o":"m 16 0 q 36 40 26 18 q 52 81 45 61 q 66 126 60 103 l 240 817 q 243 835 241 825 q 245 854 244 843 q 245 876 245 865 q 244 905 245 892 q 237 929 243 918 l 517 929 q 510 904 511 918 q 509 873 509 889 q 509 857 509 864 q 510 843 509 850 q 511 831 510 836 q 535 739 521 791 q 564 631 549 688 q 594 514 579 574 q 625 399 610 454 q 697 126 660 267 q 714 78 705 101 q 731 37 721 58 q 750 0 741 16 l 522 0 q 526 31 526 14 q 525 51 526 41 q 522 66 524 60 q 519 82 521 75 q 514 104 518 87 q 505 147 511 120 q 488 222 498 174 l 258 222 q 254 199 258 220 q 243 153 249 179 q 233 103 237 127 q 227 65 228 78 q 225 58 225 62 q 224 50 224 56 q 224 39 224 45 q 225 19 224 29 q 231 0 227 9 l 16 0 m 16 0 q 36 40 26 18 q 52 81 45 61 q 66 126 60 103 l 240 817 q 243 835 241 825 q 245 854 244 843 q 245 876 245 865 q 244 905 245 892 q 237 929 243 918 l 517 929 q 510 904 511 918 q 509 873 509 889 q 509 857 509 864 q 510 843 509 850 q 511 831 510 836 q 535 739 521 791 q 564 631 549 688 q 594 514 579 574 q 625 399 610 454 q 697 126 660 267 q 714 78 705 101 q 731 37 721 58 q 750 0 741 16 l 522 0 q 526 31 526 14 q 525 51 526 41 q 522 66 524 60 q 519 82 521 75 q 514 104 518 87 q 505 147 511 120 q 488 222 498 174 l 258 222 q 254 199 258 220 q 243 153 249 179 q 233 103 237 127 q 227 65 228 78 q 225 58 225 62 q 224 50 224 56 q 224 39 224 45 q 225 19 224 29 q 231 0 227 9 l 16 0 m 294 376 l 454 376 l 372 708 l 294 376 m 294 376 l 454 376 l 372 708 l 294 376 m 505 -168 q 503 -160 505 -168 q 502 -136 500 -152 q 508 -103 503 -119 q 522 -71 514 -86 q 571 0 539 -36 l 657 0 q 631 -33 642 -16 q 613 -68 621 -49 q 605 -110 605 -88 q 616 -140 605 -132 q 645 -148 628 -148 q 681 -143 662 -149 q 715 -133 701 -138 l 734 -181 q 651 -214 691 -203 q 616 -221 634 -218 q 581 -222 598 -223 q 549 -215 564 -221 q 522 -196 534 -209 q 505 -168 509 -183 z "},"ą":{"ha":765,"x_min":16,"x_max":750,"o":"m 16 0 q 36 40 26 18 q 52 81 45 61 q 66 126 60 103 l 240 817 q 243 835 241 825 q 245 854 244 843 q 245 876 245 865 q 244 905 245 892 q 237 929 243 918 l 517 929 q 510 904 511 918 q 509 873 509 889 q 509 857 509 864 q 510 843 509 850 q 511 831 510 836 q 535 739 521 791 q 564 631 549 688 q 594 514 579 574 q 625 399 610 454 q 697 126 660 267 q 714 78 705 101 q 731 37 721 58 q 750 0 741 16 l 522 0 q 526 31 526 14 q 525 51 526 41 q 522 66 524 60 q 519 82 521 75 q 514 104 518 87 q 505 147 511 120 q 488 222 498 174 l 258 222 q 254 199 258 220 q 243 153 249 179 q 233 103 237 127 q 227 65 228 78 q 225 58 225 62 q 224 50 224 56 q 224 39 224 45 q 225 19 224 29 q 231 0 227 9 l 16 0 m 16 0 q 36 40 26 18 q 52 81 45 61 q 66 126 60 103 l 240 817 q 243 835 241 825 q 245 854 244 843 q 245 876 245 865 q 244 905 245 892 q 237 929 243 918 l 517 929 q 510 904 511 918 q 509 873 509 889 q 509 857 509 864 q 510 843 509 850 q 511 831 510 836 q 535 739 521 791 q 564 631 549 688 q 594 514 579 574 q 625 399 610 454 q 697 126 660 267 q 714 78 705 101 q 731 37 721 58 q 750 0 741 16 l 522 0 q 526 31 526 14 q 525 51 526 41 q 522 66 524 60 q 519 82 521 75 q 514 104 518 87 q 505 147 511 120 q 488 222 498 174 l 258 222 q 254 199 258 220 q 243 153 249 179 q 233 103 237 127 q 227 65 228 78 q 225 58 225 62 q 224 50 224 56 q 224 39 224 45 q 225 19 224 29 q 231 0 227 9 l 16 0 m 294 376 l 454 376 l 372 708 l 294 376 m 294 376 l 454 376 l 372 708 l 294 376 m 505 -168 q 503 -160 505 -168 q 502 -136 500 -152 q 508 -103 503 -119 q 522 -71 514 -86 q 571 0 539 -36 l 657 0 q 631 -33 642 -16 q 613 -68 621 -49 q 605 -110 605 -88 q 616 -140 605 -132 q 645 -148 628 -148 q 681 -143 662 -149 q 715 -133 701 -138 l 734 -181 q 651 -214 691 -203 q 616 -221 634 -218 q 581 -222 598 -223 q 549 -215 564 -221 q 522 -196 534 -209 q 505 -168 509 -183 z "},"Ć":{"ha":683,"x_min":25,"x_max":643,"o":"m 25 450 q 56 646 25 556 q 140 803 86 736 q 266 907 193 869 q 425 945 339 945 q 496 937 460 943 q 565 920 528 932 q 639 886 603 908 l 639 661 q 574 719 612 699 q 500 749 536 739 q 412 761 457 760 q 321 731 359 761 q 259 656 283 701 q 223 560 235 611 q 212 465 212 509 q 223 371 212 422 q 257 274 233 319 q 317 199 281 229 q 407 170 354 170 q 497 186 453 171 q 575 225 534 198 q 643 301 615 252 l 643 71 q 565 22 608 39 q 484 -3 522 5 q 392 -14 437 -12 q 229 28 298 -14 q 115 135 160 69 q 47 284 69 201 q 25 450 25 367 m 261 1017 l 530 1171 l 586 1075 l 326 978 l 261 1017 z "},"ć":{"ha":684,"x_min":25,"x_max":643,"o":"m 25 450 q 56 646 25 556 q 140 803 86 736 q 266 907 193 869 q 425 945 339 945 q 496 937 460 943 q 565 920 528 932 q 639 886 603 908 l 639 661 q 574 719 612 699 q 500 749 536 739 q 412 761 457 760 q 321 731 359 761 q 259 656 283 701 q 223 560 235 611 q 212 465 212 509 q 223 371 212 422 q 257 274 233 319 q 317 199 281 229 q 407 170 354 170 q 497 186 453 171 q 575 225 534 198 q 643 301 615 252 l 643 71 q 565 22 608 39 q 484 -3 522 5 q 392 -14 437 -12 q 229 28 298 -14 q 115 135 160 69 q 47 284 69 201 q 25 450 25 367 m 261 1017 l 530 1171 l 586 1075 l 326 978 l 261 1017 z "},"Č":{"ha":683,"x_min":25,"x_max":643,"o":"m 25 450 q 56 646 25 556 q 140 803 86 736 q 266 907 193 869 q 425 945 339 945 q 496 937 460 943 q 565 920 528 932 q 639 886 603 908 l 639 661 q 574 719 612 699 q 500 749 536 739 q 412 761 457 760 q 321 731 359 761 q 259 656 283 701 q 223 560 235 611 q 212 465 212 509 q 223 371 212 422 q 257 274 233 319 q 317 199 281 229 q 407 170 354 170 q 497 186 453 171 q 575 225 534 198 q 643 301 615 252 l 643 71 q 565 22 608 39 q 484 -3 522 5 q 392 -14 437 -12 q 229 28 298 -14 q 115 135 160 69 q 47 284 69 201 q 25 450 25 367 m 94 1115 l 163 1157 l 339 1079 l 517 1157 l 587 1115 l 339 972 l 94 1115 z "},"č":{"ha":683,"x_min":25,"x_max":643,"o":"m 25 450 q 56 646 25 556 q 140 803 86 736 q 266 907 193 869 q 425 945 339 945 q 496 937 460 943 q 565 920 528 932 q 639 886 603 908 l 639 661 q 574 719 612 699 q 500 749 536 739 q 412 761 457 760 q 321 731 359 761 q 259 656 283 701 q 223 560 235 611 q 212 465 212 509 q 223 371 212 422 q 257 274 233 319 q 317 199 281 229 q 407 170 354 170 q 497 186 453 171 q 575 225 534 198 q 643 301 615 252 l 643 71 q 565 22 608 39 q 484 -3 522 5 q 392 -14 437 -12 q 229 28 298 -14 q 115 135 160 69 q 47 284 69 201 q 25 450 25 367 m 94 1115 l 163 1157 l 339 1079 l 517 1157 l 587 1115 l 339 972 l 94 1115 z "},"Ď":{"ha":711,"x_min":40,"x_max":682,"o":"m 40 928 l 355 928 q 514 884 451 928 q 615 773 578 840 q 667 625 652 705 q 682 471 682 545 q 665 314 682 397 q 609 162 647 232 q 508 46 571 92 q 357 0 446 0 l 41 0 q 53 37 48 17 q 60 75 57 57 q 62 115 62 96 l 62 814 q 60 848 62 831 q 53 885 57 864 q 40 928 49 905 m 108 1115 l 176 1157 l 353 1079 l 530 1157 l 601 1115 l 353 972 l 108 1115 m 248 171 l 332 171 q 382 184 358 171 q 424 219 406 197 q 457 269 443 240 q 479 330 472 298 q 496 475 496 401 q 492 550 496 512 q 482 625 489 589 q 454 703 474 673 q 410 751 433 733 q 362 776 386 770 q 325 782 339 782 l 248 782 l 248 171 z "},"ď":{"ha":711,"x_min":40,"x_max":682,"o":"m 40 928 l 355 928 q 514 884 451 928 q 615 773 578 840 q 667 625 652 705 q 682 471 682 545 q 665 314 682 397 q 609 162 647 232 q 508 46 571 92 q 357 0 446 0 l 41 0 q 53 37 48 17 q 60 75 57 57 q 62 115 62 96 l 62 814 q 60 848 62 831 q 53 885 57 864 q 40 928 49 905 m 108 1115 l 176 1157 l 353 1079 l 530 1157 l 601 1115 l 353 972 l 108 1115 m 248 171 l 332 171 q 382 184 358 171 q 424 219 406 197 q 457 269 443 240 q 479 330 472 298 q 496 475 496 401 q 492 550 496 512 q 482 625 489 589 q 454 703 474 673 q 410 751 433 733 q 362 776 386 770 q 325 782 339 782 l 248 782 l 248 171 z "},"Ę":{"ha":570,"x_min":39,"x_max":532,"o":"m 39 0 q 51 33 47 14 q 58 71 56 53 q 61 114 61 92 l 61 812 q 58 859 61 836 q 52 897 56 878 q 40 928 47 916 l 501 928 l 532 730 q 493 752 512 744 q 460 764 475 761 q 427 768 441 768 l 248 768 l 248 559 l 372 559 q 408 564 391 559 q 442 573 424 566 q 476 590 460 579 l 476 374 q 441 390 459 385 q 408 399 424 396 q 372 403 390 403 l 248 403 l 248 165 l 431 165 q 465 168 449 164 q 497 176 481 171 q 529 193 514 182 l 501 0 l 39 0 m 271 -168 q 269 -160 271 -168 q 268 -136 267 -152 q 274 -103 269 -119 q 288 -71 280 -86 q 337 0 305 -36 l 423 0 q 397 -33 408 -16 q 379 -68 387 -49 q 371 -110 371 -88 q 382 -140 371 -132 q 411 -148 394 -148 q 447 -143 428 -149 q 481 -133 467 -138 l 500 -181 q 417 -214 457 -203 q 382 -221 400 -218 q 347 -222 364 -223 q 315 -215 330 -221 q 288 -196 300 -209 q 271 -168 275 -183 z "},"ę":{"ha":573,"x_min":39,"x_max":532,"o":"m 39 0 q 51 33 47 14 q 58 71 56 53 q 61 114 61 92 l 61 812 q 58 859 61 836 q 52 897 56 878 q 40 928 47 916 l 501 928 l 532 730 q 493 752 512 744 q 460 764 475 761 q 427 768 441 768 l 248 768 l 248 559 l 372 559 q 408 564 391 559 q 442 573 424 566 q 476 590 460 579 l 476 374 q 441 390 459 385 q 408 399 424 396 q 372 403 390 403 l 248 403 l 248 165 l 431 165 q 465 168 449 164 q 497 176 481 171 q 529 193 514 182 l 501 0 l 39 0 m 271 -168 q 269 -160 271 -168 q 268 -136 267 -152 q 274 -103 269 -119 q 288 -71 280 -86 q 337 0 305 -36 l 423 0 q 397 -33 408 -16 q 379 -68 387 -49 q 371 -110 371 -88 q 382 -140 371 -132 q 411 -148 394 -148 q 447 -143 428 -149 q 481 -133 467 -138 l 500 -181 q 417 -214 457 -203 q 382 -221 400 -218 q 347 -222 364 -223 q 315 -215 330 -221 q 288 -196 300 -209 q 271 -168 275 -183 z "},"Ě":{"ha":570,"x_min":39,"x_max":532,"o":"m 39 0 q 51 33 47 14 q 58 71 56 53 q 61 114 61 92 l 61 812 q 58 859 61 836 q 52 897 56 878 q 40 928 47 916 l 501 928 l 532 730 q 493 752 512 744 q 460 764 475 761 q 427 768 441 768 l 248 768 l 248 559 l 372 559 q 408 564 391 559 q 442 573 424 566 q 476 590 460 579 l 476 374 q 441 390 459 385 q 408 399 424 396 q 372 403 390 403 l 248 403 l 248 165 l 431 165 q 465 168 449 164 q 497 176 481 171 q 529 193 514 182 l 501 0 l 39 0 m 39 1185 l 107 1227 l 283 1149 l 461 1227 l 532 1185 l 283 1042 l 39 1185 z "},"ě":{"ha":573,"x_min":40,"x_max":534,"o":"m 40 1115 l 109 1157 l 285 1079 l 463 1157 l 533 1115 l 285 972 l 40 1115 m 41 0 q 54 33 50 14 q 61 71 58 53 q 64 114 64 92 l 64 812 q 61 859 64 836 q 54 897 58 878 q 43 928 50 916 l 504 928 l 534 730 q 496 752 515 744 q 463 764 478 761 q 429 768 444 768 l 250 768 l 250 559 l 375 559 q 411 564 393 559 q 445 573 427 566 q 479 590 463 579 l 479 374 q 445 390 463 385 q 411 399 427 396 q 375 403 393 403 l 250 403 l 250 165 l 433 165 q 468 168 452 164 q 500 176 484 171 q 532 193 517 182 l 504 0 l 41 0 z "},"Ğ":{"ha":719,"x_min":26,"x_max":686,"o":"m 26 447 q 57 643 26 553 q 141 799 87 733 q 268 903 195 865 q 427 940 340 940 q 497 933 461 939 q 567 916 529 928 q 640 882 604 904 l 640 659 q 582 719 618 697 q 510 750 546 741 q 424 762 469 761 q 329 732 368 762 q 263 657 289 703 q 225 561 237 612 q 214 463 214 509 q 233 323 214 389 q 292 218 253 258 q 379 168 333 174 q 481 171 425 161 l 481 355 q 478 399 481 378 q 470 436 475 417 q 457 469 465 454 l 686 469 q 672 435 677 454 q 665 399 668 416 q 663 355 663 378 l 663 58 q 574 16 621 31 q 486 -5 526 1 q 393 -14 439 -14 q 230 26 299 -14 q 116 133 161 66 q 48 281 71 199 q 26 447 26 364 m 118 1156 l 193 1189 q 263 1126 220 1141 q 359 1110 307 1110 q 455 1126 411 1110 q 526 1189 498 1142 l 602 1156 q 507 1038 566 1072 q 359 1003 448 1003 q 212 1038 269 1003 q 118 1156 154 1072 z "},"ğ":{"ha":719,"x_min":26,"x_max":686,"o":"m 26 447 q 57 643 26 553 q 141 799 87 733 q 268 903 195 865 q 427 940 340 940 q 497 933 461 939 q 567 916 529 928 q 640 882 604 904 l 640 659 q 582 719 618 697 q 510 750 546 741 q 424 762 469 761 q 329 732 368 762 q 263 657 289 703 q 225 561 237 612 q 214 463 214 509 q 233 323 214 389 q 292 218 253 258 q 379 168 333 174 q 481 171 425 161 l 481 355 q 478 399 481 378 q 470 436 475 417 q 457 469 465 454 l 686 469 q 672 435 677 454 q 665 399 668 416 q 663 355 663 378 l 663 58 q 574 16 621 31 q 486 -5 526 1 q 393 -14 439 -14 q 230 26 299 -14 q 116 133 161 66 q 48 281 71 199 q 26 447 26 364 m 118 1156 l 193 1189 q 263 1126 220 1141 q 359 1110 307 1110 q 455 1126 411 1110 q 526 1189 498 1142 l 602 1156 q 507 1038 566 1072 q 359 1003 448 1003 q 212 1038 269 1003 q 118 1156 154 1072 z "},"İ":{"ha":300,"x_min":31,"x_max":267,"o":"m 31 0 q 46 40 40 18 q 54 82 52 62 q 57 127 57 106 l 57 798 q 54 843 57 820 q 46 885 52 863 q 31 928 40 908 l 267 928 q 253 887 257 909 q 245 844 249 864 q 243 798 243 821 l 243 127 q 245 81 243 104 q 253 39 248 61 q 267 0 257 17 l 31 0 m 72 1054 q 94 1109 72 1086 q 150 1133 117 1133 q 204 1112 182 1133 q 227 1059 227 1090 q 203 1002 227 1024 q 146 981 179 981 q 95 1003 118 981 q 72 1054 72 1025 z "},"ı":{"ha":300,"x_min":31,"x_max":267,"o":"m 31 0 q 46 40 40 18 q 54 82 52 62 q 57 127 57 106 l 57 798 q 54 843 57 820 q 46 885 52 863 q 31 928 40 908 l 267 928 q 253 887 257 909 q 245 844 249 864 q 243 798 243 821 l 243 127 q 245 81 243 104 q 253 39 248 61 q 267 0 257 17 l 31 0 z "},"Ĺ":{"ha":534,"x_min":39,"x_max":529,"o":"m 39 0 q 52 34 47 14 q 60 72 57 54 q 62 115 62 93 l 62 812 q 60 859 62 836 q 53 897 57 878 q 40 928 49 916 l 277 928 q 265 896 270 914 q 257 863 260 878 q 253 823 253 843 l 253 167 l 431 167 q 465 170 449 167 q 497 177 481 172 q 529 193 514 182 l 501 0 l 39 0 m 104 1023 l 374 1178 l 429 1082 l 170 985 l 104 1023 z "},"ĺ":{"ha":534,"x_min":39,"x_max":529,"o":"m 39 0 q 52 34 47 14 q 60 72 57 54 q 62 115 62 93 l 62 812 q 60 859 62 836 q 53 897 57 878 q 40 928 49 916 l 277 928 q 265 896 270 914 q 257 863 260 878 q 253 823 253 843 l 253 167 l 431 167 q 465 170 449 167 q 497 177 481 172 q 529 193 514 182 l 501 0 l 39 0 m 104 1023 l 374 1178 l 429 1082 l 170 985 l 104 1023 z "},"Ľ":{"ha":534,"x_min":39,"x_max":529,"o":"m 39 0 q 52 34 47 14 q 60 72 57 54 q 62 115 62 93 l 62 812 q 60 859 62 836 q 53 897 57 878 q 40 928 49 916 l 277 928 q 265 896 270 914 q 257 863 260 878 q 253 823 253 843 l 253 167 l 431 167 q 465 170 449 167 q 497 177 481 172 q 529 193 514 182 l 501 0 l 39 0 m 340 832 q 366 901 340 872 q 431 929 393 929 q 476 917 457 929 q 507 885 496 905 q 524 842 518 865 q 529 796 529 819 q 516 720 529 759 q 479 651 504 681 q 421 605 455 621 q 345 596 387 588 q 375 615 361 602 q 399 648 389 629 q 416 689 410 667 q 426 734 423 711 q 365 764 390 736 q 340 832 340 792 z "},"ľ":{"ha":534,"x_min":39,"x_max":529,"o":"m 39 0 q 52 34 47 14 q 60 72 57 54 q 62 115 62 93 l 62 812 q 60 859 62 836 q 53 897 57 878 q 40 928 49 916 l 277 928 q 265 896 270 914 q 257 863 260 878 q 253 823 253 843 l 253 167 l 431 167 q 465 170 449 167 q 497 177 481 172 q 529 193 514 182 l 501 0 l 39 0 m 340 832 q 366 901 340 872 q 431 929 393 929 q 476 917 457 929 q 507 885 496 905 q 524 842 518 865 q 529 796 529 819 q 516 720 529 759 q 479 651 504 681 q 421 605 455 621 q 345 596 387 588 q 375 615 361 602 q 399 648 389 629 q 416 689 410 667 q 426 734 423 711 q 365 764 390 736 q 340 832 340 792 z "},"Ł":{"ha":534,"x_min":8,"x_max":532,"o":"m 8 336 l 8 339 l 9 439 q 9 467 10 448 q 12 494 9 487 q 27 508 16 503 q 45 516 38 513 l 353 645 q 397 668 377 655 q 437 701 418 681 l 440 702 l 439 600 q 439 570 438 590 q 437 544 439 551 q 422 530 434 535 q 403 522 410 525 l 96 393 q 49 369 70 382 q 8 336 28 356 m 39 0 q 52 34 47 14 q 60 72 57 54 q 62 115 62 93 l 62 812 q 60 859 62 836 q 53 897 57 878 q 40 928 49 916 l 277 928 q 265 896 270 914 q 257 863 260 878 q 253 823 253 843 l 253 167 l 431 167 q 465 170 449 167 q 497 177 481 172 q 529 193 514 182 l 501 0 l 39 0 m 41 0 q 55 34 50 14 q 62 72 60 54 q 65 115 65 93 l 65 812 q 62 859 65 836 q 56 897 60 878 q 43 928 52 916 l 279 928 q 268 896 273 914 q 260 863 262 878 q 256 823 256 843 l 256 167 l 433 167 q 468 170 452 167 q 500 177 484 172 q 532 193 517 182 l 504 0 l 41 0 z "},"ł":{"ha":537,"x_min":8,"x_max":532,"o":"m 8 336 l 8 339 l 9 439 q 9 467 10 448 q 12 494 9 487 q 27 508 16 503 q 45 516 38 513 l 353 645 q 397 668 377 655 q 437 701 418 681 l 440 702 l 439 600 q 439 570 438 590 q 437 544 439 551 q 422 530 434 535 q 403 522 410 525 l 96 393 q 49 369 70 382 q 8 336 28 356 m 39 0 q 52 34 47 14 q 60 72 57 54 q 62 115 62 93 l 62 812 q 60 859 62 836 q 53 897 57 878 q 40 928 49 916 l 277 928 q 265 896 270 914 q 257 863 260 878 q 253 823 253 843 l 253 167 l 431 167 q 465 170 449 167 q 497 177 481 172 q 529 193 514 182 l 501 0 l 39 0 m 41 0 q 55 34 50 14 q 62 72 60 54 q 65 115 65 93 l 65 812 q 62 859 65 836 q 56 897 60 878 q 43 928 52 916 l 279 928 q 268 896 273 914 q 260 863 262 878 q 256 823 256 843 l 256 167 l 433 167 q 468 170 452 167 q 500 177 484 172 q 532 193 517 182 l 504 0 l 41 0 z "},"Ń":{"ha":696,"x_min":43,"x_max":656,"o":"m 43 928 l 231 928 l 475 395 l 475 811 q 472 854 475 832 q 465 893 469 873 q 452 928 460 913 l 656 928 q 644 890 648 909 q 637 852 640 871 q 635 811 635 831 l 635 113 q 637 75 635 94 q 644 38 640 58 q 656 0 647 18 l 485 0 l 227 553 l 228 113 q 231 74 228 93 q 237 37 233 57 q 250 0 241 17 l 45 0 q 57 36 53 16 q 64 72 61 56 q 66 113 66 92 l 66 811 q 64 854 66 832 q 56 893 61 873 q 43 928 52 913 m 205 1017 l 475 1171 l 530 1076 l 271 978 l 205 1017 z "},"ń":{"ha":699,"x_min":43,"x_max":656,"o":"m 43 928 l 231 928 l 475 395 l 475 811 q 472 854 475 832 q 465 893 469 873 q 452 928 460 913 l 656 928 q 644 890 648 909 q 637 852 640 871 q 635 811 635 831 l 635 113 q 637 75 635 94 q 644 38 640 58 q 656 0 647 18 l 485 0 l 227 553 l 228 113 q 231 74 228 93 q 237 37 233 57 q 250 0 241 17 l 45 0 q 57 36 53 16 q 64 72 61 56 q 66 113 66 92 l 66 811 q 64 854 66 832 q 56 893 61 873 q 43 928 52 913 m 205 1017 l 475 1171 l 530 1076 l 271 978 l 205 1017 z "},"Ň":{"ha":699,"x_min":43,"x_max":656,"o":"m 43 928 l 231 928 l 475 395 l 475 811 q 472 854 475 832 q 465 893 469 873 q 452 928 460 913 l 656 928 q 644 890 648 909 q 637 852 640 871 q 635 811 635 831 l 635 113 q 637 75 635 94 q 644 38 640 58 q 656 0 647 18 l 485 0 l 227 553 l 228 113 q 231 74 228 93 q 237 37 233 57 q 250 0 241 17 l 45 0 q 57 36 53 16 q 64 72 61 56 q 66 113 66 92 l 66 811 q 64 854 66 832 q 56 893 61 873 q 43 928 52 913 m 102 1115 l 171 1157 l 347 1079 l 525 1157 l 595 1115 l 347 972 l 102 1115 z "},"ň":{"ha":699,"x_min":43,"x_max":656,"o":"m 43 928 l 231 928 l 475 395 l 475 811 q 472 854 475 832 q 465 893 469 873 q 452 928 460 913 l 656 928 q 644 890 648 909 q 637 852 640 871 q 635 811 635 831 l 635 113 q 637 75 635 94 q 644 38 640 58 q 656 0 647 18 l 485 0 l 227 553 l 228 113 q 231 74 228 93 q 237 37 233 57 q 250 0 241 17 l 45 0 q 57 36 53 16 q 64 72 61 56 q 66 113 66 92 l 66 811 q 64 854 66 832 q 56 893 61 873 q 43 928 52 913 m 102 1115 l 171 1157 l 347 1079 l 525 1157 l 595 1115 l 347 972 l 102 1115 z "},"Ő":{"ha":830,"x_min":29,"x_max":802,"o":"m 29 469 q 59 655 29 569 q 142 805 89 742 q 268 904 196 868 q 425 940 340 940 q 591 898 521 940 q 708 788 661 856 q 779 636 755 721 q 802 467 802 551 q 777 294 802 380 q 704 139 753 208 q 583 27 656 71 q 412 -16 510 -16 q 245 28 317 -16 q 126 142 174 72 q 54 298 78 212 q 29 469 29 385 m 107 1017 l 376 1171 l 432 1076 l 172 978 l 107 1017 m 221 471 q 231 374 221 428 q 266 272 241 319 q 329 191 290 224 q 421 158 367 158 q 504 183 469 158 q 563 249 539 208 q 598 341 586 290 q 611 447 611 393 q 601 545 611 490 q 567 649 590 600 q 506 732 545 699 q 414 766 468 766 q 321 736 358 766 q 262 662 285 707 q 231 567 240 618 q 221 471 221 515 m 401 1017 l 671 1171 l 726 1076 l 467 978 l 401 1017 z "},"ő":{"ha":830,"x_min":29,"x_max":802,"o":"m 29 469 q 59 655 29 569 q 142 805 89 742 q 268 904 196 868 q 425 940 340 940 q 591 898 521 940 q 708 788 661 856 q 779 636 755 721 q 802 467 802 551 q 777 294 802 380 q 704 139 753 208 q 583 27 656 71 q 412 -16 510 -16 q 245 28 317 -16 q 126 142 174 72 q 54 298 78 212 q 29 469 29 385 m 176 1017 l 446 1171 l 501 1076 l 241 978 l 176 1017 m 221 471 q 231 374 221 428 q 266 272 241 319 q 329 191 290 224 q 421 158 367 158 q 504 183 469 158 q 563 249 539 208 q 598 341 586 290 q 611 447 611 393 q 601 545 611 490 q 567 649 590 600 q 506 732 545 699 q 414 766 468 766 q 321 736 358 766 q 262 662 285 707 q 231 567 240 618 q 221 471 221 515 m 471 1017 l 740 1171 l 795 1076 l 536 978 l 471 1017 z "},"Ŕ":{"ha":709,"x_min":43,"x_max":685,"o":"m 43 926 l 368 926 q 468 907 420 926 q 553 852 517 888 q 612 768 590 817 q 635 660 635 720 q 591 490 635 555 q 484 390 547 424 l 628 83 q 643 53 635 68 q 661 26 650 41 q 685 -1 672 11 l 457 -1 l 314 351 l 250 351 l 250 113 q 253 72 250 93 q 258 34 256 54 q 268 -1 261 14 l 45 -1 q 56 35 52 16 q 62 72 60 54 q 65 113 65 92 l 65 812 q 62 847 65 829 q 56 883 60 863 q 43 926 52 904 m 192 1010 l 461 1165 l 517 1069 l 257 972 l 192 1010 m 250 500 l 322 500 q 367 510 345 500 q 408 539 390 519 q 436 588 425 558 q 447 659 447 618 q 440 698 447 677 q 419 738 433 720 q 384 769 406 757 q 334 781 363 781 l 250 781 l 250 500 z "},"ŕ":{"ha":709,"x_min":43,"x_max":685,"o":"m 43 926 l 368 926 q 468 907 420 926 q 553 852 517 888 q 612 768 590 817 q 635 660 635 720 q 591 490 635 555 q 484 390 547 424 l 628 83 q 643 53 635 68 q 661 26 650 41 q 685 -1 672 11 l 457 -1 l 314 351 l 250 351 l 250 113 q 253 72 250 93 q 258 34 256 54 q 268 -1 261 14 l 45 -1 q 56 35 52 16 q 62 72 60 54 q 65 113 65 92 l 65 812 q 62 847 65 829 q 56 883 60 863 q 43 926 52 904 m 192 1010 l 461 1165 l 517 1069 l 257 972 l 192 1010 m 250 500 l 322 500 q 367 510 345 500 q 408 539 390 519 q 436 588 425 558 q 447 659 447 618 q 440 698 447 677 q 419 738 433 720 q 384 769 406 757 q 334 781 363 781 l 250 781 l 250 500 z "},"Ř":{"ha":709,"x_min":43,"x_max":685,"o":"m 43 926 l 368 926 q 468 907 420 926 q 553 852 517 888 q 612 768 590 817 q 635 660 635 720 q 591 490 635 555 q 484 390 547 424 l 628 83 q 643 53 635 68 q 661 26 650 41 q 685 -1 672 11 l 457 -1 l 314 351 l 250 351 l 250 113 q 253 72 250 93 q 258 34 256 54 q 268 -1 261 14 l 45 -1 q 56 35 52 16 q 62 72 60 54 q 65 113 65 92 l 65 812 q 62 847 65 829 q 56 883 60 863 q 43 926 52 904 m 108 1115 l 176 1157 l 353 1079 l 530 1157 l 601 1115 l 353 972 l 108 1115 m 250 500 l 322 500 q 367 510 345 500 q 408 539 390 519 q 436 588 425 558 q 447 659 447 618 q 440 698 447 677 q 419 738 433 720 q 384 769 406 757 q 334 781 363 781 l 250 781 l 250 500 z "},"ř":{"ha":709,"x_min":43,"x_max":685,"o":"m 43 926 l 368 926 q 468 907 420 926 q 553 852 517 888 q 612 768 590 817 q 635 660 635 720 q 591 490 635 555 q 484 390 547 424 l 628 83 q 643 53 635 68 q 661 26 650 41 q 685 -1 672 11 l 457 -1 l 314 351 l 250 351 l 250 113 q 253 72 250 93 q 258 34 256 54 q 268 -1 261 14 l 45 -1 q 56 35 52 16 q 62 72 60 54 q 65 113 65 92 l 65 812 q 62 847 65 829 q 56 883 60 863 q 43 926 52 904 m 108 1115 l 176 1157 l 353 1079 l 530 1157 l 601 1115 l 353 972 l 108 1115 m 250 500 l 322 500 q 367 510 345 500 q 408 539 390 519 q 436 588 425 558 q 447 659 447 618 q 440 698 447 677 q 419 738 433 720 q 384 769 406 757 q 334 781 363 781 l 250 781 l 250 500 z "},"Ś":{"ha":583,"x_min":37,"x_max":552,"o":"m 37 71 l 37 286 q 106 211 70 237 q 174 172 142 184 q 246 155 210 157 q 369 256 368 155 q 354 301 369 281 q 313 341 338 322 q 257 377 288 359 q 195 414 226 395 q 72 537 104 471 q 39 684 39 603 q 59 783 39 736 q 116 865 79 829 q 208 921 153 900 q 332 942 262 942 q 401 935 366 941 q 462 920 430 929 q 522 892 494 911 l 522 668 q 465 724 498 704 q 404 753 433 743 q 332 765 369 764 q 260 743 290 765 q 230 675 231 721 q 235 642 230 656 q 254 611 241 627 q 291 579 267 596 q 349 542 315 562 q 420 498 384 521 q 486 445 456 476 q 533 371 515 414 q 552 267 552 328 q 530 149 552 201 q 470 60 508 97 q 379 4 431 24 q 269 -16 327 -16 q 181 -5 221 -16 q 111 19 141 5 q 62 48 81 33 q 37 71 42 62 m 134 1023 l 403 1178 l 458 1082 l 199 985 l 134 1023 z "},"ś":{"ha":583,"x_min":37,"x_max":552,"o":"m 37 71 l 37 286 q 106 211 70 237 q 174 172 142 184 q 246 155 210 157 q 369 256 368 155 q 354 301 369 281 q 313 341 338 322 q 257 377 288 359 q 195 414 226 395 q 72 537 104 471 q 39 684 39 603 q 59 783 39 736 q 116 865 79 829 q 208 921 153 900 q 332 942 262 942 q 401 935 366 941 q 462 920 430 929 q 522 892 494 911 l 522 668 q 465 724 498 704 q 404 753 433 743 q 332 765 369 764 q 260 743 290 765 q 230 675 231 721 q 235 642 230 656 q 254 611 241 627 q 291 579 267 596 q 349 542 315 562 q 420 498 384 521 q 486 445 456 476 q 533 371 515 414 q 552 267 552 328 q 530 149 552 201 q 470 60 508 97 q 379 4 431 24 q 269 -16 327 -16 q 181 -5 221 -16 q 111 19 141 5 q 62 48 81 33 q 37 71 42 62 m 134 1023 l 403 1178 l 458 1082 l 199 985 l 134 1023 z "},"Ş":{"ha":583,"x_min":36,"x_max":551,"o":"m 36 71 l 36 286 q 105 211 69 237 q 174 172 142 184 q 245 155 210 157 q 368 256 368 155 q 353 301 368 281 q 313 341 338 322 q 256 377 288 359 q 195 414 225 395 q 71 537 103 471 q 39 684 39 603 q 58 783 39 736 q 115 865 78 829 q 207 921 153 900 q 332 942 261 942 q 400 935 365 941 q 461 920 429 929 q 521 892 493 911 l 521 668 q 465 724 497 704 q 403 753 432 743 q 332 765 368 764 q 260 743 289 765 q 229 675 231 721 q 235 642 229 656 q 253 611 240 627 q 290 579 267 596 q 349 542 314 562 q 419 498 383 521 q 485 445 456 476 q 533 371 514 414 q 551 267 551 328 q 529 149 551 201 q 469 60 507 97 q 378 4 431 24 q 268 -16 326 -16 q 180 -5 220 -16 q 111 19 140 5 q 61 48 81 33 q 36 71 41 62 m 174 -167 q 217 -182 192 -175 q 262 -189 243 -189 q 280 -188 269 -189 q 301 -182 292 -186 q 318 -172 311 -178 q 325 -155 325 -165 q 318 -135 325 -143 q 301 -123 311 -127 q 280 -118 292 -119 q 260 -117 269 -117 q 219 -121 237 -117 l 265 0 l 341 0 l 316 -60 q 380 -87 352 -64 q 408 -150 408 -110 q 394 -197 408 -178 q 359 -230 380 -216 q 311 -251 337 -244 q 264 -257 286 -257 q 197 -245 233 -257 l 174 -167 z "},"ş":{"ha":583,"x_min":36,"x_max":551,"o":"m 36 71 l 36 286 q 105 211 69 237 q 174 172 142 184 q 245 155 210 157 q 368 256 368 155 q 353 301 368 281 q 313 341 338 322 q 256 377 288 359 q 195 414 225 395 q 71 537 103 471 q 39 684 39 603 q 58 783 39 736 q 115 865 78 829 q 207 921 153 900 q 332 942 261 942 q 400 935 365 941 q 461 920 429 929 q 521 892 493 911 l 521 668 q 465 724 497 704 q 403 753 432 743 q 332 765 368 764 q 260 743 289 765 q 229 675 231 721 q 235 642 229 656 q 253 611 240 627 q 290 579 267 596 q 349 542 314 562 q 419 498 383 521 q 485 445 456 476 q 533 371 514 414 q 551 267 551 328 q 529 149 551 201 q 469 60 507 97 q 378 4 431 24 q 268 -16 326 -16 q 180 -5 220 -16 q 111 19 140 5 q 61 48 81 33 q 36 71 41 62 m 174 -167 q 217 -182 192 -175 q 262 -189 243 -189 q 280 -188 269 -189 q 301 -182 292 -186 q 318 -172 311 -178 q 325 -155 325 -165 q 318 -135 325 -143 q 301 -123 311 -127 q 280 -118 292 -119 q 260 -117 269 -117 q 219 -121 237 -117 l 265 0 l 341 0 l 316 -60 q 380 -87 352 -64 q 408 -150 408 -110 q 394 -197 408 -178 q 359 -230 380 -216 q 311 -251 337 -244 q 264 -257 286 -257 q 197 -245 233 -257 l 174 -167 z "},"Š":{"ha":583,"x_min":36,"x_max":557,"o":"m 36 71 l 36 286 q 105 211 69 237 q 174 172 142 184 q 245 155 210 157 q 368 256 368 155 q 353 301 368 281 q 313 341 338 322 q 256 377 288 359 q 195 414 225 395 q 71 537 103 471 q 39 684 39 603 q 58 783 39 736 q 115 865 78 829 q 207 921 153 900 q 332 942 261 942 q 400 935 365 941 q 461 920 429 929 q 521 892 493 911 l 521 668 q 465 724 497 704 q 403 753 432 743 q 332 765 368 764 q 260 743 289 765 q 229 675 231 721 q 235 642 229 656 q 253 611 240 627 q 290 579 267 596 q 349 542 314 562 q 419 498 383 521 q 485 445 456 476 q 533 371 514 414 q 551 267 551 328 q 529 149 551 201 q 469 60 507 97 q 378 4 431 24 q 268 -16 326 -16 q 180 -5 220 -16 q 111 19 140 5 q 61 48 81 33 q 36 71 41 62 m 64 1115 l 132 1157 l 309 1079 l 486 1157 l 557 1115 l 309 972 l 64 1115 z "},"š":{"ha":583,"x_min":36,"x_max":557,"o":"m 36 71 l 36 286 q 105 211 69 237 q 174 172 142 184 q 245 155 210 157 q 368 256 368 155 q 353 301 368 281 q 313 341 338 322 q 256 377 288 359 q 195 414 225 395 q 71 537 103 471 q 39 684 39 603 q 58 783 39 736 q 115 865 78 829 q 207 921 153 900 q 332 942 261 942 q 400 935 365 941 q 461 920 429 929 q 521 892 493 911 l 521 668 q 465 724 497 704 q 403 753 432 743 q 332 765 368 764 q 260 743 289 765 q 229 675 231 721 q 235 642 229 656 q 253 611 240 627 q 290 579 267 596 q 349 542 314 562 q 419 498 383 521 q 485 445 456 476 q 533 371 514 414 q 551 267 551 328 q 529 149 551 201 q 469 60 507 97 q 378 4 431 24 q 268 -16 326 -16 q 180 -5 220 -16 q 111 19 140 5 q 61 48 81 33 q 36 71 41 62 m 64 1115 l 132 1157 l 309 1079 l 486 1157 l 557 1115 l 309 972 l 64 1115 z "},"Ť":{"ha":648,"x_min":16,"x_max":632,"o":"m 16 733 l 45 926 l 604 926 l 632 733 q 602 751 621 744 q 562 761 582 758 q 517 765 540 765 l 416 765 l 418 126 q 421 79 418 102 q 429 38 424 60 q 443 -1 433 16 l 204 -1 q 220 39 215 17 q 228 81 225 61 q 232 126 231 104 l 232 765 l 131 765 q 85 761 107 765 q 46 751 65 758 q 16 733 26 745 m 77 1115 l 146 1157 l 322 1079 l 500 1157 l 570 1115 l 322 972 l 77 1115 z "},"ť":{"ha":648,"x_min":16,"x_max":632,"o":"m 16 733 l 45 926 l 604 926 l 632 733 q 602 751 621 744 q 562 761 582 758 q 517 765 540 765 l 416 765 l 418 126 q 421 79 418 102 q 429 38 424 60 q 443 -1 433 16 l 204 -1 q 220 39 215 17 q 228 81 225 61 q 232 126 231 104 l 232 765 l 131 765 q 85 761 107 765 q 46 751 65 758 q 16 733 26 745 m 77 1115 l 146 1157 l 322 1079 l 500 1157 l 570 1115 l 322 972 l 77 1115 z "},"Ů":{"ha":715,"x_min":35,"x_max":677,"o":"m 35 928 l 260 928 q 250 885 253 905 q 244 850 248 865 q 241 814 241 831 l 241 307 q 265 205 241 246 q 357 164 289 164 q 475 304 475 164 l 475 814 q 472 851 475 832 q 465 888 469 868 q 453 928 461 908 l 677 928 q 668 885 671 905 q 663 850 665 865 q 660 814 660 831 l 660 304 q 582 75 660 159 q 357 -9 504 -9 q 130 73 204 -9 q 56 302 56 155 l 56 814 q 53 850 56 832 q 46 885 50 865 q 35 928 41 905 m 275 1055 q 300 1114 275 1091 q 359 1136 326 1136 q 416 1111 393 1136 q 440 1054 440 1086 q 416 996 440 1021 q 358 972 391 972 q 298 996 322 972 q 275 1055 275 1019 m 329 1053 q 337 1034 329 1042 q 357 1026 346 1026 q 376 1035 368 1026 q 385 1054 385 1043 q 376 1074 385 1065 q 357 1083 368 1083 q 337 1074 345 1083 q 329 1053 329 1065 z "},"ů":{"ha":715,"x_min":35,"x_max":677,"o":"m 35 928 l 260 928 q 250 885 253 905 q 244 850 248 865 q 241 814 241 831 l 241 307 q 265 205 241 246 q 357 164 289 164 q 475 304 475 164 l 475 814 q 472 851 475 832 q 465 888 469 868 q 453 928 461 908 l 677 928 q 668 885 671 905 q 663 850 665 865 q 660 814 660 831 l 660 304 q 582 75 660 159 q 357 -9 504 -9 q 130 73 204 -9 q 56 302 56 155 l 56 814 q 53 850 56 832 q 46 885 50 865 q 35 928 41 905 m 275 1055 q 300 1114 275 1091 q 359 1136 326 1136 q 416 1111 393 1136 q 440 1054 440 1086 q 416 996 440 1021 q 358 972 391 972 q 298 996 322 972 q 275 1055 275 1019 m 329 1053 q 337 1034 329 1042 q 357 1026 346 1026 q 376 1035 368 1026 q 385 1054 385 1043 q 376 1074 385 1065 q 357 1083 368 1083 q 337 1074 345 1083 q 329 1053 329 1065 z "},"Ű":{"ha":715,"x_min":35,"x_max":688,"o":"m 35 928 l 260 928 q 250 885 253 905 q 244 850 248 865 q 241 814 241 831 l 241 307 q 265 205 241 246 q 357 164 289 164 q 475 304 475 164 l 475 814 q 472 851 475 832 q 465 888 469 868 q 453 928 461 908 l 677 928 q 668 885 671 905 q 663 850 665 865 q 660 814 660 831 l 660 304 q 582 75 660 159 q 357 -9 504 -9 q 130 73 204 -9 q 56 302 56 155 l 56 814 q 53 850 56 832 q 46 885 50 865 q 35 928 41 905 m 69 1017 l 338 1171 l 394 1076 l 134 978 l 69 1017 m 363 1017 l 633 1171 l 688 1076 l 429 978 l 363 1017 z "},"ű":{"ha":715,"x_min":35,"x_max":688,"o":"m 35 928 l 260 928 q 250 885 253 905 q 244 850 248 865 q 241 814 241 831 l 241 307 q 265 205 241 246 q 357 164 289 164 q 475 304 475 164 l 475 814 q 472 851 475 832 q 465 888 469 868 q 453 928 461 908 l 677 928 q 668 885 671 905 q 663 850 665 865 q 660 814 660 831 l 660 304 q 582 75 660 159 q 357 -9 504 -9 q 130 73 204 -9 q 56 302 56 155 l 56 814 q 53 850 56 832 q 46 885 50 865 q 35 928 41 905 m 69 1017 l 338 1171 l 394 1076 l 134 978 l 69 1017 m 363 1017 l 633 1171 l 688 1076 l 429 978 l 363 1017 z "},"Ÿ":{"ha":757,"x_min":11,"x_max":745,"o":"m 11 928 l 264 928 q 260 901 260 916 q 261 880 260 890 q 265 863 262 869 q 271 846 268 853 l 392 555 l 514 846 l 518 859 q 522 873 521 865 q 524 892 524 880 q 522 909 524 900 q 517 928 521 918 l 745 928 q 724 900 734 916 q 707 872 714 885 q 690 842 699 857 l 481 366 l 481 126 q 484 79 481 102 q 491 38 486 60 q 505 -1 496 16 l 267 -1 q 282 39 276 17 q 290 81 288 61 q 293 126 293 104 l 293 366 l 71 842 q 50 880 61 863 q 30 910 41 896 q 11 928 20 924 m 208 1054 q 231 1109 208 1086 q 286 1133 253 1133 q 340 1112 318 1133 q 363 1058 363 1090 q 339 1002 363 1023 q 282 981 315 981 q 231 1003 253 981 q 208 1054 208 1025 m 421 1054 q 443 1109 421 1086 q 498 1133 465 1133 q 553 1112 530 1133 q 575 1058 575 1090 q 551 1002 575 1023 q 494 981 528 981 q 444 1003 467 981 q 421 1054 421 1025 z "},"Ź":{"ha":635,"x_min":40,"x_max":597,"o":"m 40 147 l 390 772 l 160 772 q 126 768 143 772 q 92 757 111 766 q 56 734 74 749 l 82 925 l 553 925 l 597 786 l 248 158 l 482 158 q 517 161 500 157 q 549 170 532 164 q 581 186 566 175 l 554 -1 l 65 -1 l 40 147 m 205 1017 l 475 1171 l 530 1076 l 271 978 l 205 1017 z "},"ź":{"ha":635,"x_min":40,"x_max":597,"o":"m 40 147 l 390 772 l 160 772 q 126 768 143 772 q 92 757 111 766 q 56 734 74 749 l 82 925 l 553 925 l 597 786 l 248 158 l 482 158 q 517 161 500 157 q 549 170 532 164 q 581 186 566 175 l 554 -1 l 65 -1 l 40 147 m 205 1017 l 475 1171 l 530 1076 l 271 978 l 205 1017 z "},"Ż":{"ha":635,"x_min":40,"x_max":597,"o":"m 40 147 l 390 772 l 160 772 q 126 768 143 772 q 92 757 111 766 q 56 734 74 749 l 82 925 l 553 925 l 597 786 l 248 158 l 482 158 q 517 161 500 157 q 549 170 532 164 q 581 186 566 175 l 554 -1 l 65 -1 l 40 147 m 231 978 l 231 1126 l 382 1126 l 382 978 l 231 978 z "},"ż":{"ha":635,"x_min":40,"x_max":597,"o":"m 40 147 l 390 772 l 160 772 q 126 768 143 772 q 92 757 111 766 q 56 734 74 749 l 82 925 l 553 925 l 597 786 l 248 158 l 482 158 q 517 161 500 157 q 549 170 532 164 q 581 186 566 175 l 554 -1 l 65 -1 l 40 147 m 231 978 l 231 1126 l 382 1126 l 382 978 l 231 978 z "},"Ž":{"ha":635,"x_min":40,"x_max":597,"o":"m 40 147 l 390 772 l 160 772 q 126 768 143 772 q 92 757 111 766 q 56 734 74 749 l 82 925 l 553 925 l 597 786 l 248 158 l 482 158 q 517 161 500 157 q 549 170 532 164 q 581 186 566 175 l 554 -1 l 65 -1 l 40 147 m 69 1115 l 138 1157 l 314 1079 l 492 1157 l 562 1115 l 314 972 l 69 1115 z "},"ž":{"ha":635,"x_min":40,"x_max":597,"o":"m 40 147 l 390 772 l 160 772 q 126 768 143 772 q 92 757 111 766 q 56 734 74 749 l 82 925 l 553 925 l 597 786 l 248 158 l 482 158 q 517 161 500 157 q 549 170 532 164 q 581 186 566 175 l 554 -1 l 65 -1 l 40 147 m 69 1115 l 138 1157 l 314 1079 l 492 1157 l 562 1115 l 314 972 l 69 1115 z "},"ƒ":{"ha":762,"x_min":3,"x_max":760,"o":"m 3 -107 l 115 -18 q 180 -62 140 -63 q 225 -45 207 -62 q 256 4 244 -28 q 272 75 267 36 q 285 153 278 114 l 347 596 l 254 596 l 268 693 l 361 693 l 366 724 q 385 837 372 781 q 429 937 397 893 q 508 1003 461 982 q 603 1023 555 1023 q 683 1012 643 1023 q 760 972 724 1000 l 660 868 q 610 896 639 896 q 569 880 585 896 q 544 840 553 864 q 530 786 534 815 q 522 729 525 757 q 520 711 522 726 q 518 693 518 696 l 614 693 l 600 596 l 504 596 l 437 143 q 417 22 428 78 q 374 -82 406 -33 q 288 -163 340 -135 q 179 -192 236 -192 q 84 -170 127 -192 q 3 -107 41 -147 z "},"ˆ":{"ha":543,"x_min":14,"x_max":529,"o":"m 14 823 l 269 974 l 529 823 l 456 781 l 269 861 l 85 781 l 14 823 z "},"ˇ":{"ha":517,"x_min":12,"x_max":505,"o":"m 12 905 l 81 947 l 257 869 l 435 947 l 505 905 l 257 762 l 12 905 z "},"˘":{"ha":536,"x_min":26,"x_max":510,"o":"m 26 878 l 102 911 q 172 848 128 863 q 268 832 215 832 q 363 848 319 832 q 435 911 407 864 l 510 878 q 415 760 474 794 q 268 725 357 725 q 120 760 178 725 q 26 878 62 794 z "},"˚":{"ha":222,"x_min":29,"x_max":195,"o":"m 29 821 q 55 879 29 857 q 114 901 81 901 q 171 876 147 901 q 195 819 195 851 q 170 762 195 786 q 113 737 146 737 q 53 761 77 737 q 29 821 29 785 m 83 818 q 92 799 83 807 q 111 791 100 791 q 131 800 122 791 q 139 819 139 808 q 131 839 139 830 q 111 848 122 848 q 91 840 99 848 q 83 818 83 831 z "},"˜":{"ha":465,"x_min":39,"x_max":428,"o":"m 39 758 l 64 857 q 105 872 83 867 q 149 878 126 878 q 201 872 175 878 q 250 860 227 867 q 286 849 269 854 q 322 844 302 844 q 376 855 347 844 q 428 876 406 865 l 397 779 q 319 758 363 758 q 233 773 275 758 q 146 787 191 787 q 90 779 115 787 q 39 758 65 771 z "},"˝":{"ha":672,"x_min":3,"x_max":664,"o":"m 3 766 l 272 921 l 328 825 l 68 728 l 3 766 m 339 766 l 608 921 l 664 825 l 404 728 l 339 766 z "},"΄":{"ha":336,"x_min":3,"x_max":328,"o":"m 3 766 l 272 921 l 328 825 l 68 728 l 3 766 z "},"΅":{"ha":447,"x_min":-20,"x_max":469,"o":"m -20 817 q 2 872 -20 848 q 58 896 24 896 q 112 874 90 896 q 134 821 134 852 q 111 765 134 786 q 54 743 87 743 q 2 765 24 743 q -20 817 -20 787 m 163 717 l 193 948 l 309 948 l 236 717 l 163 717 m 315 817 q 337 872 315 848 q 392 896 359 896 q 446 874 424 896 q 469 821 469 852 q 445 765 469 786 q 388 743 421 743 q 337 765 360 743 q 315 817 315 787 z "},"Ά":{"ha":761,"x_min":16,"x_max":750,"o":"m 16 0 q 36 40 26 18 q 52 81 45 61 q 66 126 60 103 l 240 817 q 243 835 241 825 q 245 854 244 843 q 245 876 245 865 q 244 905 245 892 q 237 929 243 918 l 517 929 q 510 904 511 918 q 509 873 509 889 q 509 857 509 864 q 510 843 509 850 q 511 831 510 836 q 535 739 521 791 q 564 631 549 688 q 594 514 579 574 q 625 399 610 454 q 697 126 660 267 q 714 78 705 101 q 731 37 721 58 q 750 0 741 16 l 522 0 q 526 31 526 14 q 525 51 526 41 q 522 66 524 60 q 519 82 521 75 q 514 104 518 87 q 505 147 511 120 q 488 222 498 174 l 258 222 q 254 199 258 220 q 243 153 249 179 q 233 103 237 127 q 227 65 228 78 q 225 58 225 62 q 224 50 224 56 q 224 39 224 45 q 225 19 224 29 q 231 0 227 9 l 16 0 m 294 376 l 454 376 l 372 708 l 294 376 z "},"Έ":{"ha":570,"x_min":39,"x_max":532,"o":"m 39 0 q 51 33 47 14 q 58 71 56 53 q 61 114 61 92 l 61 812 q 58 859 61 836 q 52 897 56 878 q 40 928 47 916 l 501 928 l 532 730 q 493 752 512 744 q 460 764 475 761 q 427 768 441 768 l 248 768 l 248 559 l 372 559 q 408 564 391 559 q 442 573 424 566 q 476 590 460 579 l 476 374 q 441 390 459 385 q 408 399 424 396 q 372 403 390 403 l 248 403 l 248 165 l 431 165 q 465 168 449 164 q 497 176 481 171 q 529 193 514 182 l 501 0 l 39 0 z "},"Ή":{"ha":769,"x_min":45,"x_max":720,"o":"m 45 0 q 54 36 52 17 q 58 74 56 56 q 61 114 60 94 l 61 814 q 58 854 60 833 q 54 893 56 873 q 45 929 52 913 l 268 929 q 256 892 260 912 q 250 854 253 872 q 248 814 248 833 l 248 570 l 513 570 l 513 814 q 510 854 511 833 q 505 893 507 873 q 496 929 503 913 l 718 929 q 708 893 711 912 q 701 856 704 873 q 699 814 699 835 l 699 114 q 701 74 699 93 q 708 37 704 57 q 720 0 711 17 l 496 0 q 505 36 503 17 q 510 74 507 56 q 513 114 511 94 l 513 386 l 248 386 l 248 114 q 250 74 248 93 q 257 37 253 57 q 269 0 261 17 l 45 0 z "},"Ί":{"ha":300,"x_min":31,"x_max":267,"o":"m 31 0 q 46 40 40 18 q 54 82 52 62 q 57 127 57 106 l 57 798 q 54 843 57 820 q 46 885 52 863 q 31 928 40 908 l 267 928 q 253 887 257 909 q 245 844 249 864 q 243 798 243 821 l 243 127 q 245 81 243 104 q 253 39 248 61 q 267 0 257 17 l 31 0 z "},"Ό":{"ha":830,"x_min":29,"x_max":802,"o":"m 29 469 q 59 655 29 569 q 142 805 89 742 q 268 904 196 868 q 425 940 340 940 q 591 898 521 940 q 708 788 661 856 q 779 636 755 721 q 802 467 802 551 q 777 294 802 380 q 704 139 753 208 q 583 27 656 71 q 412 -16 510 -16 q 245 28 317 -16 q 126 142 174 72 q 54 298 78 212 q 29 469 29 385 m 221 471 q 231 374 221 428 q 266 272 241 319 q 329 191 290 224 q 421 158 367 158 q 504 183 469 158 q 563 249 539 208 q 598 341 586 290 q 611 447 611 393 q 601 545 611 490 q 567 649 590 600 q 506 732 545 699 q 414 766 468 766 q 321 736 358 766 q 262 662 285 707 q 231 567 240 618 q 221 471 221 515 z "},"Ύ":{"ha":757,"x_min":11,"x_max":745,"o":"m 11 928 l 264 928 q 260 901 260 916 q 261 880 260 890 q 265 863 262 869 q 271 846 268 853 l 392 555 l 514 846 l 518 859 q 522 873 521 865 q 524 892 524 880 q 522 909 524 900 q 517 928 521 918 l 745 928 q 724 900 734 916 q 707 872 714 885 q 690 842 699 857 l 481 366 l 481 126 q 484 79 481 102 q 491 38 486 60 q 505 -1 496 16 l 267 -1 q 282 39 276 17 q 290 81 288 61 q 293 126 293 104 l 293 366 l 71 842 q 50 880 61 863 q 30 910 41 896 q 11 928 20 924 z "},"Ώ":{"ha":1086,"x_min":28,"x_max":1029,"o":"m 28 201 q 45 190 37 195 q 61 182 53 186 l 94 174 q 110 171 102 172 q 129 171 119 171 l 245 171 l 245 176 q 185 233 215 199 q 131 310 155 267 q 92 406 107 353 q 77 521 77 458 q 111 691 77 611 q 205 830 144 770 q 351 923 266 889 q 538 958 435 958 q 670 941 610 958 q 781 896 731 925 q 868 828 830 867 q 931 741 905 788 q 970 643 957 694 q 983 537 983 591 q 967 413 983 469 q 925 312 951 357 q 870 233 900 267 q 812 176 840 199 l 812 171 l 929 171 q 948 171 939 171 q 964 174 956 172 l 997 182 q 1013 190 1005 186 q 1029 201 1021 195 l 1002 11 l 1000 11 l 590 11 l 590 136 q 656 198 625 162 q 711 278 688 233 q 749 377 735 323 q 764 494 764 431 q 748 606 764 553 q 702 701 732 660 q 630 765 673 741 q 533 789 587 789 q 435 766 479 789 q 360 703 391 743 q 311 609 328 663 q 294 494 294 555 q 309 382 294 437 q 347 280 323 328 q 404 195 372 233 q 473 136 437 158 l 473 11 l 61 11 l 56 11 l 28 201 z "},"ΐ":{"ha":300,"x_min":31,"x_max":267,"o":"m 31 0 q 46 40 40 18 q 54 82 52 62 q 57 127 57 106 l 57 798 q 54 843 57 820 q 46 885 52 863 q 31 928 40 908 l 267 928 q 253 887 257 909 q 245 844 249 864 q 243 798 243 821 l 243 127 q 245 81 243 104 q 253 39 248 61 q 267 0 257 17 l 31 0 z "},"Α":{"ha":761,"x_min":16,"x_max":750,"o":"m 16 0 q 36 40 26 18 q 52 81 45 61 q 66 126 60 103 l 240 817 q 243 835 241 825 q 245 854 244 843 q 245 876 245 865 q 244 905 245 892 q 237 929 243 918 l 517 929 q 510 904 511 918 q 509 873 509 889 q 509 857 509 864 q 510 843 509 850 q 511 831 510 836 q 535 739 521 791 q 564 631 549 688 q 594 514 579 574 q 625 399 610 454 q 697 126 660 267 q 714 78 705 101 q 731 37 721 58 q 750 0 741 16 l 522 0 q 526 31 526 14 q 525 51 526 41 q 522 66 524 60 q 519 82 521 75 q 514 104 518 87 q 505 147 511 120 q 488 222 498 174 l 258 222 q 254 199 258 220 q 243 153 249 179 q 233 103 237 127 q 227 65 228 78 q 225 58 225 62 q 224 50 224 56 q 224 39 224 45 q 225 19 224 29 q 231 0 227 9 l 16 0 m 294 376 l 454 376 l 372 708 l 294 376 z "},"Β":{"ha":655,"x_min":40,"x_max":628,"o":"m 40 929 l 349 929 q 441 915 399 929 q 515 873 484 901 q 564 805 546 846 q 582 711 582 764 q 549 583 582 637 q 450 498 517 528 q 582 421 535 480 q 628 285 628 361 q 604 159 628 213 q 537 70 579 106 q 436 17 494 35 q 311 0 378 0 l 41 0 q 53 37 48 17 q 60 75 57 57 q 62 115 62 96 l 62 815 q 60 850 62 832 q 53 886 57 865 q 40 929 49 907 m 245 149 l 317 150 q 360 158 339 150 q 399 183 382 167 q 427 227 416 200 q 437 292 437 254 q 430 331 437 310 q 406 369 422 351 q 367 399 390 387 q 315 411 345 411 l 245 411 l 245 149 m 248 561 l 300 561 q 374 596 349 561 q 400 689 400 632 q 394 729 400 709 q 375 765 387 749 q 342 791 363 781 q 301 799 325 800 q 294 799 298 799 l 248 798 l 248 561 z "},"Γ":{"ha":596,"x_min":23,"x_max":583,"o":"m 23 925 l 555 925 l 583 733 q 552 749 569 745 q 519 757 534 753 q 485 759 503 759 l 237 759 l 237 104 q 238 84 237 94 q 241 64 239 75 q 244 49 242 57 q 249 31 246 41 q 255 14 252 22 q 261 -1 258 7 l 24 -1 q 32 13 28 5 q 37 31 35 21 q 41 50 39 40 q 44 68 43 59 q 46 92 45 80 q 47 115 47 103 l 47 810 q 46 832 47 821 q 44 853 45 842 q 36 891 41 871 q 30 909 33 901 q 23 925 26 918 z "},"Δ":{"ha":1093,"x_min":51,"x_max":1038,"o":"m 51 142 l 498 942 l 633 892 l 1038 142 l 1013 -1 l 75 -1 l 51 142 m 257 159 l 836 161 l 545 706 l 257 159 z "},"Ε":{"ha":570,"x_min":39,"x_max":532,"o":"m 39 0 q 51 33 47 14 q 58 71 56 53 q 61 114 61 92 l 61 812 q 58 859 61 836 q 52 897 56 878 q 40 928 47 916 l 501 928 l 532 730 q 493 752 512 744 q 460 764 475 761 q 427 768 441 768 l 248 768 l 248 559 l 372 559 q 408 564 391 559 q 442 573 424 566 q 476 590 460 579 l 476 374 q 441 390 459 385 q 408 399 424 396 q 372 403 390 403 l 248 403 l 248 165 l 431 165 q 465 168 449 164 q 497 176 481 171 q 529 193 514 182 l 501 0 l 39 0 z "},"Ζ":{"ha":635,"x_min":40,"x_max":597,"o":"m 40 147 l 390 772 l 160 772 q 126 768 143 772 q 92 757 111 766 q 56 734 74 749 l 82 925 l 553 925 l 597 786 l 248 158 l 482 158 q 517 161 500 157 q 549 170 532 164 q 581 186 566 175 l 554 -1 l 65 -1 l 40 147 z "},"Η":{"ha":757,"x_min":41,"x_max":717,"o":"m 41 0 q 51 36 48 17 q 56 74 53 56 q 58 114 57 94 l 58 814 q 56 854 57 833 q 51 893 53 873 q 41 929 49 913 l 265 929 q 254 892 257 912 q 248 854 250 872 q 244 814 245 833 l 244 570 l 510 570 l 510 814 q 507 854 509 833 q 502 893 505 873 q 493 929 500 913 l 715 929 q 705 893 709 912 q 699 856 701 873 q 696 814 696 835 l 696 114 q 699 74 696 93 q 705 37 701 57 q 717 0 708 17 l 493 0 q 502 36 500 17 q 507 74 504 56 q 510 114 509 94 l 510 386 l 244 386 l 244 114 q 248 74 244 93 q 254 37 250 57 q 267 0 258 17 l 41 0 z "},"Θ":{"ha":872,"x_min":28,"x_max":842,"o":"m 28 418 q 57 594 28 513 q 140 734 86 675 q 270 827 194 793 q 440 861 347 861 q 613 827 538 861 q 739 734 688 793 q 816 599 789 676 q 842 434 842 522 q 812 248 842 330 q 727 107 782 165 q 596 20 673 50 q 427 -11 519 -11 q 259 22 333 -11 q 133 114 184 56 q 55 250 82 172 q 28 418 28 328 m 229 424 q 243 312 229 363 q 283 222 257 260 q 348 162 310 184 q 435 140 387 140 q 523 162 485 140 q 587 222 561 184 q 627 312 613 260 q 640 427 640 365 q 627 535 640 484 q 587 625 613 587 q 523 687 562 664 q 435 709 485 709 q 347 687 386 709 q 282 626 309 665 q 242 535 256 587 q 229 424 229 483 m 302 341 l 302 526 q 319 522 311 524 q 334 517 327 519 q 349 514 342 515 q 362 511 356 513 q 374 510 367 511 l 494 510 q 500 511 497 511 q 506 511 503 511 q 534 517 519 513 q 550 522 541 519 q 567 526 558 524 l 567 341 q 534 349 548 347 q 519 351 526 350 q 506 354 512 353 q 494 355 500 355 q 481 356 488 355 l 386 356 q 374 355 380 355 q 362 354 368 355 q 349 351 356 353 q 334 349 342 350 q 319 346 327 347 q 302 341 311 344 z "},"Ι":{"ha":300,"x_min":31,"x_max":267,"o":"m 31 0 q 46 40 40 18 q 54 82 52 62 q 57 127 57 106 l 57 798 q 54 843 57 820 q 46 885 52 863 q 31 928 40 908 l 267 928 q 253 887 257 909 q 245 844 249 864 q 243 798 243 821 l 243 127 q 245 81 243 104 q 253 39 248 61 q 267 0 257 17 l 31 0 z "},"Κ":{"ha":734,"x_min":40,"x_max":710,"o":"m 40 0 q 53 36 48 16 q 60 74 57 56 q 62 115 62 95 l 62 812 q 60 852 62 832 q 53 891 57 871 q 41 928 49 911 l 269 928 q 257 886 261 907 q 250 848 253 865 q 248 812 248 829 l 248 555 q 260 577 252 561 q 282 614 269 593 q 308 662 294 636 q 336 713 322 688 q 408 846 370 772 q 421 869 415 855 q 432 895 427 880 q 443 928 437 909 l 686 928 q 650 893 669 914 q 615 852 631 872 q 578 806 595 829 l 396 505 l 623 118 q 648 78 633 98 q 675 40 659 60 q 710 0 692 20 l 478 0 l 248 410 l 248 115 q 250 72 248 93 q 257 35 253 54 q 271 0 261 16 l 40 0 z "},"Λ":{"ha":851,"x_min":37,"x_max":824,"o":"m 37 0 q 64 65 50 31 q 76 99 71 83 q 87 130 82 115 q 99 165 94 147 q 111 201 105 182 l 277 832 l 277 833 q 278 842 278 838 q 280 852 279 847 q 280 863 280 858 q 281 873 281 868 q 279 901 281 888 q 275 913 277 907 q 270 924 273 919 l 340 924 l 517 924 l 557 924 q 551 900 553 914 q 549 885 549 892 q 548 871 548 878 q 548 863 548 867 q 549 856 549 859 q 550 848 550 852 q 550 842 550 845 q 551 836 551 838 q 551 829 551 833 l 742 206 q 770 125 755 164 q 783 90 777 107 q 798 55 790 73 q 812 23 805 37 q 824 0 819 9 l 562 0 l 562 3 q 561 39 562 21 q 556 74 559 56 q 544 136 551 108 q 536 167 541 152 q 528 197 532 182 l 412 668 l 313 201 q 305 167 309 184 q 297 134 300 150 q 290 102 293 118 q 283 68 286 85 q 278 33 279 50 q 275 0 276 16 l 37 0 z "},"Μ":{"ha":871,"x_min":41,"x_max":829,"o":"m 41 929 l 218 929 l 440 521 l 653 929 l 829 929 q 818 892 821 912 q 811 854 814 872 q 808 814 808 833 l 808 114 q 811 75 808 94 q 817 39 814 58 q 829 0 821 20 l 608 0 q 620 35 615 16 q 627 72 624 54 q 629 114 629 93 l 629 549 l 435 191 l 236 545 l 236 114 q 239 75 236 94 q 246 38 241 58 q 258 0 250 18 l 43 0 q 55 36 51 17 q 62 74 60 56 q 65 114 65 94 l 65 814 q 62 859 65 836 q 55 896 60 877 q 41 929 50 916 z "},"Ν":{"ha":696,"x_min":41,"x_max":654,"o":"m 41 928 l 229 928 l 473 395 l 473 811 q 471 854 473 832 q 463 893 468 873 q 450 928 458 913 l 654 928 q 643 890 646 909 q 636 852 639 871 q 633 811 633 831 l 633 113 q 636 75 633 94 q 642 38 639 58 q 654 0 646 18 l 484 0 l 225 553 l 227 113 q 229 74 227 93 q 236 37 232 57 q 249 0 240 17 l 43 0 q 55 36 51 16 q 62 72 60 56 q 65 113 65 92 l 65 811 q 62 854 65 832 q 55 893 60 873 q 41 928 50 913 z "},"Ξ":{"ha":705,"x_min":24,"x_max":675,"o":"m 24 -22 l 24 191 q 60 177 41 181 q 79 172 70 174 q 97 170 87 171 q 118 168 107 168 q 138 167 128 167 l 558 167 q 578 168 568 167 q 598 170 589 168 q 617 172 608 171 q 637 177 627 174 q 656 182 647 179 q 675 191 665 186 l 675 -22 q 637 -9 659 -12 q 618 -6 627 -8 q 600 -2 609 -3 q 558 0 578 0 l 138 0 q 96 -2 116 0 q 77 -5 86 -3 q 59 -9 68 -7 q 40 -14 49 -11 q 24 -22 31 -17 m 39 722 l 39 923 q 73 910 55 915 q 91 906 83 907 q 109 903 100 904 q 129 901 119 901 q 148 900 138 900 l 548 900 q 567 901 557 900 q 587 903 577 901 q 623 910 603 905 q 660 923 644 916 l 660 722 q 624 732 644 729 q 606 736 614 734 q 588 739 597 738 q 548 741 568 741 l 148 741 q 108 739 127 741 q 90 736 99 738 q 73 732 81 735 q 39 722 52 729 m 109 361 l 109 564 q 144 551 125 555 q 161 547 153 548 q 178 544 170 545 q 198 541 189 542 q 218 541 208 541 l 479 541 q 498 541 488 541 q 517 544 508 542 q 553 551 536 546 q 572 556 563 553 q 590 564 581 559 l 590 361 q 573 369 582 366 q 555 374 564 371 q 536 377 545 375 q 519 380 527 378 q 479 382 497 382 l 218 382 q 178 380 197 382 q 141 374 160 378 q 124 369 132 372 q 109 361 116 366 z "},"Ο":{"ha":830,"x_min":29,"x_max":802,"o":"m 29 469 q 59 655 29 569 q 142 805 89 742 q 268 904 196 868 q 425 940 340 940 q 591 898 521 940 q 708 788 661 856 q 779 636 755 721 q 802 467 802 551 q 777 294 802 380 q 704 139 753 208 q 583 27 656 71 q 412 -16 510 -16 q 245 28 317 -16 q 126 142 174 72 q 54 298 78 212 q 29 469 29 385 m 221 471 q 231 374 221 428 q 266 272 241 319 q 329 191 290 224 q 421 158 367 158 q 504 183 469 158 q 563 249 539 208 q 598 341 586 290 q 611 447 611 393 q 601 545 611 490 q 567 649 590 600 q 506 732 545 699 q 414 766 468 766 q 321 736 358 766 q 262 662 285 707 q 231 567 240 618 q 221 471 221 515 z "},"Π":{"ha":812,"x_min":40,"x_max":770,"o":"m 40 928 l 770 928 q 762 909 766 919 q 758 889 759 900 q 754 869 755 879 q 751 850 752 859 q 749 828 749 839 q 748 808 748 818 l 748 119 q 749 99 748 109 q 751 79 749 89 q 754 61 752 70 q 757 41 755 52 q 770 1 761 20 l 532 1 q 538 18 536 9 q 544 37 541 27 q 548 57 546 47 q 551 75 549 66 q 553 97 552 87 q 554 119 554 108 l 554 741 l 249 741 l 249 119 q 250 99 249 109 q 252 79 250 89 q 255 60 253 70 q 259 41 257 51 q 265 20 262 30 q 273 1 268 10 l 41 1 q 54 39 50 20 q 58 58 56 49 q 61 77 60 68 q 63 98 62 88 q 64 119 64 109 l 64 808 q 63 831 64 819 q 61 854 62 843 q 53 893 58 873 q 40 928 47 915 z "},"Ρ":{"ha":630,"x_min":41,"x_max":624,"o":"m 41 926 l 358 926 q 456 908 408 926 q 542 853 504 890 q 602 758 579 815 q 624 621 624 700 q 598 486 624 543 q 531 392 572 429 q 438 337 490 355 q 332 319 386 319 l 249 319 l 249 113 q 252 72 249 93 q 257 34 254 54 q 267 -1 260 14 l 43 -1 q 54 35 50 16 q 61 72 58 54 q 64 113 64 92 l 64 812 q 61 847 64 829 q 54 883 58 863 q 41 926 50 904 m 249 467 l 314 467 q 358 475 336 467 q 398 502 380 484 q 426 549 415 519 q 437 619 437 578 q 432 674 437 646 q 413 726 427 703 q 377 765 399 750 q 323 781 355 781 l 249 781 l 249 467 z "},"Σ":{"ha":717,"x_min":31,"x_max":681,"o":"m 31 1 l 31 171 l 274 479 l 31 778 l 31 947 q 47 941 39 944 q 66 936 56 937 q 84 933 75 935 q 102 930 94 931 q 122 928 112 928 q 141 927 132 927 l 571 927 q 590 928 581 927 q 608 930 599 928 q 643 936 625 932 q 662 940 652 937 q 681 947 671 943 l 681 735 q 648 745 667 741 q 629 750 638 748 q 612 753 620 751 q 571 755 591 755 l 262 755 l 481 473 l 267 188 l 571 188 q 608 190 590 188 q 626 193 616 191 q 644 197 635 195 q 681 209 663 201 l 681 3 q 646 14 663 11 q 610 20 627 18 q 591 23 600 22 q 571 24 581 24 l 141 24 q 120 23 130 24 q 98 20 109 22 q 80 17 89 19 q 62 14 71 16 q 31 1 42 8 z "},"Τ":{"ha":648,"x_min":16,"x_max":632,"o":"m 16 733 l 45 926 l 604 926 l 632 733 q 602 751 621 744 q 562 761 582 758 q 517 765 540 765 l 416 765 l 418 126 q 421 79 418 102 q 429 38 424 60 q 443 -1 433 16 l 204 -1 q 220 39 215 17 q 228 81 225 61 q 232 126 231 104 l 232 765 l 131 765 q 85 761 107 765 q 46 751 65 758 q 16 733 26 745 z "},"Υ":{"ha":757,"x_min":11,"x_max":745,"o":"m 11 928 l 264 928 q 260 901 260 916 q 261 880 260 890 q 265 863 262 869 q 271 846 268 853 l 392 555 l 514 846 l 518 859 q 522 873 521 865 q 524 892 524 880 q 522 909 524 900 q 517 928 521 918 l 745 928 q 724 900 734 916 q 707 872 714 885 q 690 842 699 857 l 481 366 l 481 126 q 484 79 481 102 q 491 38 486 60 q 505 -1 496 16 l 267 -1 q 282 39 276 17 q 290 81 288 61 q 293 126 293 104 l 293 366 l 71 842 q 50 880 61 863 q 30 910 41 896 q 11 928 20 924 z "},"Φ":{"ha":1000,"x_min":54,"x_max":951,"o":"m 54 455 q 69 569 54 517 q 110 663 84 621 q 171 738 136 705 q 245 793 205 770 q 327 831 285 817 q 409 850 368 845 q 407 862 408 856 q 404 873 406 867 q 397 896 401 885 q 389 916 394 906 l 414 916 l 592 916 l 614 916 q 606 896 609 906 q 601 875 602 886 q 597 850 599 861 q 728 814 664 842 q 841 738 791 786 q 921 621 891 690 q 951 462 951 552 q 922 304 951 373 q 842 187 892 236 q 728 110 793 138 q 595 71 664 81 q 597 55 596 62 q 600 37 599 47 q 614 -1 604 16 l 389 -1 q 404 39 398 16 q 410 70 408 56 q 278 105 342 78 q 164 180 214 132 q 84 296 114 227 q 54 455 54 364 m 245 455 q 260 355 245 399 q 299 279 275 311 q 353 229 323 248 q 413 204 383 210 l 413 718 q 354 694 384 712 q 300 644 324 676 q 260 564 275 611 q 245 455 245 517 m 591 204 q 651 227 621 210 q 705 274 681 243 q 745 349 730 304 q 760 456 760 394 q 745 567 760 519 q 706 646 730 614 q 651 695 682 677 q 591 718 621 713 l 591 204 z "},"Χ":{"ha":790,"x_min":35,"x_max":757,"o":"m 35 928 l 281 928 q 278 905 278 914 q 283 871 278 887 q 294 843 288 854 l 404 627 l 507 836 q 517 863 511 848 q 524 887 521 873 q 528 916 528 901 q 526 928 528 924 l 745 928 q 715 891 728 908 q 694 863 703 875 q 679 836 685 847 l 500 478 l 682 115 q 708 69 694 92 q 732 30 719 50 q 757 -1 746 9 l 519 -1 l 519 0 q 515 40 519 21 q 504 75 510 60 q 489 110 497 94 l 385 339 l 296 113 q 281 74 288 93 q 268 37 274 57 q 261 -1 262 17 l 46 -1 q 70 36 58 16 q 92 72 82 56 q 113 113 102 92 l 288 476 l 96 836 q 64 889 80 864 q 35 928 47 914 z "},"Ψ":{"ha":937,"x_min":30,"x_max":896,"o":"m 30 924 l 251 924 q 245 907 248 915 q 241 891 243 899 q 236 863 239 876 q 234 849 235 856 q 233 835 233 842 l 233 753 l 232 753 l 232 660 q 243 558 232 600 q 273 490 254 517 q 318 450 292 463 q 375 435 345 437 l 375 838 q 374 847 374 840 q 371 866 373 857 q 366 886 370 876 q 360 906 363 897 q 353 925 357 916 l 568 925 q 555 887 559 907 q 549 850 551 867 l 549 433 q 604 451 578 435 q 649 499 630 467 q 680 583 669 532 q 692 707 692 633 l 692 852 q 691 858 691 855 q 690 863 691 860 q 684 891 688 873 q 681 907 683 899 q 675 924 678 915 l 896 924 q 890 907 892 915 q 885 891 887 899 q 881 876 883 883 q 878 863 880 869 q 877 856 878 860 q 876 849 876 852 l 876 672 q 850 507 876 577 q 780 390 825 437 q 676 318 736 343 q 550 289 617 293 l 550 62 q 553 49 551 56 q 555 36 554 43 q 568 0 559 15 l 353 0 q 360 18 357 9 q 366 37 363 26 q 371 57 370 47 q 374 75 373 66 q 375 85 374 82 l 375 289 q 251 315 310 293 q 147 379 192 338 q 76 484 102 421 q 49 631 49 546 l 49 855 q 47 863 49 858 q 44 876 46 869 q 41 891 43 883 q 36 907 39 899 q 30 924 33 915 z "},"Ω":{"ha":1086,"x_min":28,"x_max":1029,"o":"m 28 201 q 45 190 37 195 q 61 182 53 186 l 94 174 q 110 171 102 172 q 129 171 119 171 l 245 171 l 245 176 q 185 233 215 199 q 131 310 155 267 q 92 406 107 353 q 77 521 77 458 q 111 691 77 611 q 205 830 144 770 q 351 923 266 889 q 538 958 435 958 q 670 941 610 958 q 781 896 731 925 q 868 828 830 867 q 931 741 905 788 q 970 643 957 694 q 983 537 983 591 q 967 413 983 469 q 925 312 951 357 q 870 233 900 267 q 812 176 840 199 l 812 171 l 929 171 q 948 171 939 171 q 964 174 956 172 l 997 182 q 1013 190 1005 186 q 1029 201 1021 195 l 1002 11 l 1000 11 l 590 11 l 590 136 q 656 198 625 162 q 711 278 688 233 q 749 377 735 323 q 764 494 764 431 q 748 606 764 553 q 702 701 732 660 q 630 765 673 741 q 533 789 587 789 q 435 766 479 789 q 360 703 391 743 q 311 609 328 663 q 294 494 294 555 q 309 382 294 437 q 347 280 323 328 q 404 195 372 233 q 473 136 437 158 l 473 11 l 61 11 l 56 11 l 28 201 z "},"Ϊ":{"ha":300,"x_min":31,"x_max":270,"o":"m 31 0 q 46 38 41 17 q 55 77 52 58 q 58 119 58 98 l 58 741 q 55 784 58 762 q 46 823 52 802 q 31 863 41 844 l 270 863 q 256 825 260 846 q 248 785 252 804 q 245 741 245 763 l 245 119 q 248 75 245 96 q 255 36 251 57 q 270 0 260 16 l 31 0 z "},"Ϋ":{"ha":757,"x_min":11,"x_max":745,"o":"m 11 928 l 264 928 q 260 901 260 916 q 261 880 260 890 q 265 863 262 869 q 271 846 268 853 l 392 555 l 514 846 l 518 859 q 522 873 521 865 q 524 892 524 880 q 522 909 524 900 q 517 928 521 918 l 745 928 q 724 900 734 916 q 707 872 714 885 q 690 842 699 857 l 481 366 l 481 126 q 484 79 481 102 q 491 38 486 60 q 505 -1 496 16 l 267 -1 q 282 39 276 17 q 290 81 288 61 q 293 126 293 104 l 293 366 l 71 842 q 50 880 61 863 q 30 910 41 896 q 11 928 20 924 z "},"ά":{"ha":761,"x_min":16,"x_max":750,"o":"m 16 0 q 36 40 26 18 q 52 81 45 61 q 66 126 60 103 l 240 817 q 243 835 241 825 q 245 854 244 843 q 245 876 245 865 q 244 905 245 892 q 237 929 243 918 l 517 929 q 510 904 511 918 q 509 873 509 889 q 509 857 509 864 q 510 843 509 850 q 511 831 510 836 q 535 739 521 791 q 564 631 549 688 q 594 514 579 574 q 625 399 610 454 q 697 126 660 267 q 714 78 705 101 q 731 37 721 58 q 750 0 741 16 l 522 0 q 526 31 526 14 q 525 51 526 41 q 522 66 524 60 q 519 82 521 75 q 514 104 518 87 q 505 147 511 120 q 488 222 498 174 l 258 222 q 254 199 258 220 q 243 153 249 179 q 233 103 237 127 q 227 65 228 78 q 225 58 225 62 q 224 50 224 56 q 224 39 224 45 q 225 19 224 29 q 231 0 227 9 l 16 0 m 294 376 l 454 376 l 372 708 l 294 376 z "},"έ":{"ha":579,"x_min":41,"x_max":534,"o":"m 41 0 q 54 33 50 14 q 61 71 58 53 q 64 114 64 92 l 64 812 q 61 859 64 836 q 54 897 58 878 q 43 928 50 916 l 504 928 l 534 730 q 496 752 515 744 q 463 764 478 761 q 429 768 444 768 l 250 768 l 250 559 l 375 559 q 411 564 393 559 q 445 573 427 566 q 479 590 463 579 l 479 374 q 445 390 463 385 q 411 399 427 396 q 375 403 393 403 l 250 403 l 250 165 l 433 165 q 468 168 452 164 q 500 176 484 171 q 532 193 517 182 l 504 0 l 41 0 z "},"ή":{"ha":757,"x_min":41,"x_max":717,"o":"m 41 0 q 51 36 48 17 q 56 74 53 56 q 58 114 57 94 l 58 814 q 56 854 57 833 q 51 893 53 873 q 41 929 49 913 l 265 929 q 254 892 257 912 q 248 854 250 872 q 244 814 245 833 l 244 570 l 510 570 l 510 814 q 507 854 509 833 q 502 893 505 873 q 493 929 500 913 l 715 929 q 705 893 709 912 q 699 856 701 873 q 696 814 696 835 l 696 114 q 699 74 696 93 q 705 37 701 57 q 717 0 708 17 l 493 0 q 502 36 500 17 q 507 74 504 56 q 510 114 509 94 l 510 386 l 244 386 l 244 114 q 248 74 244 93 q 254 37 250 57 q 267 0 258 17 l 41 0 z "},"ί":{"ha":699,"x_min":43,"x_max":656,"o":"m 43 928 l 231 928 l 475 395 l 475 811 q 472 854 475 832 q 465 893 469 873 q 452 928 460 913 l 656 928 q 644 890 648 909 q 637 852 640 871 q 635 811 635 831 l 635 113 q 637 75 635 94 q 644 38 640 58 q 656 0 647 18 l 485 0 l 227 553 l 228 113 q 231 74 228 93 q 237 37 233 57 q 250 0 241 17 l 45 0 q 57 36 53 16 q 64 72 61 56 q 66 113 66 92 l 66 811 q 64 854 66 832 q 56 893 61 873 q 43 928 52 913 z "},"ΰ":{"ha":715,"x_min":35,"x_max":677,"o":"m 35 928 l 260 928 q 250 885 253 905 q 244 850 248 865 q 241 814 241 831 l 241 307 q 265 205 241 246 q 357 164 289 164 q 475 304 475 164 l 475 814 q 472 851 475 832 q 465 888 469 868 q 453 928 461 908 l 677 928 q 668 885 671 905 q 663 850 665 865 q 660 814 660 831 l 660 304 q 582 75 660 159 q 357 -9 504 -9 q 130 73 204 -9 q 56 302 56 155 l 56 814 q 53 850 56 832 q 46 885 50 865 q 35 928 41 905 z "},"α":{"ha":761,"x_min":16,"x_max":750,"o":"m 16 0 q 36 40 26 18 q 52 81 45 61 q 66 126 60 103 l 240 817 q 243 835 241 825 q 245 854 244 843 q 245 876 245 865 q 244 905 245 892 q 237 929 243 918 l 517 929 q 510 904 511 918 q 509 873 509 889 q 509 857 509 864 q 510 843 509 850 q 511 831 510 836 q 535 739 521 791 q 564 631 549 688 q 594 514 579 574 q 625 399 610 454 q 697 126 660 267 q 714 78 705 101 q 731 37 721 58 q 750 0 741 16 l 522 0 q 526 31 526 14 q 525 51 526 41 q 522 66 524 60 q 519 82 521 75 q 514 104 518 87 q 505 147 511 120 q 488 222 498 174 l 258 222 q 254 199 258 220 q 243 153 249 179 q 233 103 237 127 q 227 65 228 78 q 225 58 225 62 q 224 50 224 56 q 224 39 224 45 q 225 19 224 29 q 231 0 227 9 l 16 0 m 294 376 l 454 376 l 372 708 l 294 376 z "},"β":{"ha":655,"x_min":40,"x_max":628,"o":"m 40 929 l 349 929 q 441 915 399 929 q 515 873 484 901 q 564 805 546 846 q 582 711 582 764 q 549 583 582 637 q 450 498 517 528 q 582 421 535 480 q 628 285 628 361 q 604 159 628 213 q 537 70 579 106 q 436 17 494 35 q 311 0 378 0 l 41 0 q 53 37 48 17 q 60 75 57 57 q 62 115 62 96 l 62 815 q 60 850 62 832 q 53 886 57 865 q 40 929 49 907 m 245 149 l 317 150 q 360 158 339 150 q 399 183 382 167 q 427 227 416 200 q 437 292 437 254 q 430 331 437 310 q 406 369 422 351 q 367 399 390 387 q 315 411 345 411 l 245 411 l 245 149 m 248 561 l 300 561 q 374 596 349 561 q 400 689 400 632 q 394 729 400 709 q 375 765 387 749 q 342 791 363 781 q 301 799 325 800 q 294 799 298 799 l 248 798 l 248 561 z "},"γ":{"ha":596,"x_min":23,"x_max":583,"o":"m 23 925 l 555 925 l 583 733 q 552 749 569 745 q 519 757 534 753 q 485 759 503 759 l 237 759 l 237 104 q 238 84 237 94 q 241 64 239 75 q 244 49 242 57 q 249 31 246 41 q 255 14 252 22 q 261 -1 258 7 l 24 -1 q 32 13 28 5 q 37 31 35 21 q 41 50 39 40 q 44 68 43 59 q 46 92 45 80 q 47 115 47 103 l 47 810 q 46 832 47 821 q 44 853 45 842 q 36 891 41 871 q 30 909 33 901 q 23 925 26 918 z "},"δ":{"ha":1093,"x_min":51,"x_max":1038,"o":"m 51 142 l 498 939 l 633 890 l 1038 142 l 1013 -1 l 75 -1 l 51 142 m 257 159 l 836 161 l 545 703 l 257 159 z "},"ε":{"ha":570,"x_min":39,"x_max":532,"o":"m 39 0 q 51 33 47 14 q 58 71 56 53 q 61 114 61 92 l 61 812 q 58 859 61 836 q 52 897 56 878 q 40 928 47 916 l 501 928 l 532 730 q 493 752 512 744 q 460 764 475 761 q 427 768 441 768 l 248 768 l 248 559 l 372 559 q 408 564 391 559 q 442 573 424 566 q 476 590 460 579 l 476 374 q 441 390 459 385 q 408 399 424 396 q 372 403 390 403 l 248 403 l 248 165 l 431 165 q 465 168 449 164 q 497 176 481 171 q 529 193 514 182 l 501 0 l 39 0 z "},"ζ":{"ha":635,"x_min":40,"x_max":597,"o":"m 40 147 l 390 772 l 160 772 q 126 768 143 772 q 92 757 111 766 q 56 734 74 749 l 82 925 l 553 925 l 597 786 l 248 158 l 482 158 q 517 161 500 157 q 549 170 532 164 q 581 186 566 175 l 554 -1 l 65 -1 l 40 147 z "},"η":{"ha":757,"x_min":41,"x_max":717,"o":"m 41 0 q 51 36 48 17 q 56 74 53 56 q 58 114 57 94 l 58 814 q 56 854 57 833 q 51 893 53 873 q 41 929 49 913 l 265 929 q 254 892 257 912 q 248 854 250 872 q 244 814 245 833 l 244 570 l 510 570 l 510 814 q 507 854 509 833 q 502 893 505 873 q 493 929 500 913 l 715 929 q 705 893 709 912 q 699 856 701 873 q 696 814 696 835 l 696 114 q 699 74 696 93 q 705 37 701 57 q 717 0 708 17 l 493 0 q 502 36 500 17 q 507 74 504 56 q 510 114 509 94 l 510 386 l 244 386 l 244 114 q 248 74 244 93 q 254 37 250 57 q 267 0 258 17 l 41 0 z "},"θ":{"ha":872,"x_min":28,"x_max":842,"o":"m 28 418 q 57 594 28 513 q 140 734 86 675 q 270 827 194 793 q 440 861 347 861 q 613 827 538 861 q 739 734 688 793 q 816 599 789 676 q 842 434 842 522 q 812 248 842 330 q 727 107 782 165 q 596 20 673 50 q 427 -11 519 -11 q 259 22 333 -11 q 133 114 184 56 q 55 250 82 172 q 28 418 28 328 m 229 424 q 243 312 229 363 q 283 222 257 260 q 348 162 310 184 q 435 140 387 140 q 523 162 485 140 q 587 222 561 184 q 627 312 613 260 q 640 427 640 365 q 627 535 640 484 q 587 625 613 587 q 523 687 562 664 q 435 709 485 709 q 347 687 386 709 q 282 626 309 665 q 242 535 256 587 q 229 424 229 483 m 302 341 l 302 526 q 319 522 311 524 q 334 517 327 519 q 349 514 342 515 q 362 511 356 513 q 374 510 367 511 l 494 510 q 500 511 497 511 q 506 511 503 511 q 534 517 519 513 q 550 522 541 519 q 567 526 558 524 l 567 341 q 534 349 548 347 q 519 351 526 350 q 506 354 512 353 q 494 355 500 355 q 481 356 488 355 l 386 356 q 374 355 380 355 q 362 354 368 355 q 349 351 356 353 q 334 349 342 350 q 319 346 327 347 q 302 341 311 344 z "},"ι":{"ha":300,"x_min":31,"x_max":267,"o":"m 31 0 q 46 40 40 18 q 54 82 52 62 q 57 127 57 106 l 57 798 q 54 843 57 820 q 46 885 52 863 q 31 928 40 908 l 267 928 q 253 887 257 909 q 245 844 249 864 q 243 798 243 821 l 243 127 q 245 81 243 104 q 253 39 248 61 q 267 0 257 17 l 31 0 z "},"κ":{"ha":734,"x_min":40,"x_max":710,"o":"m 40 0 q 53 36 48 16 q 60 74 57 56 q 62 115 62 95 l 62 812 q 60 852 62 832 q 53 891 57 871 q 41 928 49 911 l 269 928 q 257 886 261 907 q 250 848 253 865 q 248 812 248 829 l 248 555 q 260 577 252 561 q 282 614 269 593 q 308 662 294 636 q 336 713 322 688 q 408 846 370 772 q 421 869 415 855 q 432 895 427 880 q 443 928 437 909 l 686 928 q 650 893 669 914 q 615 852 631 872 q 578 806 595 829 l 396 505 l 623 118 q 648 78 633 98 q 675 40 659 60 q 710 0 692 20 l 478 0 l 248 410 l 248 115 q 250 72 248 93 q 257 35 253 54 q 271 0 261 16 l 40 0 z "},"λ":{"ha":851,"x_min":37,"x_max":824,"o":"m 37 0 q 64 65 50 31 q 76 99 71 83 q 87 130 82 115 q 99 165 94 147 q 111 201 105 182 l 277 832 l 277 833 q 278 842 278 838 q 280 852 279 847 q 280 863 280 858 q 281 873 281 868 q 279 901 281 888 q 275 913 277 907 q 270 924 273 919 l 340 924 l 517 924 l 557 924 q 551 900 553 914 q 549 885 549 892 q 548 871 548 878 q 548 863 548 867 q 549 856 549 859 q 550 848 550 852 q 550 842 550 845 q 551 836 551 838 q 551 829 551 833 l 742 206 q 770 125 755 164 q 783 90 777 107 q 798 55 790 73 q 812 23 805 37 q 824 0 819 9 l 562 0 l 562 3 q 561 39 562 21 q 556 74 559 56 q 544 136 551 108 q 536 167 541 152 q 528 197 532 182 l 412 668 l 313 201 q 305 167 309 184 q 297 134 300 150 q 290 102 293 118 q 283 68 286 85 q 278 33 279 50 q 275 0 276 16 l 37 0 z "},"μ":{"ha":871,"x_min":41,"x_max":829,"o":"m 41 929 l 218 929 l 440 521 l 653 929 l 829 929 q 818 892 821 912 q 811 854 814 872 q 808 814 808 833 l 808 114 q 811 75 808 94 q 817 39 814 58 q 829 0 821 20 l 608 0 q 620 35 615 16 q 627 72 624 54 q 629 114 629 93 l 629 549 l 435 191 l 236 545 l 236 114 q 239 75 236 94 q 246 38 241 58 q 258 0 250 18 l 43 0 q 55 36 51 17 q 62 74 60 56 q 65 114 65 94 l 65 814 q 62 859 65 836 q 55 896 60 877 q 41 929 50 916 z "},"ν":{"ha":696,"x_min":41,"x_max":654,"o":"m 41 928 l 229 928 l 473 395 l 473 811 q 471 854 473 832 q 463 893 468 873 q 450 928 458 913 l 654 928 q 643 890 646 909 q 636 852 639 871 q 633 811 633 831 l 633 113 q 636 75 633 94 q 642 38 639 58 q 654 0 646 18 l 484 0 l 225 553 l 227 113 q 229 74 227 93 q 236 37 232 57 q 249 0 240 17 l 43 0 q 55 36 51 16 q 62 72 60 56 q 65 113 65 92 l 65 811 q 62 854 65 832 q 55 893 60 873 q 41 928 50 913 z "},"ξ":{"ha":705,"x_min":24,"x_max":675,"o":"m 24 -22 l 24 191 q 60 177 41 181 q 79 172 70 174 q 97 170 87 171 q 118 168 107 168 q 138 167 128 167 l 558 167 q 578 168 568 167 q 598 170 589 168 q 617 172 608 171 q 637 177 627 174 q 656 182 647 179 q 675 191 665 186 l 675 -22 q 637 -9 659 -12 q 618 -6 627 -8 q 600 -2 609 -3 q 558 0 578 0 l 138 0 q 96 -2 116 0 q 77 -5 86 -3 q 59 -9 68 -7 q 40 -14 49 -11 q 24 -22 31 -17 m 39 722 l 39 923 q 73 910 55 915 q 91 906 83 907 q 109 903 100 904 q 129 901 119 901 q 148 900 138 900 l 548 900 q 567 901 557 900 q 587 903 577 901 q 623 910 603 905 q 660 923 644 916 l 660 722 q 624 732 644 729 q 606 736 614 734 q 588 739 597 738 q 548 741 568 741 l 148 741 q 108 739 127 741 q 90 736 99 738 q 73 732 81 735 q 39 722 52 729 m 109 361 l 109 564 q 144 551 125 555 q 161 547 153 548 q 178 544 170 545 q 198 541 189 542 q 218 541 208 541 l 479 541 q 498 541 488 541 q 517 544 508 542 q 553 551 536 546 q 572 556 563 553 q 590 564 581 559 l 590 361 q 573 369 582 366 q 555 374 564 371 q 536 377 545 375 q 519 380 527 378 q 479 382 497 382 l 218 382 q 178 380 197 382 q 141 374 160 378 q 124 369 132 372 q 109 361 116 366 z "},"ο":{"ha":830,"x_min":29,"x_max":802,"o":"m 29 469 q 59 655 29 569 q 142 805 89 742 q 268 904 196 868 q 425 940 340 940 q 591 898 521 940 q 708 788 661 856 q 779 636 755 721 q 802 467 802 551 q 777 294 802 380 q 704 139 753 208 q 583 27 656 71 q 412 -16 510 -16 q 245 28 317 -16 q 126 142 174 72 q 54 298 78 212 q 29 469 29 385 m 221 471 q 231 374 221 428 q 266 272 241 319 q 329 191 290 224 q 421 158 367 158 q 504 183 469 158 q 563 249 539 208 q 598 341 586 290 q 611 447 611 393 q 601 545 611 490 q 567 649 590 600 q 506 732 545 699 q 414 766 468 766 q 321 736 358 766 q 262 662 285 707 q 231 567 240 618 q 221 471 221 515 z "},"π":{"ha":812,"x_min":40,"x_max":770,"o":"m 40 928 l 770 928 q 762 909 766 919 q 758 889 759 900 q 754 869 755 879 q 751 850 752 859 q 749 828 749 839 q 748 808 748 818 l 748 119 q 749 99 748 109 q 751 79 749 89 q 754 61 752 70 q 757 41 755 52 q 770 1 761 20 l 532 1 q 538 18 536 9 q 544 37 541 27 q 548 57 546 47 q 551 75 549 66 q 553 97 552 87 q 554 119 554 108 l 554 741 l 249 741 l 249 119 q 250 99 249 109 q 252 79 250 89 q 255 60 253 70 q 259 41 257 51 q 265 20 262 30 q 273 1 268 10 l 41 1 q 54 39 50 20 q 58 58 56 49 q 61 77 60 68 q 63 98 62 88 q 64 119 64 109 l 64 808 q 63 831 64 819 q 61 854 62 843 q 53 893 58 873 q 40 928 47 915 z "},"ρ":{"ha":630,"x_min":41,"x_max":624,"o":"m 41 926 l 358 926 q 456 908 408 926 q 542 853 504 890 q 602 758 579 815 q 624 621 624 700 q 598 486 624 543 q 531 392 572 429 q 438 337 490 355 q 332 319 386 319 l 249 319 l 249 113 q 252 72 249 93 q 257 34 254 54 q 267 -1 260 14 l 43 -1 q 54 35 50 16 q 61 72 58 54 q 64 113 64 92 l 64 812 q 61 847 64 829 q 54 883 58 863 q 41 926 50 904 m 249 467 l 314 467 q 358 475 336 467 q 398 502 380 484 q 426 549 415 519 q 437 619 437 578 q 432 674 437 646 q 413 726 427 703 q 377 765 399 750 q 323 781 355 781 l 249 781 l 249 467 z "},"ς":{"ha":717,"x_min":31,"x_max":681,"o":"m 31 1 l 31 171 l 274 479 l 31 778 l 31 947 q 47 941 39 944 q 66 936 56 937 q 84 933 75 935 q 102 930 94 931 q 122 928 112 928 q 141 927 132 927 l 571 927 q 590 928 581 927 q 608 930 599 928 q 643 936 625 932 q 662 940 652 937 q 681 947 671 943 l 681 735 q 648 745 667 741 q 629 750 638 748 q 612 753 620 751 q 571 755 591 755 l 262 755 l 481 473 l 267 188 l 571 188 q 608 190 590 188 q 626 193 616 191 q 644 197 635 195 q 681 209 663 201 l 681 3 q 646 14 663 11 q 610 20 627 18 q 591 23 600 22 q 571 24 581 24 l 141 24 q 120 23 130 24 q 98 20 109 22 q 80 17 89 19 q 62 14 71 16 q 31 1 42 8 z "},"σ":{"ha":717,"x_min":31,"x_max":681,"o":"m 31 1 l 31 171 l 274 479 l 31 778 l 31 947 q 47 941 39 944 q 66 936 56 937 q 84 933 75 935 q 102 930 94 931 q 122 928 112 928 q 141 927 132 927 l 571 927 q 590 928 581 927 q 608 930 599 928 q 643 936 625 932 q 662 940 652 937 q 681 947 671 943 l 681 735 q 648 745 667 741 q 629 750 638 748 q 612 753 620 751 q 571 755 591 755 l 262 755 l 481 473 l 267 188 l 571 188 q 608 190 590 188 q 626 193 616 191 q 644 197 635 195 q 681 209 663 201 l 681 3 q 646 14 663 11 q 610 20 627 18 q 591 23 600 22 q 571 24 581 24 l 141 24 q 120 23 130 24 q 98 20 109 22 q 80 17 89 19 q 62 14 71 16 q 31 1 42 8 z "},"τ":{"ha":648,"x_min":16,"x_max":632,"o":"m 16 733 l 45 926 l 604 926 l 632 733 q 602 751 621 744 q 562 761 582 758 q 517 765 540 765 l 416 765 l 418 126 q 421 79 418 102 q 429 38 424 60 q 443 -1 433 16 l 204 -1 q 220 39 215 17 q 228 81 225 61 q 232 126 231 104 l 232 765 l 131 765 q 85 761 107 765 q 46 751 65 758 q 16 733 26 745 z "},"υ":{"ha":757,"x_min":11,"x_max":745,"o":"m 11 928 l 264 928 q 260 901 260 916 q 261 880 260 890 q 265 863 262 869 q 271 846 268 853 l 392 555 l 514 846 l 518 859 q 522 873 521 865 q 524 892 524 880 q 522 909 524 900 q 517 928 521 918 l 745 928 q 724 900 734 916 q 707 872 714 885 q 690 842 699 857 l 481 366 l 481 126 q 484 79 481 102 q 491 38 486 60 q 505 -1 496 16 l 267 -1 q 282 39 276 17 q 290 81 288 61 q 293 126 293 104 l 293 366 l 71 842 q 50 880 61 863 q 30 910 41 896 q 11 928 20 924 z "},"φ":{"ha":1000,"x_min":54,"x_max":951,"o":"m 54 455 q 69 569 54 517 q 110 663 84 621 q 171 738 136 705 q 245 793 205 770 q 327 831 285 817 q 409 850 368 845 q 407 862 408 856 q 404 873 406 867 q 397 896 401 885 q 389 916 394 906 l 414 916 l 592 916 l 614 916 q 606 896 609 906 q 601 875 602 886 q 597 850 599 861 q 728 814 664 842 q 841 738 791 786 q 921 621 891 690 q 951 462 951 552 q 922 304 951 373 q 842 187 892 236 q 728 110 793 138 q 595 71 664 81 q 597 55 596 62 q 600 37 599 47 q 614 -1 604 16 l 389 -1 q 404 39 398 16 q 410 70 408 56 q 278 105 342 78 q 164 180 214 132 q 84 296 114 227 q 54 455 54 364 m 245 455 q 260 355 245 399 q 299 279 275 311 q 353 229 323 248 q 413 204 383 210 l 413 718 q 354 694 384 712 q 300 644 324 676 q 260 564 275 611 q 245 455 245 517 m 591 204 q 651 227 621 210 q 705 274 681 243 q 745 349 730 304 q 760 456 760 394 q 745 567 760 519 q 706 646 730 614 q 651 695 682 677 q 591 718 621 713 l 591 204 z "},"χ":{"ha":790,"x_min":35,"x_max":757,"o":"m 35 928 l 281 928 q 278 905 278 914 q 283 871 278 887 q 294 843 288 854 l 404 627 l 507 836 q 517 863 511 848 q 524 887 521 873 q 528 916 528 901 q 526 928 528 924 l 745 928 q 715 891 728 908 q 694 863 703 875 q 679 836 685 847 l 500 478 l 682 115 q 708 69 694 92 q 732 30 719 50 q 757 -1 746 9 l 519 -1 l 519 0 q 515 40 519 21 q 504 75 510 60 q 489 110 497 94 l 385 339 l 296 113 q 281 74 288 93 q 268 37 274 57 q 261 -1 262 17 l 46 -1 q 70 36 58 16 q 92 72 82 56 q 113 113 102 92 l 288 476 l 96 836 q 64 889 80 864 q 35 928 47 914 z "},"ψ":{"ha":937,"x_min":30,"x_max":896,"o":"m 30 924 l 251 924 q 245 907 248 915 q 241 891 243 899 q 236 863 239 876 q 234 849 235 856 q 233 835 233 842 l 233 753 l 232 753 l 232 660 q 243 558 232 600 q 273 490 254 517 q 318 450 292 463 q 375 435 345 437 l 375 838 q 374 847 374 840 q 371 866 373 857 q 366 886 370 876 q 360 906 363 897 q 353 925 357 916 l 568 925 q 555 887 559 907 q 549 850 551 867 l 549 433 q 604 451 578 435 q 649 499 630 467 q 680 583 669 532 q 692 707 692 633 l 692 852 q 691 858 691 855 q 690 863 691 860 q 684 891 688 873 q 681 907 683 899 q 675 924 678 915 l 896 924 q 890 907 892 915 q 885 891 887 899 q 881 876 883 883 q 878 863 880 869 q 877 856 878 860 q 876 849 876 852 l 876 672 q 850 507 876 577 q 780 390 825 437 q 676 318 736 343 q 550 289 617 293 l 550 62 q 553 49 551 56 q 555 36 554 43 q 568 0 559 15 l 353 0 q 360 18 357 9 q 366 37 363 26 q 371 57 370 47 q 374 75 373 66 q 375 85 374 82 l 375 289 q 251 315 310 293 q 147 379 192 338 q 76 484 102 421 q 49 631 49 546 l 49 855 q 47 863 49 858 q 44 876 46 869 q 41 891 43 883 q 36 907 39 899 q 30 924 33 915 z "},"ω":{"ha":1086,"x_min":28,"x_max":1029,"o":"m 28 201 q 45 190 37 195 q 61 182 53 186 l 94 174 q 110 171 102 172 q 129 171 119 171 l 245 171 l 245 176 q 185 233 215 199 q 131 310 155 267 q 92 406 107 353 q 77 521 77 458 q 111 691 77 611 q 205 830 144 770 q 351 923 266 889 q 538 958 435 958 q 670 941 610 958 q 781 896 731 925 q 868 828 830 867 q 931 741 905 788 q 970 643 957 694 q 983 537 983 591 q 967 413 983 469 q 925 312 951 357 q 870 233 900 267 q 812 176 840 199 l 812 171 l 929 171 q 948 171 939 171 q 964 174 956 172 l 997 182 q 1013 190 1005 186 q 1029 201 1021 195 l 1002 11 l 1000 11 l 590 11 l 590 136 q 656 198 625 162 q 711 278 688 233 q 749 377 735 323 q 764 494 764 431 q 748 606 764 553 q 702 701 732 660 q 630 765 673 741 q 533 789 587 789 q 435 766 479 789 q 360 703 391 743 q 311 609 328 663 q 294 494 294 555 q 309 382 294 437 q 347 280 323 328 q 404 195 372 233 q 473 136 437 158 l 473 11 l 61 11 l 56 11 l 28 201 z "},"ϊ":{"ha":300,"x_min":-43,"x_max":324,"o":"m -43 987 q -20 1043 -43 1019 q 35 1067 2 1067 q 90 1045 67 1067 q 112 991 112 1023 q 88 936 112 957 q 31 914 64 914 q -20 936 2 914 q -43 987 -43 958 m 31 0 q 46 38 41 17 q 55 77 52 58 q 58 119 58 98 l 58 741 q 55 784 58 762 q 46 823 52 802 q 31 863 41 844 l 270 863 q 256 825 260 846 q 248 785 252 804 q 245 741 245 763 l 245 119 q 248 75 245 96 q 255 36 251 57 q 270 0 260 16 l 31 0 m 170 987 q 192 1043 170 1019 q 248 1067 214 1067 q 302 1045 279 1067 q 324 991 324 1023 q 300 936 324 957 q 243 914 277 914 q 193 936 216 914 q 170 987 170 958 z "},"ϋ":{"ha":720,"x_min":35,"x_max":677,"o":"m 35 928 l 260 928 q 250 885 253 905 q 244 850 248 865 q 241 814 241 831 l 241 307 q 265 205 241 246 q 357 164 289 164 q 475 304 475 164 l 475 814 q 472 851 475 832 q 465 888 469 868 q 453 928 461 908 l 677 928 q 668 885 671 905 q 663 850 665 865 q 660 814 660 831 l 660 304 q 582 75 660 159 q 357 -9 504 -9 q 130 73 204 -9 q 56 302 56 155 l 56 814 q 53 850 56 832 q 46 885 50 865 q 35 928 41 905 z "},"ό":{"ha":830,"x_min":29,"x_max":802,"o":"m 29 469 q 59 655 29 569 q 142 805 89 742 q 268 904 196 868 q 425 940 340 940 q 591 898 521 940 q 708 788 661 856 q 779 636 755 721 q 802 467 802 551 q 777 294 802 380 q 704 139 753 208 q 583 27 656 71 q 412 -16 510 -16 q 245 28 317 -16 q 126 142 174 72 q 54 298 78 212 q 29 469 29 385 m 221 471 q 231 374 221 428 q 266 272 241 319 q 329 191 290 224 q 421 158 367 158 q 504 183 469 158 q 563 249 539 208 q 598 341 586 290 q 611 447 611 393 q 601 545 611 490 q 567 649 590 600 q 506 732 545 699 q 414 766 468 766 q 321 736 358 766 q 262 662 285 707 q 231 567 240 618 q 221 471 221 515 z "},"ύ":{"ha":715,"x_min":35,"x_max":677,"o":"m 35 928 l 260 928 q 250 885 253 905 q 244 850 248 865 q 241 814 241 831 l 241 307 q 265 205 241 246 q 357 164 289 164 q 475 304 475 164 l 475 814 q 472 851 475 832 q 465 888 469 868 q 453 928 461 908 l 677 928 q 668 885 671 905 q 663 850 665 865 q 660 814 660 831 l 660 304 q 582 75 660 159 q 357 -9 504 -9 q 130 73 204 -9 q 56 302 56 155 l 56 814 q 53 850 56 832 q 46 885 50 865 q 35 928 41 905 z "},"ώ":{"ha":1086,"x_min":28,"x_max":1029,"o":"m 28 201 q 45 190 37 195 q 61 182 53 186 l 94 174 q 110 171 102 172 q 129 171 119 171 l 245 171 l 245 176 q 185 233 215 199 q 131 310 155 267 q 92 406 107 353 q 77 521 77 458 q 111 691 77 611 q 205 830 144 770 q 351 923 266 889 q 538 958 435 958 q 670 941 610 958 q 781 896 731 925 q 868 828 830 867 q 931 741 905 788 q 970 643 957 694 q 983 537 983 591 q 967 413 983 469 q 925 312 951 357 q 870 233 900 267 q 812 176 840 199 l 812 171 l 929 171 q 948 171 939 171 q 964 174 956 172 l 997 182 q 1013 190 1005 186 q 1029 201 1021 195 l 1002 11 l 1000 11 l 590 11 l 590 136 q 656 198 625 162 q 711 278 688 233 q 749 377 735 323 q 764 494 764 431 q 748 606 764 553 q 702 701 732 660 q 630 765 673 741 q 533 789 587 789 q 435 766 479 789 q 360 703 391 743 q 311 609 328 663 q 294 494 294 555 q 309 382 294 437 q 347 280 323 328 q 404 195 372 233 q 473 136 437 158 l 473 11 l 61 11 l 56 11 l 28 201 z "},"ϒ":{"ha":797,"x_min":22,"x_max":772,"o":"m 22 692 l 50 850 q 108 843 77 850 q 171 823 139 837 q 234 788 203 809 q 290 737 264 767 q 363 619 336 687 q 399 467 390 551 l 407 467 q 450 615 418 549 q 524 730 481 682 q 577 779 549 757 q 634 817 606 801 q 691 841 663 832 q 743 850 719 849 l 772 688 q 687 645 728 676 q 610 570 645 614 q 547 471 574 526 q 505 354 520 416 q 490 268 496 311 q 485 181 485 224 l 485 106 q 486 93 485 100 q 487 80 486 87 q 490 60 488 70 q 494 38 492 50 q 509 -1 498 15 l 485 -1 l 485 -2 l 296 -2 l 296 -1 l 269 -1 q 284 39 279 18 q 292 81 290 62 q 294 104 294 93 q 295 127 295 116 l 295 237 q 291 291 294 265 q 284 348 289 317 q 250 473 272 414 q 196 576 228 531 q 120 652 163 622 q 22 692 77 682 z "},"ϔ":{"ha":797,"x_min":22,"x_max":772,"o":"m 22 692 l 50 850 q 108 843 77 850 q 171 823 139 837 q 234 788 203 809 q 290 737 264 767 q 363 619 336 687 q 399 467 390 551 l 407 467 q 450 615 418 549 q 524 730 481 682 q 577 779 549 757 q 634 817 606 801 q 691 841 663 832 q 743 850 719 849 l 772 688 q 687 645 728 676 q 610 570 645 614 q 547 471 574 526 q 505 354 520 416 q 490 268 496 311 q 485 181 485 224 l 485 106 q 486 93 485 100 q 487 80 486 87 q 490 60 488 70 q 494 38 492 50 q 509 -1 498 15 l 485 -1 l 485 -2 l 296 -2 l 296 -1 l 269 -1 q 284 39 279 18 q 292 81 290 62 q 294 104 294 93 q 295 127 295 116 l 295 237 q 291 291 294 265 q 284 348 289 317 q 250 473 272 414 q 196 576 228 531 q 120 652 163 622 q 22 692 77 682 m 215 924 q 237 979 215 956 q 293 1003 260 1003 q 347 981 325 1003 q 370 928 370 960 q 346 872 370 893 q 289 850 322 850 q 237 872 260 850 q 215 924 215 895 m 428 924 q 450 979 428 956 q 505 1003 472 1003 q 559 981 537 1003 q 582 928 582 960 q 558 872 582 893 q 501 850 534 850 q 451 872 473 850 q 428 924 428 895 z "},"Ё":{"ha":573,"x_min":41,"x_max":534,"o":"m 41 0 q 54 33 50 14 q 61 71 58 53 q 64 114 64 92 l 64 812 q 61 859 64 836 q 54 897 58 878 q 43 928 50 916 l 504 928 l 534 730 q 496 752 515 744 q 463 764 478 761 q 429 768 444 768 l 250 768 l 250 559 l 375 559 q 411 564 393 559 q 445 573 427 566 q 479 590 463 579 l 479 374 q 445 390 463 385 q 411 399 427 396 q 375 403 393 403 l 250 403 l 250 165 l 433 165 q 468 168 452 164 q 500 176 484 171 q 532 193 517 182 l 504 0 l 41 0 m 92 1051 q 114 1107 92 1083 q 170 1131 136 1131 q 224 1109 201 1131 q 246 1055 246 1087 q 222 999 246 1021 q 165 978 199 978 q 114 1000 136 978 q 92 1051 92 1022 m 304 1051 q 327 1107 304 1083 q 382 1131 349 1131 q 436 1109 414 1131 q 458 1055 458 1087 q 435 999 458 1021 q 378 978 411 978 q 327 1000 350 978 q 304 1051 304 1022 z "},"Ѓ":{"ha":617,"x_min":23,"x_max":583,"o":"m 23 925 l 555 925 l 583 733 q 552 749 569 745 q 519 757 534 753 q 485 759 503 759 l 237 759 l 237 104 q 238 84 237 94 q 241 64 239 75 q 244 49 242 57 q 249 31 246 41 q 255 14 252 22 q 261 -1 258 7 l 24 -1 q 32 13 28 5 q 37 31 35 21 q 41 50 39 40 q 44 68 43 59 q 46 92 45 80 q 47 115 47 103 l 47 810 q 46 832 47 821 q 44 853 45 842 q 36 891 41 871 q 30 909 33 901 q 23 925 26 918 z "},"Є":{"ha":677,"x_min":17,"x_max":646,"o":"m 17 478 q 22 561 17 521 q 39 644 28 602 q 108 791 62 726 q 160 850 132 823 q 224 897 189 877 q 391 938 294 938 q 484 928 438 937 q 524 917 503 923 q 567 903 545 911 q 609 883 589 895 q 646 854 629 871 l 646 626 q 577 701 619 673 q 498 740 535 728 q 406 756 452 755 q 314 726 352 756 q 253 652 277 698 q 232 606 240 630 q 218 557 223 583 q 216 548 216 552 q 215 539 216 544 l 476 539 q 495 540 486 539 q 515 542 505 541 q 532 545 524 543 q 550 549 541 547 q 585 562 569 554 l 585 366 q 551 377 571 374 q 533 380 542 378 q 516 382 524 381 q 476 385 496 385 l 216 385 q 217 377 217 381 q 218 370 218 374 q 233 321 224 345 q 254 275 242 297 q 283 234 267 252 q 319 201 299 216 q 410 172 356 172 q 456 175 434 172 q 500 183 479 178 q 576 212 536 193 q 642 269 616 233 l 642 47 q 605 28 623 36 q 567 14 587 20 q 530 3 548 7 q 496 -3 512 -1 q 460 -8 477 -7 q 425 -11 442 -10 q 340 -2 380 -11 q 262 26 300 7 q 133 130 188 64 q 48 286 77 197 q 17 478 17 372 z "},"Ѕ":{"ha":583,"x_min":36,"x_max":551,"o":"m 36 71 l 36 286 q 105 211 69 237 q 174 172 142 184 q 245 155 210 157 q 368 256 368 155 q 353 301 368 281 q 313 341 338 322 q 256 377 288 359 q 195 414 225 395 q 71 537 103 471 q 39 684 39 603 q 58 783 39 736 q 115 865 78 829 q 207 921 153 900 q 332 942 261 942 q 400 935 365 941 q 461 920 429 929 q 521 892 493 911 l 521 668 q 465 724 497 704 q 403 753 432 743 q 332 765 368 764 q 260 743 289 765 q 229 675 231 721 q 235 642 229 656 q 253 611 240 627 q 290 579 267 596 q 349 542 314 562 q 419 498 383 521 q 485 445 456 476 q 533 371 514 414 q 551 267 551 328 q 529 149 551 201 q 469 60 507 97 q 378 4 431 24 q 268 -16 326 -16 q 180 -5 220 -16 q 111 19 140 5 q 61 48 81 33 q 36 71 41 62 z "},"Ј":{"ha":483,"x_min":8,"x_max":425,"o":"m 8 25 l 8 210 q 60 178 32 190 q 121 167 89 167 q 193 199 168 167 q 218 306 218 232 l 218 815 q 215 852 218 833 q 208 889 212 869 q 195 929 203 909 l 425 929 q 413 887 417 907 q 407 851 410 867 q 404 815 404 833 l 404 306 q 386 169 404 232 q 330 65 368 106 q 244 6 290 24 q 135 -12 199 -12 q 93 -8 114 -12 q 52 2 73 -5 q 8 25 31 9 z "},"Ќ":{"ha":739,"x_min":43,"x_max":713,"o":"m 43 0 q 55 36 51 16 q 62 74 60 56 q 65 115 65 95 l 65 812 q 62 852 65 832 q 56 891 60 871 q 45 928 52 911 l 272 928 q 260 886 264 907 q 253 848 256 865 q 250 812 250 829 l 250 555 q 263 577 254 561 q 284 614 272 593 q 311 662 297 636 q 339 713 325 688 q 411 846 372 772 q 424 869 418 855 q 435 895 429 880 q 446 928 440 909 l 689 928 q 653 893 672 914 q 618 852 633 872 q 581 806 598 829 l 399 505 l 625 118 q 652 78 636 98 q 679 40 663 60 q 713 0 694 20 l 481 0 l 250 410 l 250 115 q 253 72 250 93 q 260 35 256 54 q 273 0 264 16 l 43 0 z "},"Ў":{"ha":750,"x_min":20,"x_max":729,"o":"m 20 928 l 247 928 q 249 904 248 917 q 254 880 251 892 q 260 856 257 867 q 266 834 262 844 q 274 809 270 821 q 283 785 279 797 l 364 475 l 452 788 q 460 809 457 798 q 467 833 464 819 q 473 853 471 842 q 479 875 475 863 q 484 926 484 901 l 484 928 l 729 928 q 718 911 724 921 q 705 888 712 901 q 692 864 699 876 q 680 840 686 852 q 667 810 673 825 q 654 781 661 796 l 488 325 l 488 325 l 466 268 q 415 149 442 204 q 354 53 388 94 q 277 -11 320 13 q 178 -34 235 -34 q 160 -34 170 -34 q 141 -32 151 -33 q 123 -30 131 -31 q 110 -27 115 -28 l 94 128 q 107 127 100 127 q 121 127 115 127 q 163 137 144 127 q 201 163 182 147 q 233 204 219 180 q 258 256 248 228 q 264 277 262 265 q 267 294 267 289 q 266 308 267 300 q 260 328 265 316 l 250 358 q 225 425 240 382 q 190 517 210 467 q 151 618 171 567 q 114 715 131 670 q 83 793 96 760 q 65 837 71 825 q 54 858 59 846 q 43 881 49 869 q 32 906 38 894 q 20 928 26 918 m 206 1079 l 256 1111 q 309 1066 277 1076 q 374 1057 340 1057 q 439 1066 408 1057 q 492 1111 470 1076 l 542 1079 q 478 998 518 1020 q 374 975 438 975 q 269 998 308 975 q 206 1079 230 1020 z "},"Џ":{"ha":844,"x_min":39,"x_max":793,"o":"m 39 0 q 52 39 48 19 q 56 61 54 51 q 59 80 58 71 q 61 102 60 92 q 62 124 62 113 l 62 803 q 61 824 62 813 q 59 844 60 834 q 56 863 58 853 q 52 884 54 873 q 47 904 51 894 q 39 925 44 914 l 285 925 q 273 888 278 909 q 268 867 270 877 q 265 848 267 857 q 263 825 264 836 q 262 803 262 814 l 262 193 l 576 193 l 576 803 q 576 824 576 813 q 574 844 575 834 q 571 863 572 853 q 566 884 569 873 q 553 925 562 905 l 792 925 q 784 906 787 916 q 779 886 781 897 q 774 865 777 876 q 771 846 772 855 q 769 824 770 835 q 768 803 768 814 l 768 124 q 769 100 768 112 q 771 76 770 87 q 779 35 774 56 q 793 0 785 14 l 512 0 l 512 -106 q 513 -127 512 -117 q 515 -147 513 -138 q 518 -166 516 -157 q 522 -187 519 -176 q 536 -228 526 -208 l 297 -228 q 304 -209 301 -218 q 310 -189 307 -199 q 314 -169 312 -179 q 317 -149 316 -159 q 319 -128 319 -138 q 320 -106 320 -117 l 320 0 l 39 0 z "},"А":{"ha":791,"x_min":28,"x_max":762,"o":"m 28 0 q 48 40 39 18 q 64 81 57 61 q 79 126 72 103 l 252 817 q 255 835 254 825 q 257 854 256 843 q 258 876 258 865 q 256 905 258 892 q 250 929 255 918 l 529 929 q 522 904 524 918 q 521 873 521 889 q 521 857 521 864 q 522 843 521 850 q 524 831 522 836 q 547 739 533 791 q 576 631 561 688 q 607 514 591 574 q 637 399 622 454 q 709 126 672 267 q 726 78 718 101 q 743 37 733 58 q 762 0 753 16 l 534 0 q 538 31 538 14 q 537 51 538 41 q 534 66 536 60 q 532 82 533 75 q 526 104 530 87 q 517 147 524 120 q 500 222 511 174 l 271 222 q 266 199 271 220 q 255 153 261 179 q 245 103 250 127 q 239 65 240 78 q 237 58 237 62 q 236 50 236 56 q 236 39 236 45 q 237 19 236 29 q 243 0 239 9 l 28 0 m 307 376 l 467 376 l 385 708 l 307 376 z "},"Б":{"ha":712,"x_min":68,"x_max":652,"o":"m 68 1 q 81 44 77 22 q 84 63 83 54 q 87 80 86 73 q 90 115 90 96 l 90 816 q 90 837 90 827 q 87 857 89 846 q 84 874 86 866 q 81 891 83 882 q 76 910 79 901 q 71 928 73 919 l 492 928 q 538 930 515 928 q 557 933 547 932 q 577 938 566 935 q 615 951 600 942 l 615 734 q 597 743 606 739 q 576 749 587 747 q 555 754 565 752 q 536 758 546 756 q 514 760 525 759 q 492 760 503 760 l 277 760 l 277 607 l 360 607 q 465 590 414 607 q 559 535 517 570 q 625 441 600 496 q 652 307 652 386 q 629 170 652 229 q 568 74 606 111 q 529 41 549 55 q 483 19 508 28 q 386 1 436 1 l 68 1 m 277 146 l 351 146 q 405 162 385 146 q 424 180 416 170 q 439 201 433 190 q 452 226 448 213 q 460 254 456 239 q 464 281 463 267 q 465 308 465 294 q 454 379 465 349 q 425 426 444 408 q 387 453 407 446 q 342 462 364 462 l 277 462 l 277 146 z "},"В":{"ha":659,"x_min":43,"x_max":631,"o":"m 43 929 l 351 929 q 444 915 401 929 q 517 873 486 901 q 567 805 549 846 q 585 711 585 764 q 552 583 585 637 q 453 498 519 528 q 584 421 538 480 q 631 285 631 361 q 606 159 631 213 q 539 70 582 106 q 439 17 497 35 q 314 0 380 0 l 45 0 q 56 37 52 17 q 62 75 60 57 q 65 115 65 96 l 65 815 q 62 850 65 832 q 56 886 60 865 q 43 929 52 907 m 249 149 l 319 150 q 363 158 342 150 q 402 183 385 167 q 430 227 419 200 q 440 292 440 254 q 433 331 440 310 q 409 369 425 351 q 370 399 393 387 q 318 411 347 411 l 249 411 l 249 149 m 250 561 l 302 561 q 377 596 351 561 q 403 689 403 632 q 396 729 403 709 q 378 765 390 749 q 345 791 366 781 q 304 799 328 800 q 297 799 300 799 l 250 798 l 250 561 z "},"Г":{"ha":621,"x_min":31,"x_max":591,"o":"m 31 926 l 563 926 l 591 732 q 559 748 576 744 q 527 756 542 753 q 492 758 511 758 l 244 758 l 244 104 q 245 84 244 94 q 248 64 247 75 q 252 49 250 57 q 256 31 254 41 q 262 14 260 22 q 269 -1 265 7 l 32 -1 q 39 13 36 5 q 44 31 43 21 q 48 50 46 40 q 52 68 50 59 q 54 92 53 80 q 54 115 54 103 l 54 811 q 54 833 54 823 q 52 854 53 844 q 43 892 48 873 q 37 911 41 903 q 31 926 34 919 z "},"Д":{"ha":965,"x_min":26,"x_max":929,"o":"m 26 -179 q 37 -149 33 -165 q 40 -132 37 -140 q 43 -115 42 -123 q 45 -97 45 -106 q 45 -79 45 -88 l 45 160 l 100 160 q 126 171 110 160 q 159 198 142 181 q 196 241 176 216 q 229 298 215 267 q 253 367 243 330 q 263 450 263 404 l 263 758 l 263 825 q 263 845 263 835 q 262 865 262 855 q 256 899 258 882 q 243 926 249 914 l 868 926 q 862 911 865 918 q 859 895 859 903 q 855 877 857 885 q 852 861 853 869 q 851 843 852 851 q 850 825 850 835 l 850 160 l 911 160 l 911 -79 q 912 -97 911 -88 q 914 -114 913 -105 q 917 -130 916 -121 q 919 -146 918 -138 q 923 -163 920 -156 q 929 -179 926 -171 l 726 -179 q 731 -165 728 -172 q 735 -150 734 -159 q 739 -133 736 -140 q 741 -117 741 -125 q 743 -98 742 -107 q 744 -79 744 -89 l 744 -1 l 203 -1 l 203 -79 q 203 -97 203 -88 q 204 -114 203 -105 q 208 -130 205 -121 q 211 -147 210 -138 q 223 -179 216 -163 l 26 -179 m 336 160 l 683 160 l 683 765 l 425 765 l 425 424 l 424 424 q 414 341 420 380 q 395 269 407 301 q 367 210 382 237 q 336 160 351 182 z "},"Е":{"ha":573,"x_min":41,"x_max":534,"o":"m 41 0 q 54 33 50 14 q 61 71 58 53 q 64 114 64 92 l 64 812 q 61 859 64 836 q 54 897 58 878 q 43 928 50 916 l 504 928 l 534 730 q 496 752 515 744 q 463 764 478 761 q 429 768 444 768 l 250 768 l 250 559 l 375 559 q 411 564 393 559 q 445 573 427 566 q 479 590 463 579 l 479 374 q 445 390 463 385 q 411 399 427 396 q 375 403 393 403 l 250 403 l 250 165 l 433 165 q 468 168 452 164 q 500 176 484 171 q 532 193 517 182 l 504 0 l 41 0 z "},"Ж":{"ha":1141,"x_min":28,"x_max":1106,"o":"m 28 -1 q 39 32 35 16 q 43 46 41 39 q 46 60 45 54 q 47 63 47 62 q 47 67 47 65 q 62 188 48 127 q 105 304 75 249 q 184 406 136 360 q 305 482 233 452 l 87 842 q 72 868 79 855 q 57 892 64 880 q 42 914 49 905 q 28 930 35 923 l 264 930 q 263 918 264 923 q 262 908 262 912 q 267 875 262 890 q 272 860 269 867 q 277 848 274 853 l 420 516 q 445 519 433 517 q 469 523 456 522 l 469 800 q 468 822 469 811 q 467 844 468 833 q 464 865 466 854 q 458 887 462 876 q 451 909 455 899 q 443 930 448 920 l 680 930 q 671 910 674 920 q 666 888 667 900 q 663 866 665 877 q 659 846 661 856 q 656 823 657 834 q 656 800 656 811 l 656 523 q 685 519 671 521 q 713 515 699 517 l 857 848 q 862 860 860 853 q 867 875 865 867 q 871 908 871 890 q 871 918 871 912 q 869 930 870 923 l 1106 930 q 1093 914 1100 923 q 1078 892 1086 905 q 1062 868 1070 880 q 1047 842 1055 855 l 827 480 q 948 404 899 450 q 1028 303 998 358 q 1072 187 1059 248 q 1086 67 1085 127 q 1088 59 1086 64 q 1091 46 1089 53 q 1095 31 1093 39 q 1100 16 1097 24 q 1105 -2 1102 7 l 884 -2 q 890 12 886 3 q 897 33 893 21 q 903 59 901 45 q 903 87 905 73 l 904 87 q 885 173 900 126 q 840 262 869 220 q 765 339 810 305 q 656 390 720 374 l 656 127 q 656 103 656 115 q 659 81 657 92 q 662 60 660 70 q 665 38 664 50 q 680 -1 669 16 l 443 -1 q 451 18 448 8 q 458 39 455 28 q 464 61 462 51 q 467 82 466 72 q 468 105 468 94 q 469 127 469 116 l 469 391 q 361 340 405 375 q 289 263 317 306 q 247 173 261 220 q 230 87 233 127 l 231 87 q 231 59 229 73 q 237 34 233 45 q 244 13 240 22 q 249 -1 248 3 l 28 -1 z "},"З":{"ha":692,"x_min":28,"x_max":658,"o":"m 28 45 l 94 201 q 140 170 112 182 q 201 151 163 158 q 294 149 239 143 q 338 158 316 151 q 380 179 361 166 q 414 211 399 193 q 436 252 429 229 q 440 272 439 262 q 441 292 441 282 q 440 302 441 297 q 439 312 440 307 q 435 329 439 319 q 435 332 435 330 q 433 335 435 333 q 429 344 432 340 q 424 353 427 348 q 407 381 417 368 q 382 404 396 394 q 349 421 368 414 q 309 434 330 429 q 206 441 264 446 l 168 437 l 168 568 l 193 568 q 203 568 198 568 q 214 568 209 568 q 342 597 296 563 q 376 634 366 612 q 386 686 386 656 l 386 689 q 382 713 386 705 q 371 740 378 728 q 352 763 364 751 q 349 766 351 766 q 316 783 334 777 q 277 793 298 789 q 191 790 227 798 q 134 772 155 783 q 92 742 107 760 l 28 888 q 38 888 31 887 q 80 895 50 888 q 111 905 90 898 q 159 920 131 913 q 221 933 186 928 q 296 939 256 939 q 377 930 335 939 q 464 903 420 922 q 551 833 519 876 q 589 739 583 791 q 591 723 591 730 q 591 708 591 715 q 590 684 591 696 q 587 660 589 671 q 586 652 586 655 q 585 646 585 648 q 566 607 579 626 q 536 572 553 588 q 497 544 519 555 q 453 526 476 532 l 453 516 q 534 483 496 508 q 570 458 554 471 q 598 428 587 445 q 625 391 616 410 q 639 368 633 380 q 648 340 645 356 q 655 306 652 323 q 658 270 658 290 q 644 177 658 218 q 624 139 635 156 q 600 108 614 121 q 580 85 591 95 q 555 64 569 75 q 532 50 544 57 q 508 37 519 43 q 414 6 461 16 q 324 -4 368 -3 q 242 0 281 -5 q 171 13 203 5 q 117 27 140 20 q 83 37 94 35 q 56 43 67 41 q 39 45 45 45 q 28 45 32 46 z "},"И":{"ha":699,"x_min":43,"x_max":656,"o":"m 43 0 q 55 38 52 18 q 61 75 58 58 q 64 113 64 94 l 64 811 q 61 852 64 831 q 55 890 58 871 q 43 928 51 909 l 247 928 q 234 893 239 913 q 227 854 229 873 q 224 811 224 832 l 224 395 l 468 928 l 656 928 q 642 893 647 913 q 635 854 637 873 q 632 811 632 832 l 632 113 q 635 72 632 92 q 642 36 637 56 q 654 0 646 16 l 448 0 q 461 37 457 17 q 468 74 465 57 q 471 113 471 93 l 472 553 l 214 0 l 43 0 z "},"Й":{"ha":702,"x_min":46,"x_max":659,"o":"m 46 0 q 58 38 55 18 q 64 75 62 58 q 67 113 67 94 l 67 811 q 64 852 67 831 q 58 890 62 871 q 46 928 54 909 l 250 928 q 237 893 242 913 q 230 854 233 873 q 227 811 227 832 l 227 395 l 471 928 l 659 928 q 646 893 650 913 q 638 854 641 873 q 635 811 635 832 l 635 113 q 638 72 635 92 q 645 36 641 56 q 657 0 649 16 l 452 0 q 465 37 460 17 q 471 74 469 57 q 474 113 474 93 l 475 553 l 217 0 l 46 0 m 178 1097 l 233 1130 q 294 1079 260 1088 q 363 1069 328 1069 q 431 1079 397 1069 q 493 1130 465 1088 l 549 1097 q 477 1006 520 1031 q 363 981 433 981 q 249 1006 291 981 q 178 1097 206 1031 z "},"К":{"ha":739,"x_min":43,"x_max":713,"o":"m 43 0 q 55 36 51 16 q 62 74 60 56 q 65 115 65 95 l 65 812 q 62 852 65 832 q 56 891 60 871 q 45 928 52 911 l 272 928 q 260 886 264 907 q 253 848 256 865 q 250 812 250 829 l 250 555 q 263 577 254 561 q 284 614 272 593 q 311 662 297 636 q 339 713 325 688 q 411 846 372 772 q 424 869 418 855 q 435 895 429 880 q 446 928 440 909 l 689 928 q 653 893 672 914 q 618 852 633 872 q 581 806 598 829 l 399 505 l 625 118 q 652 78 636 98 q 679 40 663 60 q 713 0 694 20 l 481 0 l 250 410 l 250 115 q 253 72 250 93 q 260 35 256 54 q 273 0 264 16 l 43 0 z "},"Л":{"ha":884,"x_min":22,"x_max":824,"o":"m 22 160 q 47 160 33 159 q 79 169 62 162 q 111 188 95 175 q 140 222 127 201 q 160 276 153 244 q 168 351 168 307 l 168 738 l 169 738 l 169 805 q 168 829 169 817 q 166 853 168 841 q 158 894 163 872 q 144 929 153 913 l 824 929 q 810 889 814 910 q 807 868 808 878 q 804 849 806 859 q 802 827 802 838 q 801 805 801 816 l 801 123 q 802 102 801 113 q 804 82 802 92 q 807 63 806 73 q 810 43 808 53 q 815 22 812 33 q 824 1 819 12 l 578 1 q 590 39 586 18 q 594 59 593 49 q 597 78 596 68 q 600 101 599 90 q 600 123 600 112 l 600 736 l 361 736 l 361 322 l 360 322 q 342 204 357 254 q 305 119 328 155 q 254 61 282 84 q 197 26 226 39 q 139 7 168 13 q 89 1 111 2 q 51 3 66 1 q 33 7 35 5 l 22 160 z "},"М":{"ha":892,"x_min":45,"x_max":833,"o":"m 45 929 l 222 929 l 444 521 l 656 929 l 833 929 q 821 892 825 912 q 814 854 817 872 q 812 814 812 833 l 812 114 q 814 75 812 94 q 821 39 817 58 q 833 0 824 20 l 612 0 q 623 35 618 16 q 630 72 627 54 q 633 114 633 93 l 633 549 l 438 191 l 239 545 l 239 114 q 242 75 239 94 q 249 38 245 58 q 262 0 254 18 l 47 0 q 59 36 55 17 q 66 74 63 56 q 68 114 68 94 l 68 814 q 66 859 68 836 q 58 896 63 877 q 45 929 54 916 z "}}}
